<svg xmlns="http://www.w3.org/2000/svg" version="1.1" xmlns:xlink="http://www.w3.org/1999/xlink" xmlns:svgjs="http://svgjs.dev/svgjs" viewBox="0 0 1920 1080"><rect width="1920" height="1080" fill="#000000"></rect><g transform="matrix(0.8131727983645296,0.8131727983645295,-0.8131727983645295,0.8131727983645296,614.2758713516209,-661.5152955598053)"><path d="M0,-1080C-0.08320137768776448,-1018.4565702133254,4.134393209187226,-838.9754926355947,-0.49920826612658686,-710.7394212799527C-5.1328097414404,-582.5033499243107,-38.57700693649494,-444.2900122839428,-27.801608851882875,-310.5835718661481C-17.02621076727081,-176.8771314483533,58.61922950645591,-37.542967332784144,64.15318024154578,91.49922122681599C69.68713097663566,220.54140978641612,4.264395365241356,329.0737237001025,5.402095558656356,463.66955949145273C6.539795752071356,598.265395282803,76.60518032559462,757.7050833657099,70.97938140203578,899.0742359749175C65.35358247847695,1040.4433885841252,-9.496518304649488,1157.2275359623015,-28.352697982696668,1311.8844751466986C-47.20887766074385,1466.5414143310957,-46.88314633003008,1685.6632836057493,-42.157696666247304,1827.0158710812996C-37.43224700246453,1968.3684585568499,-7.026282777707884,2104.5026451802164,0,2160L 1920 2160 L 1920 -1080 Z" fill="url(&quot;#SvgjsLinearGradient2293&quot;)"></path><path d="M240,-1080C226.73573367865146,-932.6847785896676,147.725235762342,-458.04346201256885,160.4144020719087,-196.10867153800578C173.1035683814754,65.82611893655726,315.8705200412838,238.48856814057285,316.1349978574002,491.6087428473784C316.39947567351663,744.7289175541839,174.69043527817388,1044.5471671773903,162.00126896860718,1322.6123767028273C149.31210265904048,1600.6775862282643,227.00021149476785,2020.4353961171378,240,2160L 1920 2160 L 1920 -1080 Z" fill="url(&quot;#SvgjsLinearGradient2294&quot;)"></path><path d="M480,-1080C487.19738548008047,-977.2690353240132,512.6332446006887,-689.9097709517058,523.1843128804828,-463.614211944079C533.7353811602769,-237.31865293645214,539.752905563199,62.083030135647846,543.3064096787647,277.77335404576104C546.8599137943304,493.46367795587423,543.210786175229,635.2719069111873,544.5053375738773,830.5277315166C545.7998889725257,1025.7835561220127,561.8246076663011,1227.7295902643375,551.0737180706549,1449.3083016782375C540.3228284750087,1670.8870130921375,491.84561967844246,2041.5513836130397,480,2160L 1920 2160 L 1920 -1080 Z" fill="url(&quot;#SvgjsLinearGradient2295&quot;)"></path><path d="M720,-1080C708.154943956362,-966.8774396680546,642.8438243100683,-628.312995450732,648.9296637381717,-401.2646380083276C655.0155031662752,-174.21628056592314,734.8849533259995,77.49725350258512,756.5150365686205,282.2901446544268C778.1451198112416,487.08303580626847,780.2173383793038,619.4480924045075,778.7101631938975,827.4927089027224C777.2029880084913,1035.5373254009373,757.257012655166,1308.473295127503,747.4719854561831,1530.5578436437158C737.6869582572002,1752.6423921599287,724.5786642426972,2055.0929739406192,720,2160L 1920 2160 L 1920 -1080 Z" fill="url(&quot;#SvgjsLinearGradient2296&quot;)"></path><path d="M960,-1080C946.0056019920003,-1000.622783629066,884.2016681191892,-747.4646272719996,876.0336119520017,-603.7367017743959C867.8655557848142,-460.0087762767922,886.8699173742276,-359.74389509564946,910.9916629968747,-217.6324470143781C935.1134086195217,-75.52099893310677,1018.2106046863009,83.73179894290641,1020.764085687884,248.93198671323208C1023.317566689467,414.1321744835577,925.8998083762663,613.2412088487496,926.3125490063725,773.568679607576C926.7252896364787,933.8961503664024,1014.1307669602277,1053.8994804773276,1023.2405294685216,1210.8968112661905C1032.3502919768155,1367.8941420550534,991.5112123008894,1557.368799551785,980.9711240561357,1715.5526643407534C970.4310358113821,1873.7365291297217,963.4951873426893,2085.925444056792,960,2160L 1920 2160 L 1920 -1080 Z" fill="url(&quot;#SvgjsLinearGradient2297&quot;)"></path><path d="M1200,-1080C1195.8001268429807,-999.2878827498055,1168.3652625664452,-730.9333677317942,1174.800761057884,-595.7272964988327C1181.236259549323,-460.5212252658713,1238.9186008984368,-386.8007458981525,1238.612990948633,-268.76357260223153C1238.3073809988293,-150.72639930631055,1186.1051778800925,-29.680598590895897,1172.967101359062,112.49574327669328C1159.8290248380317,254.67208514428245,1168.3731672406689,440.92481050459605,1159.7845318224515,584.2944786033034C1151.1958964042342,727.6641467020108,1113.7001213949268,830.6099483790466,1121.4352888497576,972.7137518689378C1129.1704563045885,1114.8175553588292,1193.3566596468972,1299.8187070100498,1206.1955365514366,1436.9172995426509C1219.034413455976,1574.015892075252,1199.5011397022333,1674.7915236549866,1198.468550276994,1795.3053070645449C1197.4359608517545,1915.8190904741032,1199.744758379499,2099.217551177424,1200,2160L 1920 2160 L 1920 -1080 Z" fill="url(&quot;#SvgjsLinearGradient2298&quot;)"></path><path d="M1440,-1080C1430.0748655809264,-939.4628489511542,1379.1118695338353,-507.21261349536235,1380.449193485558,-236.77709370692554C1381.7865174372807,33.658426081511266,1440.1805068919907,291.48517612983755,1448.0239437103367,542.6131187306207C1455.8673805286826,793.7410613314039,1428.8471383473561,1000.4260816862104,1427.5098143956334,1269.9905618977737C1426.1724904439106,1539.555042109337,1437.9183023992723,2011.665093649629,1440,2160L 1920 2160 L 1920 -1080 Z" fill="url(&quot;#SvgjsLinearGradient2299&quot;)"></path><path d="M1680,-1080C1675.3771731801749,-1005.3729525655577,1665.1225101357,-755.8724030577512,1652.2630390810493,-632.2377153933467C1639.4035680263987,-508.6030277289421,1589.2307089842457,-461.3503585632638,1602.8431736720956,-338.1918740135728C1616.4556383599456,-215.03338946388175,1715.7811572746232,-47.3079180945645,1733.9378272081492,106.71319190479944C1752.0944971416752,260.7343019041634,1715.1635901115283,439.6180252151548,1711.7831932732524,585.934785982611C1708.4027964349766,732.2515467500671,1723.6109179451257,865.9324635390076,1713.655446178495,984.6137565095365C1703.699974411864,1103.2950494800655,1645.0770835663045,1159.4175900795187,1652.0503626734678,1298.0225438057848C1659.0236417806311,1436.627497532051,1750.8368479337198,1672.5805695014305,1755.4951208214752,1816.243478867133C1760.1533937092306,1959.9063882328355,1692.5825201369125,2102.7072464778557,1680,2160L 1920 2160 L 1920 -1080 Z" fill="url(&quot;#SvgjsLinearGradient2300&quot;)"></path></g><defs><linearGradient x1="0.1" y1="0" x2="0" y2="1" id="SvgjsLinearGradient2293"><stop stop-color="#000000" offset="0"></stop><stop stop-color="#000000" offset="0"></stop></linearGradient><linearGradient x1="0.1" y1="0" x2="0" y2="1" id="SvgjsLinearGradient2294"><stop stop-color="#202020" offset="0"></stop><stop stop-color="#202020" offset="0.125"></stop></linearGradient><linearGradient x1="0.1" y1="0" x2="0" y2="1" id="SvgjsLinearGradient2295"><stop stop-color="#404040" offset="0"></stop><stop stop-color="#404040" offset="0.25"></stop></linearGradient><linearGradient x1="0.1" y1="0" x2="0" y2="1" id="SvgjsLinearGradient2296"><stop stop-color="#606060" offset="0"></stop><stop stop-color="#606060" offset="0.375"></stop></linearGradient><linearGradient x1="0.1" y1="0" x2="0" y2="1" id="SvgjsLinearGradient2297"><stop stop-color="#808080" offset="0"></stop><stop stop-color="#808080" offset="0.5"></stop></linearGradient><linearGradient x1="0.1" y1="0" x2="0" y2="1" id="SvgjsLinearGradient2298"><stop stop-color="#9f9f9f" offset="0"></stop><stop stop-color="#9f9f9f" offset="0.625"></stop></linearGradient><linearGradient x1="0.1" y1="0" x2="0" y2="1" id="SvgjsLinearGradient2299"><stop stop-color="#bfbfbf" offset="0"></stop><stop stop-color="#bfbfbf" offset="0.75"></stop></linearGradient><linearGradient x1="0.1" y1="0" x2="0" y2="1" id="SvgjsLinearGradient2300"><stop stop-color="#dfdfdf" offset="0"></stop><stop stop-color="#dfdfdf" offset="0.875"></stop></linearGradient></defs></svg>