<svg xmlns="http://www.w3.org/2000/svg" version="1.1" xmlns:xlink="http://www.w3.org/1999/xlink" xmlns:svgjs="http://svgjs.dev/svgjs" viewBox="0 0 1920 1080"><rect width="1920" height="1080" fill="#000000"></rect><g transform="matrix(0.8131727983645296,0.8131727983645295,-0.8131727983645295,0.8131727983645296,616.16249760968,-669.7269111077767)"><path d="M0,-1080C-1.7843509417998387,-986.1370214261314,-20.245643833044745,-728.8933069734244,-10.706105650799032,-516.8221285567881C-1.1665674685533194,-304.7509501401519,55.21497586113201,-51.55951627033704,57.23722909347427,192.42707049981763C59.25948232581653,436.4136572699723,15.07901965836678,728.9446060887477,1.427413743254533,947.09739206414C-12.224192171857714,1165.250178039532,-24.434504106656796,1299.1933516961942,-24.672406397199218,1501.3437863521708C-24.91030868774164,1703.4942210081474,-4.112067732866536,2050.2239643920284,0,2160L 1920 2160 L 1920 -1080 Z" fill="url(&quot;#SvgjsLinearGradient2285&quot;)"></path><path d="M240,-1080C254.15449027919647,-969.9976567030697,318.0469968932309,-635.1282274750204,324.9269416751788,-419.98594021841797C331.80688645712667,-204.84365296181562,293.0114719917829,-2.6462022008762744,281.2796686916871,210.853723539614C269.5478653915913,424.35364928010426,267.38176731090584,657.057045540292,254.53612187460402,861.0136142245236C241.69047643830223,1064.9701829087553,206.628483052977,1218.095404682424,204.20579607387634,1434.5931356450035C201.78310909477568,1651.090866607583,234.03429934564605,2039.0988559408338,240,2160L 1920 2160 L 1920 -1080 Z" fill="url(&quot;#SvgjsLinearGradient2286&quot;)"></path><path d="M480,-1080C466.78362210305465,-985.834048554991,406.56174232681514,-700.4719716614653,400.7017326183281,-515.0042913299462C394.84172290984105,-329.53661099842714,424.3457419477587,-148.15437828062315,444.8399417490777,32.80608198911477C465.3341415503967,213.7665422588527,515.8576026347131,385.14000348350714,523.6669314262421,570.7584702884812C531.476260217771,756.3769370934554,499.30684882867644,967.337609923863,491.6959144982512,1146.5168828189592C484.084980167826,1325.6961557140553,479.95064452673273,1476.9202547955515,478.00132544369086,1645.8341076590582C476.052006360649,1814.7479605225649,479.6668875739485,2074.305684609843,480,2160L 1920 2160 L 1920 -1080 Z" fill="url(&quot;#SvgjsLinearGradient2287&quot;)"></path><path d="M720,-1080C705.3830656552605,-999.2536827446131,627.4719581487353,-742.1211470962793,632.298393931563,-595.5220964676786C637.1248297143908,-448.9230458390779,724.9765316220296,-360.58993568422454,748.9586146969664,-200.4056962283959C772.9406977719032,-40.22145677256725,776.0323475710304,198.30042222414957,776.1908923811836,365.58334026729324C776.3494371913368,532.8662583104369,768.1769274953737,655.7281888403754,749.909883557886,803.2918120304662C731.6428396203984,950.855435220557,668.1968500414181,1116.2465584841984,666.5886287562577,1250.9650794078382C664.9804074710972,1385.683600331478,731.3586606396331,1460.097117473611,740.2605558469235,1611.6029375723047C749.1624510542139,1763.1087576709983,723.3767593078205,2068.6004895953843,720,2160L 1920 2160 L 1920 -1080 Z" fill="url(&quot;#SvgjsLinearGradient2288&quot;)"></path><path d="M960,-1080C972.0957085185781,-931.078192135881,1033.3063364371658,-460.4693827382157,1032.5742511114686,-186.46915281528572C1031.8421657857714,87.53107710764425,956.7094138250177,318.2536828995435,955.607488045817,564.0013795375799C954.5055622666164,809.7490761756162,1025.2306111105675,1022.0172569358626,1025.9626964362647,1288.0170270129327C1026.6947817619618,1554.0167970900027,970.9937827393775,2014.6695045021554,960,2160L 1920 2160 L 1920 -1080 Z" fill="url(&quot;#SvgjsLinearGradient2289&quot;)"></path><path d="M1200,-1080C1206.070257308322,-997.7771819120815,1237.6520981310398,-742.877782144045,1236.4215438499314,-586.6630914724884C1235.190989568823,-430.44840080093184,1210.9513839972694,-279.3766359493164,1192.61667431335,-142.71185597066025C1174.2819646294304,-6.047075992004125,1114.8157754714855,69.99140792501814,1126.413285746414,233.32558839944824C1138.0107960213425,396.6597688738783,1236.2931697335305,656.9649716186173,1262.2017359629208,837.2932268759203C1288.110302192311,1017.6214821332233,1287.0254163032023,1180.8009000785235,1281.864683122756,1315.2951199432662C1276.70394994231,1449.789339808009,1244.881450734036,1503.4743993882544,1231.2373368802432,1644.2585460643768C1217.5932230264505,1785.0426927404992,1205.2062228133739,2074.0430910107293,1200,2160L 1920 2160 L 1920 -1080 Z" fill="url(&quot;#SvgjsLinearGradient2290&quot;)"></path><path d="M1440,-1080C1445.8474796767825,-958.4721302968993,1464.8474099704215,-561.9376147459698,1475.084878060695,-350.832781781396C1485.3223461509685,-139.72794881682222,1508.0564650908902,-13.628318010906838,1501.4248085416411,186.62899778744278C1494.793151992392,386.88631358579244,1434.3166190811435,632.4570870527058,1435.2949387652002,850.7111130087017C1436.273258449257,1068.9651389646976,1506.5105497735149,1277.9383390248686,1507.2947266459814,1496.1531535234183C1508.078903518448,1714.367968021968,1451.2157877743302,2049.3588589205697,1440,2160L 1920 2160 L 1920 -1080 Z" fill="url(&quot;#SvgjsLinearGradient2291&quot;)"></path><path d="M1680,-1080C1669.5401118035456,-968.7771361962558,1629.1421219698673,-639.5949708561071,1617.2406708212743,-412.6628171775348C1605.3392196726813,-185.7306634989625,1597.7160731969216,82.95031080114339,1608.5912931084424,281.5929220714338C1619.4665130199633,480.23553334172425,1658.4681541387224,566.2269322337992,1682.4919902903987,779.1928504442076C1706.515826442075,992.158768654616,1753.1496417335666,1329.2539064079185,1752.7343100185,1559.388431333884C1752.3189783034336,1789.5229562598495,1692.1223850030833,2059.8980718889807,1680,2160L 1920 2160 L 1920 -1080 Z" fill="url(&quot;#SvgjsLinearGradient2292&quot;)"></path></g><defs><linearGradient x1="0.1" y1="0" x2="0" y2="1" id="SvgjsLinearGradient2285"><stop stop-color="#000000" offset="0"></stop><stop stop-color="#000000" offset="0"></stop></linearGradient><linearGradient x1="0.1" y1="0" x2="0" y2="1" id="SvgjsLinearGradient2286"><stop stop-color="#202020" offset="0"></stop><stop stop-color="#202020" offset="0.125"></stop></linearGradient><linearGradient x1="0.1" y1="0" x2="0" y2="1" id="SvgjsLinearGradient2287"><stop stop-color="#404040" offset="0"></stop><stop stop-color="#404040" offset="0.25"></stop></linearGradient><linearGradient x1="0.1" y1="0" x2="0" y2="1" id="SvgjsLinearGradient2288"><stop stop-color="#606060" offset="0"></stop><stop stop-color="#606060" offset="0.375"></stop></linearGradient><linearGradient x1="0.1" y1="0" x2="0" y2="1" id="SvgjsLinearGradient2289"><stop stop-color="#808080" offset="0"></stop><stop stop-color="#808080" offset="0.5"></stop></linearGradient><linearGradient x1="0.1" y1="0" x2="0" y2="1" id="SvgjsLinearGradient2290"><stop stop-color="#9f9f9f" offset="0"></stop><stop stop-color="#9f9f9f" offset="0.625"></stop></linearGradient><linearGradient x1="0.1" y1="0" x2="0" y2="1" id="SvgjsLinearGradient2291"><stop stop-color="#bfbfbf" offset="0"></stop><stop stop-color="#bfbfbf" offset="0.75"></stop></linearGradient><linearGradient x1="0.1" y1="0" x2="0" y2="1" id="SvgjsLinearGradient2292"><stop stop-color="#dfdfdf" offset="0"></stop><stop stop-color="#dfdfdf" offset="0.875"></stop></linearGradient></defs></svg>