<svg xmlns="http://www.w3.org/2000/svg" version="1.1" xmlns:xlink="http://www.w3.org/1999/xlink" xmlns:svgjs="http://svgjs.dev/svgjs" viewBox="0 0 1920 1080"><rect width="1920" height="1080" fill="#000000"></rect><g transform="matrix(0.8131727983645296,0.8131727983645295,-0.8131727983645295,0.8131727983645296,611.3137026364693,-648.622338847711)"><path d="M0,-1080C13.402215226913134,-999.2826083028289,93.15400067904693,-770.4351854963408,80.4132913614788,-595.6956498169731C67.67258204391067,-420.95611413760537,-71.61477854334767,-211.504126977466,-76.44425590540875,-31.562785923793662C-81.27373326746984,148.3785551298787,43.27569036115337,293.56005594434737,51.43642718911232,483.95239650506096C59.59716401707127,674.3447370657746,-17.487170340179354,921.3310101798273,-27.479834937655042,1110.7912574404877C-37.47249953513073,1300.251504701148,-13.099532885350992,1445.8457563091042,-8.51956039574182,1620.713880069023C-3.9395879061326466,1795.5820038289417,-1.4199267326236367,2070.118980011504,0,2160L 1920 2160 L 1920 -1080 Z" fill="url(&quot;#SvgjsLinearGradient2397&quot;)"></path><path d="M240,-1080C226.81888858666395,-962.6355725475889,150.83018709959936,-579.5476535682968,160.91333151998367,-375.81343528553396C170.996475940368,-172.0792170027711,296.10262213361244,-74.67384602493797,300.4988665223059,142.40530969657723C304.89511091099934,359.48446541809244,186.93005603145642,693.3217549191653,187.29079785214438,926.6614990435572C187.65153967283234,1160.001243167949,293.878450421791,1336.8873576168548,302.6633174464336,1542.4437744429285C311.4481844710762,1748.0001912690022,250.44388624107228,2057.073962407155,240,2160L 1920 2160 L 1920 -1080 Z" fill="url(&quot;#SvgjsLinearGradient2398&quot;)"></path><path d="M480,-1080C485.54059981202226,-977.9775027565124,525.2608912321306,-692.1399430906154,513.2435988721335,-467.8650165390742C501.2263065121364,-243.59008998753305,421.46395177185866,56.341513649762845,407.8962458400174,265.6495593092467C394.32853990817614,474.9576049687305,413.5656649113384,589.1249108033915,431.837363281086,787.9832574178289C450.10906165083367,986.8416040322663,509.4993299386841,1230.1301818988431,517.5264360585031,1458.7996389958716C525.5535421783221,1687.4690960929001,486.25440600975054,2043.1332731659786,480,2160L 1920 2160 L 1920 -1080 Z" fill="url(&quot;#SvgjsLinearGradient2399&quot;)"></path><path d="M720,-1080C714.8688848999461,-984.7067408895095,694.4407044455718,-700.5794182850707,689.2133093996769,-508.2404453370574C683.9859143537819,-315.9014723890441,687.3400183047422,-87.84595907891193,688.6356297246306,74.03383768807987C689.9312411445189,235.91363445507167,690.9125478752317,302.8570821098866,696.9869779190069,463.0383352648933C703.0614079627821,623.2195884199,716.6414519512099,847.9881426101751,725.0822099872821,1035.1213566181198C733.5229680233543,1222.2545706260644,748.4785611333205,1398.3578454155809,747.6315261354401,1585.837619312561C746.7844911375598,1773.317393209541,724.6052543559067,2064.306269885427,720,2160L 1920 2160 L 1920 -1080 Z" fill="url(&quot;#SvgjsLinearGradient2400&quot;)"></path><path d="M960,-1080C947.7497482982358,-964.235154188788,883.4669089360355,-606.2537391161752,886.4984897894149,-385.41092513272787C889.5300706427943,-164.56811114928047,954.0537439134133,44.30209977553929,978.1894851202767,245.0568839006844C1002.3252263271401,445.8116680258295,1042.0490263134088,596.9888348181217,1031.3129370305953,819.1177796181428C1020.5768477477818,1041.246724418164,925.658438928495,1354.350182637168,913.7729494233957,1577.8305527008108C901.8874599182965,1801.3109227644536,952.2954915705659,2062.9717587834684,960,2160L 1920 2160 L 1920 -1080 Z" fill="url(&quot;#SvgjsLinearGradient2401&quot;)"></path><path d="M1200,-1080C1197.8231841432716,-1017.3440551041965,1198.847719766343,-855.1651229915454,1186.9391048596303,-704.0643306251789C1175.0304899529176,-552.9635382588123,1119.0175942932526,-336.80548082876766,1128.5483105597234,-173.3952458018004C1138.0790268261942,-9.985010774833142,1240.1646709629335,110.54379398820416,1244.1234024584546,276.3970795366247C1248.0821339539757,442.25036508504525,1153.7346559626055,669.5746769289213,1152.3006995328506,821.7244674887228C1150.8667431030956,973.8742580485242,1228.785750302651,1029.205042563739,1235.5196638799252,1189.2958228954335C1242.2535774571995,1349.386603227128,1198.624124976484,1620.485119961462,1192.7041809964965,1782.2691494788899C1186.784237016509,1944.0531789963177,1198.7840301660826,2097.0448582464815,1200,2160L 1920 2160 L 1920 -1080 Z" fill="url(&quot;#SvgjsLinearGradient2402&quot;)"></path><path d="M1440,-1080C1437.4213912658317,-940.3470364992285,1411.1835859789296,-519.4381822916934,1424.5283475949902,-242.08221899537094C1437.8731092110509,35.27374430095145,1518.6550428992166,327.8845799519191,1520.0685696963635,584.1357797779344C1521.4820964935104,840.3869796039498,1446.3542699939326,1032.7809432570434,1433.009508377872,1295.424979960721C1419.6647467618113,1558.0690166643985,1438.8349180629787,2015.9041633267868,1440,2160L 1920 2160 L 1920 -1080 Z" fill="url(&quot;#SvgjsLinearGradient2403&quot;)"></path><path d="M1680,-1080C1689.0370731789446,-972.4008929267986,1742.5300739003856,-643.9761775903136,1734.2224390736674,-434.4053575607916C1725.9148042469492,-224.83453753126958,1648.109852410851,-36.26463730785426,1630.154191039691,177.42492017713204C1612.1985296685311,391.11447766211836,1617.1245219615507,639.3662129137244,1626.4884708467082,847.7319873491263C1635.8524197318657,1056.097761784528,1677.4192961584208,1208.9082313477304,1686.3378843506362,1427.6195667895427C1695.2564725428515,1646.330902231355,1681.0563140584393,2037.9365944649237,1680,2160L 1920 2160 L 1920 -1080 Z" fill="url(&quot;#SvgjsLinearGradient2404&quot;)"></path></g><defs><linearGradient x1="0.1" y1="0" x2="0" y2="1" id="SvgjsLinearGradient2397"><stop stop-color="#000000" offset="0"></stop><stop stop-color="#000000" offset="0"></stop></linearGradient><linearGradient x1="0.1" y1="0" x2="0" y2="1" id="SvgjsLinearGradient2398"><stop stop-color="#202020" offset="0"></stop><stop stop-color="#202020" offset="0.125"></stop></linearGradient><linearGradient x1="0.1" y1="0" x2="0" y2="1" id="SvgjsLinearGradient2399"><stop stop-color="#404040" offset="0"></stop><stop stop-color="#404040" offset="0.25"></stop></linearGradient><linearGradient x1="0.1" y1="0" x2="0" y2="1" id="SvgjsLinearGradient2400"><stop stop-color="#606060" offset="0"></stop><stop stop-color="#606060" offset="0.375"></stop></linearGradient><linearGradient x1="0.1" y1="0" x2="0" y2="1" id="SvgjsLinearGradient2401"><stop stop-color="#808080" offset="0"></stop><stop stop-color="#808080" offset="0.5"></stop></linearGradient><linearGradient x1="0.1" y1="0" x2="0" y2="1" id="SvgjsLinearGradient2402"><stop stop-color="#9f9f9f" offset="0"></stop><stop stop-color="#9f9f9f" offset="0.625"></stop></linearGradient><linearGradient x1="0.1" y1="0" x2="0" y2="1" id="SvgjsLinearGradient2403"><stop stop-color="#bfbfbf" offset="0"></stop><stop stop-color="#bfbfbf" offset="0.75"></stop></linearGradient><linearGradient x1="0.1" y1="0" x2="0" y2="1" id="SvgjsLinearGradient2404"><stop stop-color="#dfdfdf" offset="0"></stop><stop stop-color="#dfdfdf" offset="0.875"></stop></linearGradient></defs></svg>