<svg xmlns="http://www.w3.org/2000/svg" version="1.1" xmlns:xlink="http://www.w3.org/1999/xlink" xmlns:svgjs="http://svgjs.dev/svgjs" viewBox="0 0 1920 1080"><rect width="1920" height="1080" fill="#000000"></rect><g transform="matrix(0.8131727983645296,0.8131727983645295,-0.8131727983645295,0.8131727983645296,612.2618401369689,-652.7491448896917)"><path d="M0,-1080C-0.22435668475481427,-1003.1181212864726,-0.4843285007735313,-768.6128709212098,-1.3461401085288855,-618.7087277188353C-2.20795171628424,-468.80458451646086,3.5957766336621937,-344.6715484771861,-5.170869646532125,-180.5751407857529C-13.937515926726444,-16.478733094319693,-43.791799790059784,201.31437566859498,-53.9460177896948,365.86971842976385C-64.10023578932982,530.4250611909328,-67.6047568933736,669.8410145311198,-66.09617764434223,806.7569157812604C-64.58759839531086,943.6728170314011,-61.315499998642494,1031.484985883069,-44.89454229550653,1187.3651259306082C-28.47358459237057,1343.2452659781475,24.94714485855578,1579.9319437215972,32.429568574473535,1742.0377560664958C39.91199229039129,1904.1435684113944,5.404928095745589,2090.3396260110826,0,2160L 1920 2160 L 1920 -1080 Z" fill="url(&quot;#SvgjsLinearGradient2325&quot;)"></path><path d="M240,-1080C240.4586369410141,-1005.3641144985045,239.65512704450077,-780.5311712557503,242.75182164608455,-632.1846869910272C245.84851624766833,-483.8382027263041,254.8558113190029,-340.3569377525805,258.5801676095027,-189.921094411661C262.30452390000255,-39.48525107074144,260.3729523573115,119.46018264038517,265.0979593890836,270.43037305449013C269.8229664208557,421.4005634685951,285.92728828785414,563.472740790123,286.93020980013534,715.9000480729687C287.93313131241655,868.3273553558145,280.1301654499835,1034.6399468260727,271.115488462771,1184.9942167515642C262.1008114755585,1335.3484866770557,238.0280626206554,1455.5247037511788,232.84214787686022,1618.025667625918C227.65623313306506,1780.5266315006572,238.80702464614336,2069.6709446043196,240,2160L 1920 2160 L 1920 -1080 Z" fill="url(&quot;#SvgjsLinearGradient2326&quot;)"></path><path d="M480,-1080C476.10766184310756,-991.1341220359518,454.7660157773666,-740.5484369331509,456.6459710586454,-546.8047322157107C458.5259263399242,-353.0610274982705,482.4790856350328,-96.30907995379457,491.2797316876728,82.46222830464154C500.08037774031277,261.2335365630777,497.80508754885744,353.21723229993734,509.44984737448544,525.8231173349059C521.0946072001134,698.4290023698744,577.8209616343491,935.8472769336615,561.1482906414407,1118.097538514453C544.4756196485322,1300.3478000952443,422.93853652394137,1445.6742765720633,409.41382141703457,1619.3246868196545C395.8891063101278,1792.9750970672458,468.2356369028391,2069.887447803276,480,2160L 1920 2160 L 1920 -1080 Z" fill="url(&quot;#SvgjsLinearGradient2327&quot;)"></path><path d="M720,-1080C707.413664589157,-976.50615103787,643.3172570631516,-685.3295535323742,644.4819875349417,-459.03690622722036C645.6467180067318,-232.74425892206645,716.8938807809948,44.33729384393618,726.988382830741,277.7558838309235C737.0828848804872,511.1744738179108,713.740864915723,734.0940383127188,705.0489998334192,941.4746336947037C696.3571347511154,1148.8552290766886,672.3453589758211,1318.9518950719505,674.837192336918,1522.0394561228331C677.3290256980148,1725.1270171737158,712.4728653894863,2053.673242687139,720,2160L 1920 2160 L 1920 -1080 Z" fill="url(&quot;#SvgjsLinearGradient2328&quot;)"></path><path d="M960,-1080C955.5759912245815,-952.3817960127543,933.4836546808608,-580.3187254580129,933.4559473474885,-314.29077607652556C933.4282400141162,-48.26282669503826,948.6011528922593,250.21184682348735,959.833755999766,516.1676962889239C971.0663591072728,782.1235457543605,1000.8238586591568,1007.4722700975813,1000.8515659925291,1281.444320716094C1000.8792733259014,1555.4163713346065,966.8085943320882,2013.5740534526824,960,2160L 1920 2160 L 1920 -1080 Z" fill="url(&quot;#SvgjsLinearGradient2329&quot;)"></path><path d="M1200,-1080C1193.7058087923488,-978.3113677565663,1157.2679582893102,-653.3869935553022,1162.2348527540933,-469.86820653939753C1167.2017472188763,-286.3494195234929,1210.466730586967,-142.7828741557904,1229.8013667886978,21.112722095428182C1249.1360029904286,185.00831834664677,1295.3139308930922,347.51076779304776,1278.242669964478,513.505370967914C1261.1714090358637,679.4999741427803,1138.4886858794043,839.6401761722815,1127.373801217012,1017.0803411446254C1116.2589165546196,1194.5205061169693,1199.448995526293,1387.6597509927485,1211.5533619901244,1578.1463608019776C1223.6577284539558,1768.6329706112067,1201.9255603316874,2063.024393466996,1200,2160L 1920 2160 L 1920 -1080 Z" fill="url(&quot;#SvgjsLinearGradient2330&quot;)"></path><path d="M1440,-1080C1443.7141368032767,-1016.8170659074829,1471.8247895841264,-850.5997050966439,1462.2848208196601,-700.9023954448971C1452.7448520551939,-551.2050857931504,1387.5681381348413,-344.81315898562923,1382.7601874132017,-181.81614208951953C1377.9522366915621,-18.819125193409832,1434.9630109724126,112.10165469688766,1433.4371164898232,277.07970593176105C1431.9112220072338,442.0577571666345,1362.6743528603106,662.1515847718239,1373.6048205176662,808.0521653197209C1384.5352881750218,953.9527458676179,1488.8757324694288,1018.6051536053116,1499.0199224339576,1152.483189219143C1509.1641123984864,1286.3612248329746,1444.3066140438316,1443.4009105392333,1434.4699603048387,1611.3203790027096C1424.6333065658457,1779.239847466186,1439.0783267174731,2068.5533965004515,1440,2160L 1920 2160 L 1920 -1080 Z" fill="url(&quot;#SvgjsLinearGradient2331&quot;)"></path><path d="M1680,-1080C1688.9500028383482,-975.9806759480549,1728.5865535934208,-640.2025371603452,1733.7000170300894,-455.88405568832957C1738.813480466758,-271.56557421631396,1725.222817321044,-140.1997406478583,1710.6807806200106,25.91088883209332C1696.1387439189773,192.02151831204495,1648.733245892893,362.47570003844464,1646.4477968238893,540.7797211913802C1644.1623477548858,719.0837423443157,1696.9179153106268,921.4481592313716,1696.9680862059893,1095.7350157497065C1697.0182571013518,1270.0218722680413,1649.576836563729,1409.1233629263404,1646.748822196064,1586.5008603013894C1643.9208078283991,1763.8783576764383,1674.4581370326773,2064.4168100502316,1680,2160L 1920 2160 L 1920 -1080 Z" fill="url(&quot;#SvgjsLinearGradient2332&quot;)"></path></g><defs><linearGradient x1="0.1" y1="0" x2="0" y2="1" id="SvgjsLinearGradient2325"><stop stop-color="#000000" offset="0"></stop><stop stop-color="#000000" offset="0"></stop></linearGradient><linearGradient x1="0.1" y1="0" x2="0" y2="1" id="SvgjsLinearGradient2326"><stop stop-color="#202020" offset="0"></stop><stop stop-color="#202020" offset="0.125"></stop></linearGradient><linearGradient x1="0.1" y1="0" x2="0" y2="1" id="SvgjsLinearGradient2327"><stop stop-color="#404040" offset="0"></stop><stop stop-color="#404040" offset="0.25"></stop></linearGradient><linearGradient x1="0.1" y1="0" x2="0" y2="1" id="SvgjsLinearGradient2328"><stop stop-color="#606060" offset="0"></stop><stop stop-color="#606060" offset="0.375"></stop></linearGradient><linearGradient x1="0.1" y1="0" x2="0" y2="1" id="SvgjsLinearGradient2329"><stop stop-color="#808080" offset="0"></stop><stop stop-color="#808080" offset="0.5"></stop></linearGradient><linearGradient x1="0.1" y1="0" x2="0" y2="1" id="SvgjsLinearGradient2330"><stop stop-color="#9f9f9f" offset="0"></stop><stop stop-color="#9f9f9f" offset="0.625"></stop></linearGradient><linearGradient x1="0.1" y1="0" x2="0" y2="1" id="SvgjsLinearGradient2331"><stop stop-color="#bfbfbf" offset="0"></stop><stop stop-color="#bfbfbf" offset="0.75"></stop></linearGradient><linearGradient x1="0.1" y1="0" x2="0" y2="1" id="SvgjsLinearGradient2332"><stop stop-color="#dfdfdf" offset="0"></stop><stop stop-color="#dfdfdf" offset="0.875"></stop></linearGradient></defs></svg>