<svg xmlns="http://www.w3.org/2000/svg" version="1.1" xmlns:xlink="http://www.w3.org/1999/xlink" xmlns:svgjs="http://svgjs.dev/svgjs" viewBox="0 0 1920 1080"><rect width="1920" height="1080" fill="#000000"></rect><g transform="matrix(0.8131727983645296,0.8131727983645295,-0.8131727983645295,0.8131727983645296,610.7906970812562,-646.3459364439395)"><path d="M0,-1080C-13.634083178855041,-970.9229170685616,-77.10488381691991,-647.984380166605,-81.80449907313024,-425.53750241136925C-86.50411432934058,-203.0906246561335,-45.87082518576595,38.804508568625494,-28.197691537261974,254.68126653141442C-10.524557888757993,470.5580244942033,22.58586088495273,652.3272979602633,24.23430281789365,869.7230453653643C25.88274475083457,1087.1187927704655,-14.267989469967517,1344.0095918562479,-18.30703993961646,1559.0557509620205C-22.3460904092654,1774.1019100677931,-3.05117332326941,2059.842625160337,0,2160L 1920 2160 L 1920 -1080 Z" fill="url(&quot;#SvgjsLinearGradient2317&quot;)"></path><path d="M240,-1080C238.09972936885083,-1011.9096804255876,223.57410282274003,-813.9234388081991,228.59837621310493,-671.4580825535255C233.62264960346982,-528.992726298852,270.8756381841512,-395.5738341945,270.1456403421894,-225.20786247195832C269.41564250022753,-54.84189074941665,226.41246203671574,184.5204068170237,224.21838916133373,350.73774778172447C222.02431628595173,516.9550887464252,253.06690385274018,614.0533751327537,256.98120308989735,772.0961833162462C260.8955023270545,930.1389914997387,249.79316263227395,1142.0544215213226,247.70418458427667,1298.9945968826798C245.6152065362794,1455.934772244037,245.7313655659598,1570.2363349648367,244.44733480191368,1713.73723548439C243.16330403786756,1857.2381360039435,240.74122246698562,2085.622872580732,240,2160L 1920 2160 L 1920 -1080 Z" fill="url(&quot;#SvgjsLinearGradient2318&quot;)"></path><path d="M480,-1080C476.37528814063313,-980.640690987336,460.7858794380453,-665.1440439609368,458.25172884379884,-483.84414592401595C455.7175782495524,-302.54424788709514,454.5364315491572,-162.6598258455313,464.7950964345211,7.799388221524737C475.053761319885,178.25860228858076,525.0142873552467,370.37211499012784,519.8037181559822,538.9111384783201C514.5931489567178,707.4501619665125,453.74307987572865,848.0113915456517,433.53168123893465,1019.0335291506785C413.32028260214065,1190.0556667557053,390.7906065417071,1374.882885633594,398.53532633521803,1565.0439641084808C406.28004612872894,1755.2050425833677,466.422554389203,2060.8406606847466,480,2160L 1920 2160 L 1920 -1080 Z" fill="url(&quot;#SvgjsLinearGradient2319&quot;)"></path><path d="M720,-1080C716.4801105777451,-1012.3695715358479,703.2315083056027,-837.1858028070684,698.8806634664703,-674.2174292150872C694.5298186273379,-511.2490556231061,690.7046831863432,-274.89283751974153,693.8949309652057,-102.18975844811314C697.0851787440682,70.51332062351526,724.4204938435378,205.6367362250523,718.0221501396451,362.0010452146832C711.6238064357524,518.3653542043141,651.8866019907474,696.5074683727007,655.5048687418496,835.9960954896723C659.1231354929517,975.4847226066438,735.3950733245604,1055.860541820776,739.7317506462581,1198.9328079165123C744.0684279679558,1342.0050740122485,684.8135577797457,1534.2518267168418,681.524932672036,1694.4296920640897C678.2363075643264,1854.6075574113377,713.5874887786727,2082.4049486773483,720,2160L 1920 2160 L 1920 -1080 Z" fill="url(&quot;#SvgjsLinearGradient2320&quot;)"></path><path d="M960,-1080C961.0405317736684,-999.6885560537849,975.7518963840783,-731.1139838556011,966.24319064201,-598.1313363227093C956.7344848999415,-465.1486887898176,915.9744024655232,-410.6560803350609,902.9477655475898,-282.10411480264924C889.9211286296564,-153.55214927023758,880.3674948597716,37.27369614351025,888.0833691344096,173.1804568717606C895.7992434090477,309.08721760001094,935.3356045355149,408.62527067061774,949.2430111954179,533.336449566853C963.1504178553209,658.0476284630884,983.6289776363753,788.8155889230738,971.5278090938281,921.4475302491724C959.4266405512808,1054.0794715752709,870.0502155868174,1193.2264430231046,876.6359999401345,1329.1280975234442C883.2217842934516,1465.0297520237839,997.1485152037527,1598.378806838451,1011.0425152137303,1736.8574572512102C1024.9365152237078,1875.3361076639694,968.5070858689551,2089.476242875202,960,2160L 1920 2160 L 1920 -1080 Z" fill="url(&quot;#SvgjsLinearGradient2321&quot;)"></path><path d="M1200,-1080C1201.3447989070173,-989.1845283010413,1202.4781839342231,-727.1131966330543,1208.0687934421042,-535.1071698062478C1213.6594029499852,-343.1011429794414,1247.459409016085,-120.95723890634227,1233.5436570472864,72.03616096083874C1219.6279050784879,265.0295608280197,1131.6263037749964,453.6575159067146,1124.5742816293134,622.8532293968384C1117.5222594836305,792.0489428869622,1186.9355943041794,918.1358015616746,1191.231524173188,1087.2104419015814C1195.5274540421967,1256.2850822414882,1148.8884482055635,1458.5028117532092,1150.3498608433654,1637.301071436279C1151.8112734811673,1816.0993311193488,1191.7249768072274,2072.8835119060464,1200,2160L 1920 2160 L 1920 -1080 Z" fill="url(&quot;#SvgjsLinearGradient2322&quot;)"></path><path d="M1440,-1080C1445.677802481723,-998.7641163528359,1478.4481473090311,-729.7004093946825,1474.0668148903374,-592.5846981170157C1469.6854824716436,-455.46898683934893,1405.2306531522177,-371.66234418930765,1413.712005487837,-257.30573233399934C1422.1933578234562,-142.94912047869104,1518.563162441044,-47.68991639749407,1524.954928904053,93.5549730148341C1531.3466953670622,234.79986242716228,1455.9353743714328,455.2001913425422,1452.0626042658917,590.1636041399697C1448.1898341603505,725.1270169373972,1512.2191649328056,778.7167839102245,1501.718308270807,903.3354497993989C1491.2174516088085,1027.9541156885734,1388.5508670433937,1204.417426250166,1389.0574642939007,1337.8755994750163C1389.5640615444077,1471.3337726998666,1496.2674691561651,1567.0637557276707,1504.7578917738483,1704.0844891485012C1513.2483143915315,1841.1052225693318,1450.792981962308,2084.01408152475,1440,2160L 1920 2160 L 1920 -1080 Z" fill="url(&quot;#SvgjsLinearGradient2323&quot;)"></path><path d="M1680,-1080C1690.0543462129178,-971.6973544175576,1747.9452019216833,-634.1976678493812,1740.3260772775072,-430.18412650534526C1732.7069526333312,-226.17058516130928,1656.0572786218895,-78.24028404162013,1634.285252134944,144.08124806421597C1612.5132256479983,366.4027801700521,1592.5601640290492,687.7509761598461,1609.693918355834,903.7450661296714C1626.8276726826189,1119.7391560994965,1725.3700978216252,1230.669965571446,1737.087778095653,1440.0457878831676C1748.8054583696808,1649.4216101948891,1689.5146296826088,2040.0076313138613,1680,2160L 1920 2160 L 1920 -1080 Z" fill="url(&quot;#SvgjsLinearGradient2324&quot;)"></path></g><defs><linearGradient x1="0.1" y1="0" x2="0" y2="1" id="SvgjsLinearGradient2317"><stop stop-color="#000000" offset="0"></stop><stop stop-color="#000000" offset="0"></stop></linearGradient><linearGradient x1="0.1" y1="0" x2="0" y2="1" id="SvgjsLinearGradient2318"><stop stop-color="#202020" offset="0"></stop><stop stop-color="#202020" offset="0.125"></stop></linearGradient><linearGradient x1="0.1" y1="0" x2="0" y2="1" id="SvgjsLinearGradient2319"><stop stop-color="#404040" offset="0"></stop><stop stop-color="#404040" offset="0.25"></stop></linearGradient><linearGradient x1="0.1" y1="0" x2="0" y2="1" id="SvgjsLinearGradient2320"><stop stop-color="#606060" offset="0"></stop><stop stop-color="#606060" offset="0.375"></stop></linearGradient><linearGradient x1="0.1" y1="0" x2="0" y2="1" id="SvgjsLinearGradient2321"><stop stop-color="#808080" offset="0"></stop><stop stop-color="#808080" offset="0.5"></stop></linearGradient><linearGradient x1="0.1" y1="0" x2="0" y2="1" id="SvgjsLinearGradient2322"><stop stop-color="#9f9f9f" offset="0"></stop><stop stop-color="#9f9f9f" offset="0.625"></stop></linearGradient><linearGradient x1="0.1" y1="0" x2="0" y2="1" id="SvgjsLinearGradient2323"><stop stop-color="#bfbfbf" offset="0"></stop><stop stop-color="#bfbfbf" offset="0.75"></stop></linearGradient><linearGradient x1="0.1" y1="0" x2="0" y2="1" id="SvgjsLinearGradient2324"><stop stop-color="#dfdfdf" offset="0"></stop><stop stop-color="#dfdfdf" offset="0.875"></stop></linearGradient></defs></svg>