<svg xmlns="http://www.w3.org/2000/svg" version="1.1" xmlns:xlink="http://www.w3.org/1999/xlink" xmlns:svgjs="http://svgjs.dev/svgjs" viewBox="0 0 1920 1080"><rect width="1920" height="1080" fill="#000000"></rect><g transform="matrix(0.8131727983645296,0.8131727983645295,-0.8131727983645295,0.8131727983645296,611.7249970079529,-650.412513897614)"><path d="M0,-1080C4.717859914557965,-975.5428254719013,15.220234333502015,-657.0744459436376,28.30715948734779,-453.256952831408C41.394084641193565,-249.4394597191784,95.07319063466403,-69.10917408760176,78.52155092307464,142.90495867337768C61.969911211485254,354.91909143435714,-59.30356387857392,594.8704771468364,-71.00267878218857,818.8278437344685C-82.70179368580322,1042.7852103221007,-3.506918295644697,1263.1204654882486,8.32686150138673,1486.6491581991704C20.160641298418156,1710.1778509100923,1.3878102502311218,2047.7748596998617,0,2160L 1920 2160 L 1920 -1080 Z" fill="url(&quot;#SvgjsLinearGradient2389&quot;)"></path><path d="M240,-1080C228.32873116851928,-989.7187493888266,163.73853035647124,-705.0212191383681,169.97238701111564,-538.3124963329599C176.20624366576004,-371.60377352755165,267.21400858608524,-267.55098218435046,277.4031399278664,-79.74766316755046C287.59227126964754,108.05565584924952,222.99902478243405,403.889631085009,231.10717506180242,588.50741776784C239.2153253411708,773.125204450671,326.3530888671186,865.7629365003199,326.05204160407663,1027.959056929436C325.7509943410347,1190.155177358552,243.64289841756363,1373.0106498307755,229.30089148355086,1561.6841403425362C214.95888454953808,1750.357630854297,238.21681524725847,2060.2806900570895,240,2160L 1920 2160 L 1920 -1080 Z" fill="url(&quot;#SvgjsLinearGradient2390&quot;)"></path><path d="M480,-1080C466.7401597524104,-1007.6268032602285,413.9776216129737,-783.9818800723991,400.4409585144624,-645.7608195613707C386.90429541595114,-507.53975905034224,391.8338058725481,-383.29061332472133,398.7800214089325,-250.67363693382964C405.7262369453169,-118.05666054293795,414.3818840430931,22.93242717941304,442.1182517327688,149.94103878397945C469.85461942244444,276.9496503885459,572.7982456988584,378.69959131907575,565.1982275469865,511.3780326935688C557.5982093951145,644.0564740680618,416.74642374873105,802.9288032984297,396.5181428215374,946.0116870309378C376.2898618943438,1089.094570763446,443.4257112698725,1235.136041929993,443.8285419838246,1369.8753350886175C444.2313726977767,1504.6146282472419,392.9065507692206,1622.7600018307867,398.9351271052498,1754.4474459826838C404.96370344127905,1886.134890134581,466.48918785087494,2092.407907663781,480,2160L 1920 2160 L 1920 -1080 Z" fill="url(&quot;#SvgjsLinearGradient2391&quot;)"></path><path d="M720,-1080C719.3688678710105,-935.2047154516146,707.9687313732677,-469.3429124746242,716.2132072260632,-211.2282927096873C724.4576830788587,46.88632705524958,782.8372688716822,220.7914955473387,769.466855116773,468.6877185896212C756.0964413618638,716.5839416319037,644.2352005494031,994.2636653089446,635.9907246966076,1276.1490455440078C627.746248843812,1558.034425779071,705.9984541161012,2012.691507590668,720,2160L 1920 2160 L 1920 -1080 Z" fill="url(&quot;#SvgjsLinearGradient2392&quot;)"></path><path d="M960,-1080C972.9711342409374,-996.5009151765171,1048.7971792468786,-768.5115176531182,1037.8268054456248,-579.0054910591027C1026.856431644371,-389.49946446508727,894.4833264843612,-131.24491119296053,894.1777571924771,57.03615956409254C893.872187900593,245.31723032114562,1011.0699286615785,366.7917122691158,1035.99338969432,550.6809334832157C1060.9168507270615,734.5701546973155,1044.2012330521552,979.0819305785989,1043.7185233889263,1160.3714868486918C1043.2358137256974,1341.6610431187846,1047.0502189464344,1471.8135189118884,1033.0971317149467,1638.4182711037731C1019.144044483459,1805.0230232956578,972.1828552858244,2073.0697118506287,960,2160L 1920 2160 L 1920 -1080 Z" fill="url(&quot;#SvgjsLinearGradient2393&quot;)"></path><path d="M1200,-1080C1211.6711876700733,-966.9397204926822,1267.2426250005374,-620.5778197063269,1270.0271260204406,-401.6383229560935C1272.8116270403439,-182.69882620586006,1233.7314504106919,34.19701277399756,1216.707006119419,233.63698050140044C1199.6825618281462,433.0769482288033,1162.7622702469303,582.2824434835,1167.880460272804,795.0014834083239C1172.9986502986776,1007.7205233331479,1242.0628896534618,1282.4514672850648,1247.416146274661,1509.951220050344C1252.7694028958604,1737.4509728156233,1207.902691045777,2051.6585366750573,1200,2160L 1920 2160 L 1920 -1080 Z" fill="url(&quot;#SvgjsLinearGradient2394&quot;)"></path><path d="M1440,-1080C1433.6227530531417,-981.7400900421311,1413.2446678431832,-714.971965067484,1401.7365183188501,-490.4405402527865C1390.228368794517,-265.909115438089,1364.989056752178,49.23079625450393,1370.9511028540016,267.18854888818504C1376.9131489558254,485.1463015218661,1431.0670100047487,623.546624682014,1437.5087949297929,817.3059755493001C1443.950579854837,1011.0653264165862,1409.1866115592316,1205.962316683452,1409.6018124042662,1429.744654091902C1410.0170132493008,1653.526991500352,1434.933635400711,2038.2907756819836,1440,2160L 1920 2160 L 1920 -1080 Z" fill="url(&quot;#SvgjsLinearGradient2395&quot;)"></path><path d="M1680,-1080C1669.8470259771175,-1003.870739644981,1622.4227087575355,-813.9459636990139,1619.0821558627053,-623.2244378698861C1615.7416029678752,-432.50291204075825,1635.5836018447926,-139.17852044141742,1659.9566826310195,64.32915497476696C1684.3297634172463,267.8368303909514,1754.883418947535,426.17605399316585,1765.3206405800672,597.8216146272202C1775.7578622125995,769.4671752612746,1749.8209209966626,926.1224488906458,1722.5800124262134,1094.2025187790935C1695.3391038557643,1262.2825886675412,1608.9718578950738,1428.6691204210883,1601.8751891573716,1606.3020339579061C1594.7785204196693,1783.934947494724,1666.9791981928952,2067.717005659651,1680,2160L 1920 2160 L 1920 -1080 Z" fill="url(&quot;#SvgjsLinearGradient2396&quot;)"></path></g><defs><linearGradient x1="0.1" y1="0" x2="0" y2="1" id="SvgjsLinearGradient2389"><stop stop-color="#000000" offset="0"></stop><stop stop-color="#000000" offset="0"></stop></linearGradient><linearGradient x1="0.1" y1="0" x2="0" y2="1" id="SvgjsLinearGradient2390"><stop stop-color="#202020" offset="0"></stop><stop stop-color="#202020" offset="0.125"></stop></linearGradient><linearGradient x1="0.1" y1="0" x2="0" y2="1" id="SvgjsLinearGradient2391"><stop stop-color="#404040" offset="0"></stop><stop stop-color="#404040" offset="0.25"></stop></linearGradient><linearGradient x1="0.1" y1="0" x2="0" y2="1" id="SvgjsLinearGradient2392"><stop stop-color="#606060" offset="0"></stop><stop stop-color="#606060" offset="0.375"></stop></linearGradient><linearGradient x1="0.1" y1="0" x2="0" y2="1" id="SvgjsLinearGradient2393"><stop stop-color="#808080" offset="0"></stop><stop stop-color="#808080" offset="0.5"></stop></linearGradient><linearGradient x1="0.1" y1="0" x2="0" y2="1" id="SvgjsLinearGradient2394"><stop stop-color="#9f9f9f" offset="0"></stop><stop stop-color="#9f9f9f" offset="0.625"></stop></linearGradient><linearGradient x1="0.1" y1="0" x2="0" y2="1" id="SvgjsLinearGradient2395"><stop stop-color="#bfbfbf" offset="0"></stop><stop stop-color="#bfbfbf" offset="0.75"></stop></linearGradient><linearGradient x1="0.1" y1="0" x2="0" y2="1" id="SvgjsLinearGradient2396"><stop stop-color="#dfdfdf" offset="0"></stop><stop stop-color="#dfdfdf" offset="0.875"></stop></linearGradient></defs></svg>