<svg width="64" height="64" viewBox="0 0 64 64" fill="none" xmlns="http://www.w3.org/2000/svg">
<circle cx="32" cy="32" r="32" fill="black"/>
<rect x="17.1345" y="39.75" width="31.7308" height="8.25" rx="2" fill="#F2E1A3"/>
<rect x="50.7693" y="42.2885" width="2.53846" height="4.44231" rx="1.26923" fill="#F2E1A3"/>
<rect x="17.7693" y="45.4615" width="1.90385" height="1.26923" fill="#5A5A5A"/>
<rect x="17.7693" y="45.4615" width="1.90385" height="1.26923" fill="#5A5A5A"/>
<rect x="17.7693" y="43.5577" width="1.90385" height="1.26923" fill="#5A5A5A"/>
<rect x="17.7693" y="43.5577" width="1.90385" height="1.26923" fill="#5A5A5A"/>
<rect x="17.7693" y="41.6538" width="1.90385" height="1.26923" fill="#5A5A5A"/>
<rect x="17.7693" y="41.6538" width="1.90385" height="1.26923" fill="#5A5A5A"/>
<rect x="20.3076" y="41.6538" width="1.90385" height="1.26923" fill="#5A5A5A"/>
<rect x="20.3076" y="41.6538" width="1.90385" height="1.26923" fill="#5A5A5A"/>
<rect x="20.3076" y="43.5577" width="1.90385" height="1.26923" fill="#5A5A5A"/>
<rect x="20.3076" y="43.5577" width="1.90385" height="1.26923" fill="#5A5A5A"/>
<rect x="20.3076" y="45.4615" width="1.90385" height="1.26923" fill="#5A5A5A"/>
<rect x="20.3076" y="45.4615" width="1.90385" height="1.26923" fill="#5A5A5A"/>
<rect x="22.8462" y="45.4615" width="1.90385" height="1.26923" fill="#5A5A5A"/>
<rect x="22.8462" y="45.4615" width="1.90385" height="1.26923" fill="#5A5A5A"/>
<rect x="22.8462" y="43.5577" width="1.90385" height="1.26923" fill="#5A5A5A"/>
<rect x="22.8462" y="43.5577" width="1.90385" height="1.26923" fill="#5A5A5A"/>
<rect x="22.8462" y="41.6538" width="1.90385" height="1.26923" fill="#5A5A5A"/>
<rect x="22.8462" y="41.6538" width="1.90385" height="1.26923" fill="#5A5A5A"/>
<rect x="25.3845" y="41.6538" width="1.90385" height="1.26923" fill="#5A5A5A"/>
<rect x="25.3845" y="41.6538" width="1.90385" height="1.26923" fill="#5A5A5A"/>
<rect x="25.3845" y="43.5577" width="1.90385" height="1.26923" fill="#5A5A5A"/>
<rect x="25.3845" y="43.5577" width="1.90385" height="1.26923" fill="#5A5A5A"/>
<rect x="25.3845" y="45.4615" width="1.90385" height="1.26923" fill="#5A5A5A"/>
<rect x="25.3845" y="45.4615" width="1.90385" height="1.26923" fill="#5A5A5A"/>
<rect x="27.9231" y="45.4615" width="1.90385" height="1.26923" fill="#5A5A5A"/>
<rect x="27.9231" y="45.4615" width="1.90385" height="1.26923" fill="#5A5A5A"/>
<rect x="27.9231" y="43.5577" width="1.90385" height="1.26923" fill="#5A5A5A"/>
<rect x="27.9231" y="43.5577" width="1.90385" height="1.26923" fill="#5A5A5A"/>
<rect x="27.9231" y="41.6538" width="1.90385" height="1.26923" fill="#5A5A5A"/>
<rect x="27.9231" y="41.6538" width="1.90385" height="1.26923" fill="#5A5A5A"/>
<rect x="30.4614" y="41.6538" width="1.90385" height="1.26923" fill="#5A5A5A"/>
<rect x="30.4614" y="41.6538" width="1.90385" height="1.26923" fill="#5A5A5A"/>
<rect x="30.4614" y="43.5577" width="1.90385" height="1.26923" fill="#5A5A5A"/>
<rect x="30.4614" y="43.5577" width="1.90385" height="1.26923" fill="#5A5A5A"/>
<rect x="30.4614" y="45.4615" width="1.90385" height="1.26923" fill="#5A5A5A"/>
<rect x="30.4614" y="45.4615" width="1.90385" height="1.26923" fill="#5A5A5A"/>
<rect x="33" y="45.4615" width="1.90385" height="1.26923" fill="#5A5A5A"/>
<rect x="33" y="45.4615" width="1.90385" height="1.26923" fill="#5A5A5A"/>
<rect x="33" y="43.5577" width="1.90385" height="1.26923" fill="#5A5A5A"/>
<rect x="33" y="43.5577" width="1.90385" height="1.26923" fill="#5A5A5A"/>
<rect x="33" y="41.6538" width="1.90385" height="1.26923" fill="#5A5A5A"/>
<rect x="33" y="41.6538" width="1.90385" height="1.26923" fill="#5A5A5A"/>
<rect x="35.5386" y="41.6538" width="1.90385" height="1.26923" fill="#5A5A5A"/>
<rect x="35.5386" y="41.6538" width="1.90385" height="1.26923" fill="#5A5A5A"/>
<rect x="35.5386" y="43.5577" width="1.90385" height="1.26923" fill="#5A5A5A"/>
<rect x="35.5386" y="43.5577" width="1.90385" height="1.26923" fill="#5A5A5A"/>
<rect x="38.0769" y="42.9231" width="1.90385" height="3.17308" fill="#5A5A5A"/>
<rect x="38.0769" y="42.9231" width="1.90385" height="3.17308" fill="#5A5A5A"/>
<rect x="35.5386" y="45.4615" width="1.90385" height="1.26923" fill="#5A5A5A"/>
<rect x="35.5386" y="45.4615" width="1.90385" height="1.26923" fill="#5A5A5A"/>
<rect x="41.25" y="45.4615" width="1.90385" height="1.26923" fill="#5A5A5A"/>
<rect x="41.25" y="45.4615" width="1.90385" height="1.26923" fill="#5A5A5A"/>
<path d="M50.7693 43.5577C50.7693 42.8567 51.3375 42.2885 52.0385 42.2885V43.5577H50.7693Z" fill="#5A5A5A"/>
<path d="M50.7693 43.5577C50.7693 42.8567 51.3375 42.2885 52.0385 42.2885V43.5577H50.7693Z" fill="#5A5A5A"/>
<path d="M53.3076 43.5577C53.3076 42.8567 52.7394 42.2885 52.0384 42.2885V43.5577H53.3076Z" fill="#5A5A5A"/>
<path d="M53.3076 43.5577C53.3076 42.8567 52.7394 42.2885 52.0384 42.2885V43.5577H53.3076Z" fill="#747474"/>
<rect x="43.7886" y="43.5577" width="1.90385" height="1.26923" fill="#5A5A5A"/>
<rect x="43.7886" y="43.5577" width="1.90385" height="1.26923" fill="#5A5A5A"/>
<rect x="43.7886" y="45.4615" width="1.90385" height="1.26923" fill="#5A5A5A"/>
<rect x="43.7886" y="45.4615" width="1.90385" height="1.26923" fill="#5A5A5A"/>
<rect x="46.3269" y="45.4615" width="1.90385" height="1.26923" fill="#5A5A5A"/>
<rect x="46.3269" y="45.4615" width="1.90385" height="1.26923" fill="#5A5A5A"/>
<rect x="20.3076" y="15" width="27.9231" height="17.7692" rx="5" fill="#CDC094"/>
<rect x="19.0386" y="17.5385" width="30.4615" height="20.3077" rx="5" fill="#F2E1A3"/>
<path d="M11 20C11 18.3431 12.3431 17 14 17C15.6569 17 17 18.3431 17 20V37H11V20Z" fill="#BCAA68"/>
<path d="M10 22C10 19.7909 11.7909 18 14 18C16.2091 18 18 19.7909 18 22V38H10V22Z" fill="#F2E1A3"/>
<path d="M11.4231 19.7596C11.4231 19.5844 11.5652 19.4423 11.7404 19.4423C11.9156 19.4423 12.0577 19.5844 12.0577 19.7596V32.4519C12.0577 32.6272 11.9156 32.7692 11.7404 32.7692C11.5652 32.7692 11.4231 32.6272 11.4231 32.4519V19.7596Z" fill="#BCAA68"/>
<path d="M12.6924 19.7596C12.6924 19.5844 12.8344 19.4423 13.0097 19.4423C13.1849 19.4423 13.327 19.5844 13.327 19.7596V32.4519C13.327 32.6272 13.1849 32.7692 13.0097 32.7692C12.8344 32.7692 12.6924 32.6272 12.6924 32.4519V19.7596Z" fill="#BCAA68"/>
<path d="M14.5962 19.7596C14.5962 19.5844 14.7383 19.4423 14.9135 19.4423C15.0887 19.4423 15.2308 19.5844 15.2308 19.7596V32.4519C15.2308 32.6272 15.0887 32.7692 14.9135 32.7692C14.7383 32.7692 14.5962 32.6272 14.5962 32.4519V19.7596Z" fill="#BCAA68"/>
<path d="M15.8655 34.3558C15.8655 34.1805 16.0075 34.0385 16.1828 34.0385C16.358 34.0385 16.5001 34.1805 16.5001 34.3558C16.5001 34.531 16.358 34.6731 16.1828 34.6731C16.0075 34.6731 15.8655 34.531 15.8655 34.3558Z" fill="#CC3809"/>
<path d="M15.2307 34.3558C15.2307 34.1805 15.3728 34.0385 15.548 34.0385C15.7233 34.0385 15.8653 34.1805 15.8653 34.3558C15.8653 34.531 15.7233 34.6731 15.548 34.6731C15.3728 34.6731 15.2307 34.531 15.2307 34.3558Z" fill="#86D900"/>
<path d="M15.8655 19.7596C15.8655 19.5844 16.0075 19.4423 16.1828 19.4423C16.358 19.4423 16.5001 19.5844 16.5001 19.7596V32.4519C16.5001 32.6272 16.358 32.7692 16.1828 32.7692C16.0075 32.7692 15.8655 32.6272 15.8655 32.4519V19.7596Z" fill="#BCAA68"/>
<rect x="20.3076" y="18.8077" width="27.9231" height="17.7692" rx="5" fill="#647751"/>
</svg>
