<svg width="66" height="67" viewBox="0 0 66 67" fill="none" xmlns="http://www.w3.org/2000/svg">
<circle cx="32" cy="34.6903" r="32" fill="black"/>
<rect x="9.99976" y="26.9077" width="44" height="28" rx="3" fill="#383838"/>
<path d="M53.2755 27.7192C53.4172 27.8136 53.4711 27.8779 53.4908 27.9077C53.4711 27.9375 53.4172 28.0018 53.2755 28.0962C53.0386 28.2541 52.6568 28.4257 52.1175 28.5996C51.0457 28.9451 49.4685 29.2636 47.4885 29.5336C43.5359 30.0726 38.0596 30.4077 31.9998 30.4077C25.9399 30.4077 20.4636 30.0726 16.511 29.5336C14.531 29.2636 12.9539 28.9451 11.882 28.5996C11.3427 28.4257 10.9609 28.2541 10.724 28.0962C10.5823 28.0018 10.5284 27.9375 10.5087 27.9077C10.5284 27.8779 10.5823 27.8136 10.724 27.7192C10.9609 27.5613 11.3427 27.3897 11.882 27.2158C12.9539 26.8703 14.531 26.5518 16.511 26.2818C20.4636 25.7428 25.9399 25.4077 31.9998 25.4077C38.0596 25.4077 43.5359 25.7428 47.4885 26.2818C49.4685 26.5518 51.0457 26.8703 52.1175 27.2158C52.6568 27.3897 53.0386 27.5613 53.2755 27.7192Z" fill="#AB3C24" stroke="#7B7B7B"/>
<ellipse cx="41.2706" cy="15.8055" rx="1" ry="8.90086" transform="rotate(15 41.2706 15.8055)" fill="#DC9049"/>
<ellipse cx="39.2256" cy="23.4372" rx="2" ry="5" transform="rotate(15 39.2256 23.4372)" fill="#DC9049"/>
<ellipse cx="39.2258" cy="23.4372" rx="1" ry="4" transform="rotate(15 39.2258 23.4372)" fill="#A5784E"/>
<path d="M17.9998 28.4077L20.4998 27.9077L22.9998 28.4077H24.9998L26.9998 28.9077L29.4998 28.4077" stroke="#D38181"/>
<path d="M26.5 10.9077L27 13.4077L26.5 15.9077L26.5 17.9077L26 19.9077L26.5 22.4077" stroke="white"/>
<path d="M31.5 14.9077L32 17.4077L31.5 19.9077L31.5 21.9077L31 23.9077L31.5 26.4077" stroke="white"/>
<path d="M29.5 7.90771L30 10.4077L29.5 12.9077L29.5 14.9077L29 16.9077L29.5 19.4077" stroke="white"/>
<path d="M29.102 26.6313L30.4913 26.4859L31.6218 27.3064L32.6298 27.5765L33.5083 28.3295L34.8976 28.1842" stroke="#539149"/>
<path d="M40.1292 28.9436L41.2597 28.123L42.649 28.2684L43.6569 27.9983L44.7942 28.2112L45.9247 27.3907" stroke="#6A2256"/>
<rect x="53.553" y="30.9077" width="3" height="6" rx="1.5" transform="rotate(15 53.553 30.9077)" fill="#7B7B7B"/>
<rect x="7" y="31.6842" width="3" height="6" rx="1.5" transform="rotate(-15 7 31.6842)" fill="#7B7B7B"/>
</svg>
