<svg xmlns="http://www.w3.org/2000/svg" version="1.1" xmlns:xlink="http://www.w3.org/1999/xlink" xmlns:svgjs="http://svgjs.dev/svgjs" viewBox="0 0 1920 1080"><rect width="1920" height="1080" fill="#000000"></rect><g transform="matrix(0.8131727983645296,0.8131727983645295,-0.8131727983645295,0.8131727983645296,614.0489190344792,-660.5274766061953)"><path d="M0,-1080C0.391454079839247,-984.733082260479,10.110448765989911,-720.5574464491506,2.348724479035482,-508.3984935628739C-5.412999807918946,-296.23954067659724,-41.71199065159281,-35.80525590113638,-46.57034572172657,192.95371731765982C-51.42870079186033,421.712690536456,-30.5898398149258,658.1748123023091,-26.801405941767072,864.1553457499033C-23.012972068608345,1070.1358791974976,-28.306643473068725,1212.8628089615424,-23.839742482774213,1428.8369180032253C-19.3728414924797,1644.811027044908,-3.973290413795702,2038.139486333871,0,2160L 1920 2160 L 1920 -1080 Z" fill="url(&quot;#SvgjsLinearGradient2245&quot;)"></path><path d="M240,-1080C252.12238721700194,-1012.2480300182151,319.85802231911265,-829.2750690387148,312.7343233020117,-673.488180109291C305.6106242849108,-517.7012911798671,222.0850205169389,-320.47211422563703,197.25780589739435,-145.2786664234569C172.4305912778498,29.914781378723234,164.47099722172325,223.43335665227045,163.77103558474448,377.67250670378996C163.0710739477657,531.9116567553094,169.16720513634422,638.8885766755133,193.05803607552167,780.1562338856602C216.94886701469912,921.4238910958071,285.4036576524983,1062.3003669789393,307.1160212198092,1225.2784499646716C328.82838478712017,1388.2565329504039,334.5182210160224,1602.2378067941659,323.3322174793875,1758.024731800054C312.14621394275264,1913.8116568059422,253.88870291323124,2093.0041219666755,240,2160L 1920 2160 L 1920 -1080 Z" fill="url(&quot;#SvgjsLinearGradient2246&quot;)"></path><path d="M480,-1080C492.81814224581353,-994.4303780716156,555.3286915122698,-719.3076254310064,556.9088534748813,-566.5822684296932C558.4890154374929,-413.85691142837993,512.9612262882639,-310.8289217101812,489.4809717756694,-163.6478579921207C466.0007172630749,-16.46679427406019,404.6674611589452,166.54252115502865,416.0273263993141,316.50411387866984C427.38719163968307,466.465706602311,541.7147747554591,577.3619255612908,557.6401632178831,736.1216983497264C573.5655516803072,894.881471138162,522.7571440060377,1096.4982995359344,511.57965717385866,1269.0627506092835C500.4021703416796,1441.6272016826326,495.8385184204518,1623.0188632247018,490.5752422248087,1771.5084047898213C485.31196602916555,1919.9979463549407,481.76254037080145,2095.2514007983036,480,2160L 1920 2160 L 1920 -1080 Z" fill="url(&quot;#SvgjsLinearGradient2247&quot;)"></path><path d="M720,-1080C719.2991424883176,-997.6307635664893,722.2152509361543,-749.336519452837,715.7948549299056,-585.784581398936C709.3744589236568,-422.23264334503494,694.2514332232773,-243.47959842133176,681.4776239625074,-98.68837167659396C668.7038147017375,46.10285506814384,623.6403027590319,152.48206314604832,639.1519993652862,282.9627790694908C654.6636959715405,413.4434949929333,746.5610401537928,539.7480096822712,774.5478036000335,684.195923864061C802.5345670462742,828.6438380458508,825.1090299862118,990.8365729795098,807.0725800427304,1149.6502641602292C789.0361300992489,1308.4639553409486,680.8412006129334,1468.686448308416,666.329103939145,1637.0780709483777C651.8170072653567,1805.4696935883394,711.0548506565242,2072.846345158063,720,2160L 1920 2160 L 1920 -1080 Z" fill="url(&quot;#SvgjsLinearGradient2248&quot;)"></path><path d="M960,-1080C951.0656654220995,-936.2473875430846,896.2338275505226,-496.57659939540287,906.3939925325968,-217.48432525850797C916.554157514671,61.607948878386935,1026.2403852522589,330.388103221389,1020.9609898924452,594.5536448213695C1015.6815945326315,858.7191864213501,884.8777853557888,1106.6011984782701,874.7176203737146,1367.5089243413752C864.5574553916404,1628.4166502044802,945.7862700622858,2027.918154056896,960,2160L 1920 2160 L 1920 -1080 Z" fill="url(&quot;#SvgjsLinearGradient2249&quot;)"></path><path d="M1200,-1080C1186.012131382928,-996.2268720744021,1125.8027738067071,-744.3312761779101,1116.072788297568,-577.3612324464124C1106.3428027884288,-410.3911887149146,1141.4417561455575,-215.73460360276968,1141.6200869451645,-78.17973761101351C1141.7984177447715,59.375128380742666,1099.3257671283873,114.69964784298412,1117.1427730952105,247.96796350412473C1134.9597790620337,381.23627916526533,1247.737660706693,554.8931600773836,1248.5221227461034,721.4301563558301C1249.3065847855137,887.9671526342767,1141.4061401705594,1070.7040179952232,1121.8495453316725,1247.1899411748038C1102.2929504927856,1423.6758643543844,1118.157477934727,1628.2106856291148,1131.1825537127816,1780.3456954333142C1144.207629490836,1932.4807052375136,1188.530425618797,2096.724282572219,1200,2160L 1920 2160 L 1920 -1080 Z" fill="url(&quot;#SvgjsLinearGradient2250&quot;)"></path><path d="M1440,-1080C1440.6326962014757,-999.4576088425943,1452.7999177190106,-770.6380262009183,1443.7961772088543,-596.7456530555656C1434.7924366986979,-422.853279910213,1396.0398112471041,-230.31308208154724,1385.9775569390617,-36.64576112788414C1375.9153026310194,157.02155982577898,1366.4327968962934,373.3916160403061,1383.4226513605997,565.258272666413C1400.412505824906,757.1249292925198,1473.010083080689,931.2418828270226,1487.9166837248993,1114.554178628757C1502.8232843691096,1297.8664744304915,1480.8483691800116,1490.891077248279,1472.8622552258616,1665.1320474768195C1464.8761412717117,1839.3730177053599,1445.4770425376437,2077.522007912803,1440,2160L 1920 2160 L 1920 -1080 Z" fill="url(&quot;#SvgjsLinearGradient2251&quot;)"></path><path d="M1680,-1080C1670.1891352237885,-967.0100349931892,1625.9777751256909,-618.751767978419,1621.1348113427312,-402.06020995913485C1616.2918475597714,-185.3686519398507,1654.5335470778052,23.68495828568217,1650.9422173022422,220.14934811570487C1647.3508875266791,416.61373794572756,1603.2683030766175,561.8616728088217,1599.5868326893533,776.7261290210014C1595.905362302089,991.5905852331811,1615.4512004268831,1278.7904402256165,1628.8533949786577,1509.336085388783C1642.2555895304322,1739.8817305519494,1671.4755658297763,2051.556014231464,1680,2160L 1920 2160 L 1920 -1080 Z" fill="url(&quot;#SvgjsLinearGradient2252&quot;)"></path></g><defs><linearGradient x1="0.1" y1="0" x2="0" y2="1" id="SvgjsLinearGradient2245"><stop stop-color="#000000" offset="0"></stop><stop stop-color="#000000" offset="0"></stop></linearGradient><linearGradient x1="0.1" y1="0" x2="0" y2="1" id="SvgjsLinearGradient2246"><stop stop-color="#202020" offset="0"></stop><stop stop-color="#202020" offset="0.125"></stop></linearGradient><linearGradient x1="0.1" y1="0" x2="0" y2="1" id="SvgjsLinearGradient2247"><stop stop-color="#404040" offset="0"></stop><stop stop-color="#404040" offset="0.25"></stop></linearGradient><linearGradient x1="0.1" y1="0" x2="0" y2="1" id="SvgjsLinearGradient2248"><stop stop-color="#606060" offset="0"></stop><stop stop-color="#606060" offset="0.375"></stop></linearGradient><linearGradient x1="0.1" y1="0" x2="0" y2="1" id="SvgjsLinearGradient2249"><stop stop-color="#808080" offset="0"></stop><stop stop-color="#808080" offset="0.5"></stop></linearGradient><linearGradient x1="0.1" y1="0" x2="0" y2="1" id="SvgjsLinearGradient2250"><stop stop-color="#9f9f9f" offset="0"></stop><stop stop-color="#9f9f9f" offset="0.625"></stop></linearGradient><linearGradient x1="0.1" y1="0" x2="0" y2="1" id="SvgjsLinearGradient2251"><stop stop-color="#bfbfbf" offset="0"></stop><stop stop-color="#bfbfbf" offset="0.75"></stop></linearGradient><linearGradient x1="0.1" y1="0" x2="0" y2="1" id="SvgjsLinearGradient2252"><stop stop-color="#dfdfdf" offset="0"></stop><stop stop-color="#dfdfdf" offset="0.875"></stop></linearGradient></defs></svg>