<svg xmlns="http://www.w3.org/2000/svg" version="1.1" xmlns:xlink="http://www.w3.org/1999/xlink" xmlns:svgjs="http://svgjs.dev/svgjs" viewBox="0 0 1920 1080"><rect width="1920" height="1080" fill="#000000"></rect><g transform="matrix(0.8131727983645296,0.8131727983645295,-0.8131727983645295,0.8131727983645296,614.9236630869059,-664.3348347571375)"><path d="M0,-1080C-6.094374442858812,-996.7285199620952,-45.736098740506584,-738.279229167483,-36.566246657152874,-580.3711197725713C-27.396394573799164,-422.46301037765966,45.64717890642617,-275.30356730840913,55.019112500122276,-132.5513436305299C64.39104609381837,10.200880047349273,26.919867738960747,116.99621349836005,19.665354905023747,276.1422222947037C12.410842071086748,435.28823109104735,14.963597936112437,670.4392096041977,11.492035496500279,822.324709147532C8.02047305688812,974.2102086908662,-11.362201825253242,1028.8503771179896,-1.1640197326492085,1187.4552195547092C9.034162359954825,1346.0600619914287,72.48712476334961,1611.8629670269677,72.68112805212448,1773.9537637678495C72.87513134089934,1936.0445605087314,12.113521342020746,2095.658960627975,0,2160L 1920 2160 L 1920 -1080 Z" fill="url(&quot;#SvgjsLinearGradient2301&quot;)"></path><path d="M240,-1080C251.78965886701005,-1013.055095954229,305.2442957230221,-814.3094872185535,310.7379532020602,-678.3305757253739C316.23161068109835,-542.3516642321944,280.6966513104694,-398.61051215462555,272.96194487422883,-264.1265310409228C265.22723843798826,-129.6425499272201,263.86870623343395,-18.553695726419534,264.3297145846167,128.57331095684242C264.7907229357994,275.70031764010434,267.0240165617872,483.5214355075969,275.727994981325,618.635509058649C284.43197340086283,753.7495826097011,314.6700797444821,820.0512123055764,316.5535851018436,939.2577522631548C318.43709045920514,1058.4642922207331,292.81246324031736,1187.9309204267797,287.02902712549405,1333.8747488041192C281.24559101067075,1479.8185771814587,289.6911396004863,1677.233180661212,281.8529684129039,1814.920722527192C274.01479722532156,1952.6082643931722,246.97549473548398,2102.486787087865,240,2160L 1920 2160 L 1920 -1080 Z" fill="url(&quot;#SvgjsLinearGradient2302&quot;)"></path><path d="M480,-1080C485.7446346047634,-968.8281722699305,523.975533704639,-639.5939450644476,514.4678076285805,-412.96903361958334C504.960081552522,-186.34412217471913,428.4599421696581,61.16081413077518,422.95364354364887,279.74946866918526C417.4473449176396,498.33812320759534,483.3390574239956,686.7589752120408,481.43001587252496,898.5628936108772C479.5209743210543,1110.3668120097136,411.73773021357925,1340.333461330683,411.4993942348251,1550.5729790622033C411.26105825607095,1760.8124967937238,468.58323237247083,2058.4288298437004,480,2160L 1920 2160 L 1920 -1080 Z" fill="url(&quot;#SvgjsLinearGradient2303&quot;)"></path><path d="M720,-1080C720.1535559411054,-946.8372143980196,728.7647208332193,-562.9310845389145,720.9213356466329,-281.02328638811707C713.0779504600465,0.8845117626804608,674.5013593290884,328.529321114977,672.9396888804816,611.4467889047853C671.3780184318749,894.3642566945937,703.707927768406,1158.3893185015302,711.5513129549923,1416.4815203507326C719.3946981415787,1674.573722199935,718.5918854924987,2036.0802533917888,720,2160L 1920 2160 L 1920 -1080 Z" fill="url(&quot;#SvgjsLinearGradient2304&quot;)"></path><path d="M960,-1080C964.912733438606,-1013.1233421259872,984.8437195020734,-822.2421749232271,989.4764006316356,-678.740052755923C994.1090817611977,-535.2379305886188,985.8041675764069,-391.7197261249887,987.7960867773729,-218.9872669961752C989.7880059783389,-46.254807867361734,1003.4519093682926,190.48481203834078,1001.4279158374317,357.6547020169577C999.4039223065707,524.8245919955746,994.5710872106652,643.0214723428605,975.6521255922075,784.0320728755262C956.7331639737499,925.0426734081918,896.0722692668226,1055.091193526248,887.9141461266862,1203.7183052129515C879.7560229865499,1352.345416899655,914.6890777725037,1516.4144605312397,926.7033867513893,1675.7947429957478C938.717695730275,1835.175025460256,954.4505644585649,2079.2991238326244,960,2160L 1920 2160 L 1920 -1080 Z" fill="url(&quot;#SvgjsLinearGradient2305&quot;)"></path><path d="M1200,-1080C1204.9184332782177,-983.7158892848404,1236.5567302301117,-727.0108926931983,1229.510599669306,-502.29533570904255C1222.4644691085002,-277.57977872488675,1157.106445485017,51.929953556845845,1157.7232166351655,268.2933419049346C1158.339987785314,484.6567302530234,1238.659523786778,587.3695609467254,1233.2112265701967,795.88499437949C1227.7629293536154,1004.4004278122545,1130.5686377640434,1292.0334415647699,1125.0334333356773,1519.3859425015216C1119.4982289073112,1746.7384434382734,1187.505572222613,2053.23099041692,1200,2160L 1920 2160 L 1920 -1080 Z" fill="url(&quot;#SvgjsLinearGradient2306&quot;)"></path><path d="M1440,-1080C1436.4110383610875,-935.0990382098099,1409.3841745440038,-472.16213609119006,1418.466230166525,-210.59422925885937C1427.5482857890463,50.97367757347129,1483.8629949285883,224.47539679637322,1494.4923337351279,489.407440993984C1505.1216725416675,754.3394851915948,1491.324318628284,1100.5659427591359,1482.2422630057627,1378.9980359268052C1473.1602073832414,1657.4301290944745,1447.0403771676272,2029.8330059878008,1440,2160L 1920 2160 L 1920 -1080 Z" fill="url(&quot;#SvgjsLinearGradient2307&quot;)"></path><path d="M1680,-1080C1680.5273088549548,-959.3475205296241,1693.8512353686774,-569.0549252935868,1683.163853129728,-356.0851231777446C1672.4764708907787,-143.1153210619023,1616.7243199399986,-13.027817882882175,1615.8757065663042,197.81881269505374C1615.0270931926098,408.66544327298965,1655.2822568228894,699.3313437162664,1678.0721728875612,908.9946602898708C1700.862088952233,1118.6579768634754,1752.293898435595,1247.2978221849926,1752.615202954335,1455.7987121366807C1752.936507473075,1664.2996020883688,1692.1025338257225,2042.6331186894467,1680,2160L 1920 2160 L 1920 -1080 Z" fill="url(&quot;#SvgjsLinearGradient2308&quot;)"></path></g><defs><linearGradient x1="0.1" y1="0" x2="0" y2="1" id="SvgjsLinearGradient2301"><stop stop-color="#000000" offset="0"></stop><stop stop-color="#000000" offset="0"></stop></linearGradient><linearGradient x1="0.1" y1="0" x2="0" y2="1" id="SvgjsLinearGradient2302"><stop stop-color="#202020" offset="0"></stop><stop stop-color="#202020" offset="0.125"></stop></linearGradient><linearGradient x1="0.1" y1="0" x2="0" y2="1" id="SvgjsLinearGradient2303"><stop stop-color="#404040" offset="0"></stop><stop stop-color="#404040" offset="0.25"></stop></linearGradient><linearGradient x1="0.1" y1="0" x2="0" y2="1" id="SvgjsLinearGradient2304"><stop stop-color="#606060" offset="0"></stop><stop stop-color="#606060" offset="0.375"></stop></linearGradient><linearGradient x1="0.1" y1="0" x2="0" y2="1" id="SvgjsLinearGradient2305"><stop stop-color="#808080" offset="0"></stop><stop stop-color="#808080" offset="0.5"></stop></linearGradient><linearGradient x1="0.1" y1="0" x2="0" y2="1" id="SvgjsLinearGradient2306"><stop stop-color="#9f9f9f" offset="0"></stop><stop stop-color="#9f9f9f" offset="0.625"></stop></linearGradient><linearGradient x1="0.1" y1="0" x2="0" y2="1" id="SvgjsLinearGradient2307"><stop stop-color="#bfbfbf" offset="0"></stop><stop stop-color="#bfbfbf" offset="0.75"></stop></linearGradient><linearGradient x1="0.1" y1="0" x2="0" y2="1" id="SvgjsLinearGradient2308"><stop stop-color="#dfdfdf" offset="0"></stop><stop stop-color="#dfdfdf" offset="0.875"></stop></linearGradient></defs></svg>