<svg xmlns="http://www.w3.org/2000/svg" version="1.1" xmlns:xlink="http://www.w3.org/1999/xlink" xmlns:svgjs="http://svgjs.dev/svgjs" viewBox="0 0 1920 1080"><rect width="1920" height="1080" fill="#000000"></rect><g transform="matrix(0.8131727983645296,0.8131727983645295,-0.8131727983645295,0.8131727983645296,610.701471242267,-645.9575774440616)"><path d="M0,-1080C2.5653948075453648,-1013.1527536698466,29.227976944240012,-819.7587351170281,15.392368845272188,-678.9165220190796C1.556760746304363,-538.0743089211311,-86.85512146793104,-386.0597838832705,-83.01364859380695,-234.94672141230905C-79.17217571968285,-83.83365894134764,22.349620992255208,61.05276191663913,38.441206090016735,227.76185280668886C54.53279118777826,394.4709436967386,32.61351466296318,605.0618344939168,13.535861992762221,765.3078239279893C-5.541790677438737,925.5538133620618,-85.20107047451401,1022.6987492988279,-76.02470993118902,1189.2377894111241C-66.84834938786403,1355.7768295234205,55.92324026418063,1602.7483628369541,68.59402525271213,1764.5420646017667C81.26481024124364,1926.3357663665793,11.432337542118688,2094.0903441002943,0,2160L 1920 2160 L 1920 -1080 Z" fill="url(&quot;#SvgjsLinearGradient2365&quot;)"></path><path d="M240,-1080C253.3756119214462,-1010.0621497664894,319.11851732991363,-805.2598601054399,320.25367152867716,-660.372898598936C321.3888257274407,-515.4859370924321,257.0809763159949,-373.8457975115705,246.8109251925811,-210.67823096097675C236.5408740691673,-47.51066441038299,256.95096646679485,144.87170638807518,258.6333647881944,318.6325007046265C260.31576310959395,492.3932950211779,257.1102480480998,674.8708160961149,256.90531512097823,831.8865349383312C256.7003821938567,988.9022537805475,266.90842399141843,1102.2276514795317,257.403767225465,1260.7268137579244C247.8991104595116,1419.2259760363172,202.7780023961686,1633.002644235009,199.87737452525778,1782.8815086086884C196.97674665434695,1932.7603729823677,233.31289575420962,2097.146918101448,240,2160L 1920 2160 L 1920 -1080 Z" fill="url(&quot;#SvgjsLinearGradient2366&quot;)"></path><path d="M480,-1080C481.69351086113875,-984.279863366816,479.41734969882765,-693.8461530214967,490.16106516683243,-505.67918020089576C500.9047806348372,-317.51220738029485,535.2253272468215,-119.88492335070615,544.4622928080288,49.001836923605424C553.6992583692361,217.888597197917,560.8443144330417,338.67706281699463,545.5828585340764,507.6413814449736C530.3214026351111,676.6057000729526,471.47404715781784,890.2577753521256,452.89355741423697,1062.7877486914795C434.3130676706561,1235.3177220308335,429.58217964163083,1359.9525129296771,434.0999200725913,1542.8212214810972C438.6176605035518,1725.6899300325172,472.3499866787652,2057.1368702468494,480,2160L 1920 2160 L 1920 -1080 Z" fill="url(&quot;#SvgjsLinearGradient2367&quot;)"></path><path d="M720,-1080C708.8327691967654,-979.5392519482216,653.1073478715921,-704.7352497672298,652.9966151805925,-477.2355116893294C652.8858824895929,-249.73577361142904,702.1978950617023,72.95840536945755,719.3356038540021,284.9984284674024C736.4733126463019,497.03845156534726,756.6527933133448,582.1600511264495,755.8228679343912,795.0046268983396C754.9929425554376,1007.8492026702296,720.326529569346,1334.5666542484662,714.3560515802808,1562.065883098743C708.3855735912156,1789.5651119490196,719.0593419300468,2060.3443138497905,720,2160L 1920 2160 L 1920 -1080 Z" fill="url(&quot;#SvgjsLinearGradient2368&quot;)"></path><path d="M960,-1080C954.118636050872,-959.5189264439282,930.239242210386,-623.6344610087208,924.7118163052324,-357.1135586635695C919.1843904000789,-90.59265631841816,908.2239503416272,228.54992629625139,926.8354445690787,519.125414070908C945.4469387965303,809.7009018455647,1030.8533557647881,1112.8602703295217,1036.3807816699416,1386.3393679843703C1041.908207575095,1659.8184656392189,972.7301302783236,2031.0565613307283,960,2160L 1920 2160 L 1920 -1080 Z" fill="url(&quot;#SvgjsLinearGradient2369&quot;)"></path><path d="M1200,-1080C1197.9340734826915,-958.4203263211799,1190.4336446139725,-576.1521106678089,1187.6044408961495,-350.5219579270795C1184.7752371783265,-124.89180518635013,1191.6921457268618,71.13172383413482,1183.0247776930614,273.7809164443762C1174.357409659261,476.43010905461756,1141.5062931734797,649.2533335816844,1135.6002326933476,865.3731977343689C1129.6941722132156,1081.4930618870535,1136.8551202611607,1354.7289676495448,1147.5884148122693,1570.5001013604833C1158.321709363378,1786.2712350714219,1191.264735802045,2061.750016893414,1200,2160L 1920 2160 L 1920 -1080 Z" fill="url(&quot;#SvgjsLinearGradient2370&quot;)"></path><path d="M1440,-1080C1430.9733924353743,-997.8235517909741,1377.289227368196,-743.5899602027342,1385.8403546122454,-586.9413107458445C1394.3914818562948,-430.2926612889547,1475.370337831381,-280.15363827351337,1491.306763464296,-140.10810325866157C1507.243189097211,-0.06256824380977832,1487.3791600334046,112.87480807044452,1481.458908409735,253.33189934326634C1475.5386567860653,393.7889906160882,1473.7389318250416,525.1454096729107,1455.7852537222784,702.6344443782694C1437.8315756195152,880.1234790836282,1368.2384207847876,1138.1797401256595,1373.736839793155,1318.2661075754193C1379.2352588015224,1498.352475025179,1477.731907738008,1642.8636670060644,1488.7757677724821,1783.1526490768279C1499.8196278069563,1923.4416311475914,1448.129294628747,2097.1921081794712,1440,2160L 1920 2160 L 1920 -1080 Z" fill="url(&quot;#SvgjsLinearGradient2371&quot;)"></path><path d="M1680,-1080C1688.9661509987823,-974.9208736097919,1746.4836087138171,-666.8949240607872,1733.7969059926936,-449.5252416587516C1721.11020327157,-232.15555925671606,1606.2314625889385,8.98395191087991,1603.8797836732583,224.2180944122132C1601.5281047575781,439.45223691354647,1708.3768258569962,637.6879209188929,1719.6868324986121,841.8796133492481C1730.996839140228,1046.071305779603,1678.3542956060555,1229.6815178858851,1671.7398235229534,1449.3682489943437C1665.1253514398513,1669.0549801028023,1678.6233039204922,2041.5613748323906,1680,2160L 1920 2160 L 1920 -1080 Z" fill="url(&quot;#SvgjsLinearGradient2372&quot;)"></path></g><defs><linearGradient x1="0.1" y1="0" x2="0" y2="1" id="SvgjsLinearGradient2365"><stop stop-color="#000000" offset="0"></stop><stop stop-color="#000000" offset="0"></stop></linearGradient><linearGradient x1="0.1" y1="0" x2="0" y2="1" id="SvgjsLinearGradient2366"><stop stop-color="#202020" offset="0"></stop><stop stop-color="#202020" offset="0.125"></stop></linearGradient><linearGradient x1="0.1" y1="0" x2="0" y2="1" id="SvgjsLinearGradient2367"><stop stop-color="#404040" offset="0"></stop><stop stop-color="#404040" offset="0.25"></stop></linearGradient><linearGradient x1="0.1" y1="0" x2="0" y2="1" id="SvgjsLinearGradient2368"><stop stop-color="#606060" offset="0"></stop><stop stop-color="#606060" offset="0.375"></stop></linearGradient><linearGradient x1="0.1" y1="0" x2="0" y2="1" id="SvgjsLinearGradient2369"><stop stop-color="#808080" offset="0"></stop><stop stop-color="#808080" offset="0.5"></stop></linearGradient><linearGradient x1="0.1" y1="0" x2="0" y2="1" id="SvgjsLinearGradient2370"><stop stop-color="#9f9f9f" offset="0"></stop><stop stop-color="#9f9f9f" offset="0.625"></stop></linearGradient><linearGradient x1="0.1" y1="0" x2="0" y2="1" id="SvgjsLinearGradient2371"><stop stop-color="#bfbfbf" offset="0"></stop><stop stop-color="#bfbfbf" offset="0.75"></stop></linearGradient><linearGradient x1="0.1" y1="0" x2="0" y2="1" id="SvgjsLinearGradient2372"><stop stop-color="#dfdfdf" offset="0"></stop><stop stop-color="#dfdfdf" offset="0.875"></stop></linearGradient></defs></svg>