<svg xmlns="http://www.w3.org/2000/svg" version="1.1" xmlns:xlink="http://www.w3.org/1999/xlink" xmlns:svgjs="http://svgjs.dev/svgjs" viewBox="0 0 1920 1080"><rect width="1920" height="1080" fill="#000000"></rect><g transform="matrix(0.8131727983645296,0.8131727983645295,-0.8131727983645295,0.8131727983645296,610.5065179581995,-645.1090355499064)"><path d="M0,-1080C-9.205398670288993,-990.6045451109288,-65.15988975307584,-710.9498905440737,-55.23239202173396,-543.6272706655732C-45.30489429039206,-376.3046507870727,58.430722986388304,-222.0150081192866,59.56498638805135,-76.06428072899723C60.6992497897144,69.88644666129213,-32.56518676359945,199.50961803246287,-48.42681161175565,332.07709367616303C-64.28843645991186,464.6445693198632,-29.615030358362926,577.3649454207962,-35.604762700885885,719.3405731332037C-41.59449504340885,861.3162008456113,-92.38771633462761,1011.5719663591964,-84.36520566689342,1183.9308599506082C-76.34269499915922,1356.28975354202,-1.5305663056296144,1590.8157446734429,12.530301305519288,1753.4939346816748C26.591168916668188,1916.1721246899067,2.088383550919881,2092.2489891136124,0,2160L 1920 2160 L 1920 -1080 Z" fill="url(&quot;#SvgjsLinearGradient2253&quot;)"></path><path d="M240,-1080C241.93221348035328,-976.6300697498277,264.1727940127213,-669.8223268994008,251.59328088211973,-459.7804184989666C239.01376775151815,-249.73851009853243,165.74269437534588,-28.937466353740803,164.5229212163905,180.25145040260475C163.30314805743512,389.44036715895027,246.06437243412742,568.2009392523654,244.27464192838744,795.3530820391068C242.48491142264746,1022.5052248258481,154.4969785033485,1315.7231541295705,153.78453818195058,1543.1643071230528C153.07209786055267,1770.6054601165351,225.63075636365843,2057.1940511871753,240,2160L 1920 2160 L 1920 -1080 Z" fill="url(&quot;#SvgjsLinearGradient2254&quot;)"></path><path d="M480,-1080C488.17186606643713,-985.600900597041,514.6973999371976,-698.8340377176627,529.0311963986228,-513.6054035822463C543.364992860048,-328.3767694468298,560.8313344345432,-136.33723114859333,566.002778768551,31.371804812498638C571.1742231025588,199.08084077359064,561.255695911081,303.38425630410154,560.0598624026693,492.64881218430554C558.8640288942576,681.9133680645095,571.0485566098566,978.7538989919647,558.8277777180805,1166.9591400937225C546.6069988263043,1355.1643811954802,499.87315200502604,1456.3734488104726,486.73518905201263,1621.8802587948521C473.5972260989992,1787.3870687792316,481.12253150866877,2070.3133764658087,480,2160L 1920 2160 L 1920 -1080 Z" fill="url(&quot;#SvgjsLinearGradient2255&quot;)"></path><path d="M720,-1080C733.8429012474022,-1020.7146395058851,796.182085411996,-866.5755746761881,803.0574074844133,-724.2878370353103C809.9327295568305,-582.0000993944325,763.578121245016,-366.3742492769561,761.2519324345037,-226.27357415473304C758.9257436239915,-86.17289903250997,793.3381573885222,-22.537831396650688,789.1002746213398,116.31621369802818C784.8623918541575,255.17025879270705,737.3478263882699,473.0109263938899,735.8246358314098,606.8506964133401C734.3014452745496,740.6904664327902,781.5406229830362,802.3639338469394,779.9611312801785,919.354833814729C778.3816395773208,1036.3457337825187,734.2961913014118,1177.14198319046,726.3476856142638,1308.7960962200777C718.3991799271158,1440.4502092496955,733.3280447596679,1567.4121946957814,732.2700971572906,1709.2795119924351C731.2121495549133,1851.1468292890888,722.0450161928818,2084.879918665406,720,2160L 1920 2160 L 1920 -1080 Z" fill="url(&quot;#SvgjsLinearGradient2256&quot;)"></path><path d="M960,-1080C965.2347488052823,-999.4051792951855,1001.242313895506,-782.178182619049,991.4084928316938,-596.4310757711125C981.5746717678817,-410.68396892317605,913.7633033332125,-143.00344050106224,900.9970736171271,34.4826410876189C888.2308439010416,211.96872267630005,918.7964000935625,302.6451189956788,914.8111145351808,468.4854137609743C910.825828976799,634.3257085262699,879.8378259321421,827.3561202624194,877.0853602668367,1029.5244096793922C874.3328946015313,1231.692699096365,884.4772139211548,1493.0825518760435,898.2963205433487,1681.4951502628114C912.1154271655425,1869.9077486495794,949.7160534238915,2080.2491917104685,960,2160L 1920 2160 L 1920 -1080 Z" fill="url(&quot;#SvgjsLinearGradient2257&quot;)"></path><path d="M1200,-1080C1196.0910463721743,-1002.6848468113203,1184.084504873164,-780.1586730234845,1176.5462782330465,-616.1090808679216C1169.008051592929,-452.05948871235876,1160.5964302732223,-255.90902392075927,1154.7706401592948,-95.70244706662254C1148.9448500453673,64.50412978751419,1132.817415221883,214.431802094601,1141.5915375494815,345.1303802568987C1150.36565987708,475.8289584191964,1186.9761911267076,529.2193583547971,1207.415374124886,688.4890219071638C1227.8545571230645,847.7586854595304,1278.2600533842303,1143.6309324771394,1264.226635538552,1300.7483615710985C1250.1932176928738,1457.8657906650576,1133.9193063072419,1487.9849900661013,1123.2148670508166,1631.1935964709182C1112.5104277943913,1774.4022028757352,1187.2024778418026,2071.86559941182,1200,2160L 1920 2160 L 1920 -1080 Z" fill="url(&quot;#SvgjsLinearGradient2258&quot;)"></path><path d="M1440,-1080C1443.4144393012482,-981.3349009126543,1469.0528033708079,-699.1947999870011,1460.4866358074887,-488.0094054759258C1451.9204682441696,-276.82401096485046,1401.7678584475861,-43.956767677002745,1388.6029946200854,187.11236706645195C1375.4381307925846,418.18150180990665,1380.9210214663094,673.4043547259204,1381.4974528424839,898.4054029848023C1382.0738842186583,1123.4064512436842,1382.3111583508794,1326.8528904505438,1392.061582877132,1537.1186566197434C1401.8120074033845,1747.384422788943,1432.0102638128553,2056.1864427699575,1440,2160L 1920 2160 L 1920 -1080 Z" fill="url(&quot;#SvgjsLinearGradient2259&quot;)"></path><path d="M1680,-1080C1683.299173202388,-977.5730042588558,1696.3098546466156,-680.5713533768654,1699.795039214328,-465.43802555313493C1703.2802237820404,-250.30469772940447,1709.9528083238997,3.2990906639853677,1700.9111074062744,210.79996694238275C1691.869406488649,418.30084322078017,1647.6012507057014,551.2752851733879,1645.5448337085754,779.5672321172494C1643.4884167114494,1007.8591790611109,1682.8300777082811,1350.4795206250935,1688.5726054235186,1580.551648605552C1694.315133138756,1810.6237765860103,1681.4287675705864,2063.425274767592,1680,2160L 1920 2160 L 1920 -1080 Z" fill="url(&quot;#SvgjsLinearGradient2260&quot;)"></path></g><defs><linearGradient x1="0.1" y1="0" x2="0" y2="1" id="SvgjsLinearGradient2253"><stop stop-color="#000000" offset="0"></stop><stop stop-color="#000000" offset="0"></stop></linearGradient><linearGradient x1="0.1" y1="0" x2="0" y2="1" id="SvgjsLinearGradient2254"><stop stop-color="#202020" offset="0"></stop><stop stop-color="#202020" offset="0.125"></stop></linearGradient><linearGradient x1="0.1" y1="0" x2="0" y2="1" id="SvgjsLinearGradient2255"><stop stop-color="#404040" offset="0"></stop><stop stop-color="#404040" offset="0.25"></stop></linearGradient><linearGradient x1="0.1" y1="0" x2="0" y2="1" id="SvgjsLinearGradient2256"><stop stop-color="#606060" offset="0"></stop><stop stop-color="#606060" offset="0.375"></stop></linearGradient><linearGradient x1="0.1" y1="0" x2="0" y2="1" id="SvgjsLinearGradient2257"><stop stop-color="#808080" offset="0"></stop><stop stop-color="#808080" offset="0.5"></stop></linearGradient><linearGradient x1="0.1" y1="0" x2="0" y2="1" id="SvgjsLinearGradient2258"><stop stop-color="#9f9f9f" offset="0"></stop><stop stop-color="#9f9f9f" offset="0.625"></stop></linearGradient><linearGradient x1="0.1" y1="0" x2="0" y2="1" id="SvgjsLinearGradient2259"><stop stop-color="#bfbfbf" offset="0"></stop><stop stop-color="#bfbfbf" offset="0.75"></stop></linearGradient><linearGradient x1="0.1" y1="0" x2="0" y2="1" id="SvgjsLinearGradient2260"><stop stop-color="#dfdfdf" offset="0"></stop><stop stop-color="#dfdfdf" offset="0.875"></stop></linearGradient></defs></svg>