<svg xmlns="http://www.w3.org/2000/svg" version="1.1" xmlns:xlink="http://www.w3.org/1999/xlink" xmlns:svgjs="http://svgjs.dev/svgjs" viewBox="0 0 1920 1080"><rect width="1920" height="1080" fill="#000000"></rect><g transform="matrix(0.8131727983645296,0.8131727983645295,-0.8131727983645295,0.8131727983645296,615.0079635307286,-664.7017557793793)"><path d="M0,-1080C2.4047786687177557,-968.4829716928672,17.23681554292375,-624.558653088788,14.428672012306535,-410.8978301572034C11.62052848168932,-197.23700722561878,-9.078287999747456,-16.339295082065092,-16.848861183703292,201.96493758950766C-24.619434367659128,420.2691702610804,-46.731815592851085,667.9379648778287,-32.19476709142849,898.9275658722331C-17.657718590005892,1129.9171668666377,65.00763530959422,1377.72380453464,70.3734298248323,1587.9025435559345C75.73922434007038,1798.0812825772289,11.728904970805383,2064.650423925989,0,2160L 1920 2160 L 1920 -1080 Z" fill="url(&quot;#SvgjsLinearGradient2333&quot;)"></path><path d="M240,-1080C246.58121288186157,-999.1490998352874,285.33904612394724,-768.755211954662,279.4872772911695,-594.8945990117246C273.63550845839177,-421.03398606878727,202.32441561128184,-216.1933776341369,204.88938700333352,-36.836322342375986C207.4543583953852,142.52073294938495,280.11572545500644,286.7362742147436,294.8771056434797,481.2477327388408C309.63848583195295,675.759191262938,301.8534208652895,942.9467201840976,293.4576681341731,1130.2324288022069C285.06191540305673,1317.5181374203162,253.41220061247702,1433.334055914531,244.5025892567815,1604.9619844474967C235.592977901086,1776.5899129804623,240.75043154279692,2067.4936640745827,240,2160L 1920 2160 L 1920 -1080 Z" fill="url(&quot;#SvgjsLinearGradient2334&quot;)"></path><path d="M480,-1080C494.657329291605,-1001.057763456592,556.8315499657531,-783.8331275081568,567.9439757496298,-606.3465807395521C579.0564015335065,-428.86003397094737,560.6207478230996,-210.88800513623815,546.6745547032601,-15.080719388371449C532.7283615834207,180.72656635949525,494.9047366288125,373.83748523573365,484.2668170305931,568.4971337476481C473.62889743237366,763.1567822595626,485.4430389441291,991.5853929072507,482.84703711394354,1152.8771716831156C480.251035283758,1314.1689504589806,469.1653122351369,1368.394001683357,468.69080604947965,1536.2478064028376C468.21629986382237,1704.1016111223182,478.11513434157996,2056.0413010671396,480,2160L 1920 2160 L 1920 -1080 Z" fill="url(&quot;#SvgjsLinearGradient2335&quot;)"></path><path d="M720,-1080C720.9439025731707,-978.031998790273,725.0989711143072,-691.1624065670933,725.6634154390243,-468.1919927416378C726.2278597637414,-245.22157891618238,721.7934595688804,26.31823586105162,723.3866659483025,257.8224829527325C724.9798723277246,489.3267300444134,734.6367136838288,726.0942634653975,735.2226537155569,920.8334898084476C735.808593747285,1115.5727161514976,729.439415091264,1219.7300893124411,726.9023061386712,1426.2578410110332C724.3651971860784,1632.7855927096252,721.1503843564452,2037.7096401685055,720,2160L 1920 2160 L 1920 -1080 Z" fill="url(&quot;#SvgjsLinearGradient2336&quot;)"></path><path d="M960,-1080C962.5834680426852,-1004.4992015525497,976.9980192242605,-801.6725863734011,975.5008082561114,-626.9952093152981C974.0035972879624,-452.31783225719505,944.8062911015961,-217.02347696051433,951.0167341911056,-31.935737651381466C957.227177280615,153.1520016577514,1025.7833528891356,304.95789183094826,1012.763466793168,483.5312265394991C999.7435806972005,662.1045612480499,881.8216790277845,842.0917399945415,872.8974176153002,1039.5042705999235C863.973156202816,1236.9168012053055,944.700801254146,1481.257121938445,959.2178983182627,1668.006410171791C973.7349953823793,1854.755698405137,959.8696497197104,2078.0010683619653,960,2160L 1920 2160 L 1920 -1080 Z" fill="url(&quot;#SvgjsLinearGradient2337&quot;)"></path><path d="M1200,-1080C1208.3953584781282,-933.722808987387,1238.3806581944245,-477.46071384833436,1250.372150868769,-202.3368539243222C1262.3636435431135,72.78700599968994,1283.2051750785154,313.912016313156,1271.9489560460677,570.7431595440728C1260.69273701362,827.5743027749895,1194.826329348427,1073.7738653851904,1182.8348366740822,1338.6500054611784C1170.8433439997375,1603.5261455371663,1197.1391394456805,2023.1083342435297,1200,2160L 1920 2160 L 1920 -1080 Z" fill="url(&quot;#SvgjsLinearGradient2338&quot;)"></path><path d="M1440,-1080C1429.1353536931574,-995.6683127156462,1365.6290335736226,-740.0681644279211,1374.812122158944,-574.0098762938766C1383.9952107442655,-407.951588159832,1489.4603779569982,-229.12000258739008,1495.0985315119292,-83.65027119573261C1500.7366850668602,61.81946019592485,1408.7122456900602,146.93866487652932,1408.6410434885302,298.8085120560683C1408.5698412870001,450.67835923560733,1486.8508596819938,671.7682293467021,1494.6713183027487,827.5688118815015C1502.4917769235035,983.3693944163008,1455.3603882205962,1091.4225447187905,1455.5637952130596,1233.6120072648644C1455.767202205523,1375.8014698109382,1498.4857261263728,1526.3075883687548,1495.8917602575295,1680.705587157944C1493.2977943886863,1835.103585947133,1449.3152933762549,2080.1175978596575,1440,2160L 1920 2160 L 1920 -1080 Z" fill="url(&quot;#SvgjsLinearGradient2339&quot;)"></path><path d="M1680,-1080C1684.6467566428582,-988.8851136313325,1711.4327934363373,-725.166765008508,1707.8805398571499,-533.3106817879952C1704.3282862779624,-341.45459856748244,1653.7356023504724,-109.76307647563036,1658.6864785248758,71.13649932307712C1663.6373546992793,252.0360751217846,1738.754351840616,394.9806231788501,1737.5857969035703,552.0867730042495C1736.4172419665247,709.1929228296489,1667.5067169280624,822.7896940320658,1651.6751489026014,1013.7733982754734C1635.8435808771405,1204.7571025188809,1637.8755802345722,1506.9512315106074,1642.5963887508053,1697.9889984646952C1647.3171972670384,1889.026765418783,1673.766064791801,2082.9981664107827,1680,2160L 1920 2160 L 1920 -1080 Z" fill="url(&quot;#SvgjsLinearGradient2340&quot;)"></path></g><defs><linearGradient x1="0.1" y1="0" x2="0" y2="1" id="SvgjsLinearGradient2333"><stop stop-color="#000000" offset="0"></stop><stop stop-color="#000000" offset="0"></stop></linearGradient><linearGradient x1="0.1" y1="0" x2="0" y2="1" id="SvgjsLinearGradient2334"><stop stop-color="#202020" offset="0"></stop><stop stop-color="#202020" offset="0.125"></stop></linearGradient><linearGradient x1="0.1" y1="0" x2="0" y2="1" id="SvgjsLinearGradient2335"><stop stop-color="#404040" offset="0"></stop><stop stop-color="#404040" offset="0.25"></stop></linearGradient><linearGradient x1="0.1" y1="0" x2="0" y2="1" id="SvgjsLinearGradient2336"><stop stop-color="#606060" offset="0"></stop><stop stop-color="#606060" offset="0.375"></stop></linearGradient><linearGradient x1="0.1" y1="0" x2="0" y2="1" id="SvgjsLinearGradient2337"><stop stop-color="#808080" offset="0"></stop><stop stop-color="#808080" offset="0.5"></stop></linearGradient><linearGradient x1="0.1" y1="0" x2="0" y2="1" id="SvgjsLinearGradient2338"><stop stop-color="#9f9f9f" offset="0"></stop><stop stop-color="#9f9f9f" offset="0.625"></stop></linearGradient><linearGradient x1="0.1" y1="0" x2="0" y2="1" id="SvgjsLinearGradient2339"><stop stop-color="#bfbfbf" offset="0"></stop><stop stop-color="#bfbfbf" offset="0.75"></stop></linearGradient><linearGradient x1="0.1" y1="0" x2="0" y2="1" id="SvgjsLinearGradient2340"><stop stop-color="#dfdfdf" offset="0"></stop><stop stop-color="#dfdfdf" offset="0.875"></stop></linearGradient></defs></svg>