<svg xmlns="http://www.w3.org/2000/svg" version="1.1" xmlns:xlink="http://www.w3.org/1999/xlink" xmlns:svgjs="http://svgjs.dev/svgjs" viewBox="0 0 1920 1080"><rect width="1920" height="1080" fill="#000000"></rect><g transform="matrix(0.8131727983645296,0.8131727983645295,-0.8131727983645295,0.8131727983645296,613.9438629426418,-660.0702158035015)"><path d="M0,-1080C-0.6603046135484073,-1016.2750821115717,-0.5368250839837239,-842.9080150919256,-3.961827681290444,-697.6504926694302C-7.386830278597165,-552.3929702469347,-31.360995282123426,-384.28885530878244,-20.55001558384032,-208.45486546502775C-9.739035885557216,-32.62087562127306,46.70330137422227,202.14262758493217,60.904050508408176,357.353446393098C75.10479964259409,512.5642652012639,78.44924929537746,575.9714921608457,64.65447922127512,722.8100473839673C50.859709147172794,869.648602607089,-3.135402907797239,1076.9436986090516,-21.864569936205825,1238.3847777318274C-40.59373696461441,1399.8258568546032,-51.36461793854402,1537.853985075927,-47.720522949176384,1691.4565221206226C-44.07642795980875,1845.059059165318,-7.953420491529397,2081.909420353437,0,2160L 1920 2160 L 1920 -1080 Z" fill="url(&quot;#SvgjsLinearGradient2341&quot;)"></path><path d="M240,-1080C230.42723351612992,-1004.7324566545971,174.89404383827275,-773.6105307241235,182.56340109677944,-628.3947399275821C190.23275835528614,-483.1789491310408,264.6646936088,-375.48589618302924,286.01614355104016,-208.70525522075167C307.3675934932803,-41.924614258474094,326.25527264300933,218.01106301529867,310.67210075022035,372.2891058460833C295.08892885743137,526.567148676868,200.385174549431,562.1453988704482,192.51711219430626,716.9630017639562C184.64904983918152,871.7806046574642,260.8329497095574,1148.571627188339,263.4637266194718,1301.1947232071318C266.0945035293862,1453.8178192259245,212.2123947570379,1489.5673650779015,208.30177365379262,1632.701577876713C204.39115255054733,1775.8357906755243,234.7169622756321,2072.116929646119,240,2160L 1920 2160 L 1920 -1080 Z" fill="url(&quot;#SvgjsLinearGradient2342&quot;)"></path><path d="M480,-1080C473.34896625081194,-976.1561070768537,429.0144051028466,-647.0255808731395,440.0937975048715,-456.9366424611222C451.17318990689637,-266.84770404910483,532.1022887042818,-105.9782910968855,546.4763544121492,60.53363047210408C560.8504201200167,227.04555204109366,534.2610073595283,379.6578321324056,526.3381917520761,542.1348869528154C518.4153761446239,704.6119417732251,514.4062236388803,852.4770714475301,498.93946076743634,1035.3959593945626C483.4726978959924,1218.3148473415952,436.69419131798514,1452.2142078674374,433.5376145234124,1639.6482146350104C430.38103772883966,1827.0822214025834,472.2562690872354,2073.2747024391683,480,2160L 1920 2160 L 1920 -1080 Z" fill="url(&quot;#SvgjsLinearGradient2343&quot;)"></path><path d="M720,-1080C724.9481173678528,-958.683546541911,760.4359311700043,-568.7214446758089,749.6887042071166,-352.1012792514665C738.941477244229,-135.48111382712406,659.6402278898382,3.0200998929412037,655.5166382226739,219.72099254605473C651.3930485555096,436.4218851991683,701.9319606877498,730.8755610187798,724.947166204131,948.1040766672145C747.9623717205122,1165.3325923156492,794.4323990216498,1321.1094325478657,793.6078713209613,1523.0920864366633C792.7833436202728,1725.0747403254609,732.2679785534935,2053.8486810727773,720,2160L 1920 2160 L 1920 -1080 Z" fill="url(&quot;#SvgjsLinearGradient2344&quot;)"></path><path d="M960,-1080C947.7195748302505,-991.0930987851333,895.3081390940089,-721.5001822893736,886.3174489815029,-546.5585927107996C877.326758868997,-371.6170031322257,906.4946681518431,-208.91108859358076,906.0558593249646,-30.350462528556378C905.617050498086,148.21016353646797,869.1828899910681,344.18241919684044,883.6845960202313,524.8051636793465C898.1863020493945,705.4279081618525,983.6933388878517,863.4316594452541,993.0660954999439,1053.3860043664797C1002.4388521120361,1243.3403492877053,945.4321516094416,1480.0955672677799,939.9211356927842,1664.5312332066999C934.4101197761269,1848.96689914562,956.653522615464,2077.4218722011165,960,2160L 1920 2160 L 1920 -1080 Z" fill="url(&quot;#SvgjsLinearGradient2345&quot;)"></path><path d="M1200,-1080C1196.5331924725206,-1024.2013848532285,1164.607110134681,-883.5263721775138,1179.1991548351239,-745.2083091193713C1193.7911995355666,-606.8902460612287,1279.7285418963484,-382.9611715467889,1287.5522682026572,-250.09162165114495C1295.375994508966,-117.22207175550102,1244.238337919765,-85.8404583577891,1226.1415126729771,52.008990254492275C1208.0446874261893,189.85843886677367,1175.6060597183439,436.7804323070941,1178.9713167219295,577.0050700225434C1182.336573725515,717.2297077379926,1234.9566421900586,759.459656001283,1246.3330546944906,893.3568165471877C1257.7094671989225,1027.2539770930925,1269.382934509411,1242.1852029987135,1247.2297917485214,1380.388033297972C1225.0766489876319,1518.5908635972305,1121.28583008724,1592.638470559068,1113.414198129153,1722.5737983427393C1105.542566171066,1852.5091261264106,1185.5690330215255,2087.0956330571235,1200,2160L 1920 2160 L 1920 -1080 Z" fill="url(&quot;#SvgjsLinearGradient2346&quot;)"></path><path d="M1440,-1080C1449.5994641058594,-989.5346255085323,1501.9910247889768,-711.6136251008395,1497.596784635156,-537.2077530511935C1493.202544481335,-362.8018810015476,1412.5338314217418,-201.32839957710576,1413.6345590770752,-33.56476770212417C1414.7352867324087,134.19886417285744,1485.9226072914275,269.7306340491747,1504.2011505671564,469.374038198696C1522.4796938428854,669.0174423482173,1530.1430219510075,965.1117070190924,1523.3058187314493,1164.295657195004C1516.4686155118911,1363.4796073709156,1477.0622343717157,1498.527015453333,1463.1779312498074,1664.4777392541657C1449.2936281278992,1830.4284630549985,1443.8629885416346,2077.412956542361,1440,2160L 1920 2160 L 1920 -1080 Z" fill="url(&quot;#SvgjsLinearGradient2347&quot;)"></path><path d="M1680,-1080C1683.3270396405233,-1004.5152070549425,1704.915151760336,-795.2622255034004,1699.9622378431395,-627.0912423296546C1695.0093239259431,-458.92025915590887,1643.1204233706726,-260.18743846445204,1650.2825164968224,-70.97410095752542C1657.4446096229722,118.23923654940123,1750.6561998154548,322.4212969818823,1742.9347966000387,508.1887827119053C1735.2133933846226,693.9562684419283,1604.1094703828717,857.2021318441624,1603.954097204326,1043.6308134226126C1603.7987240257803,1230.0594950010627,1729.3282403961528,1440.6993410863754,1742.002557528765,1626.7608721826066C1754.6768746613773,1812.8224032788378,1690.3337595881276,2071.1268120304344,1680,2160L 1920 2160 L 1920 -1080 Z" fill="url(&quot;#SvgjsLinearGradient2348&quot;)"></path></g><defs><linearGradient x1="0.1" y1="0" x2="0" y2="1" id="SvgjsLinearGradient2341"><stop stop-color="#000000" offset="0"></stop><stop stop-color="#000000" offset="0"></stop></linearGradient><linearGradient x1="0.1" y1="0" x2="0" y2="1" id="SvgjsLinearGradient2342"><stop stop-color="#202020" offset="0"></stop><stop stop-color="#202020" offset="0.125"></stop></linearGradient><linearGradient x1="0.1" y1="0" x2="0" y2="1" id="SvgjsLinearGradient2343"><stop stop-color="#404040" offset="0"></stop><stop stop-color="#404040" offset="0.25"></stop></linearGradient><linearGradient x1="0.1" y1="0" x2="0" y2="1" id="SvgjsLinearGradient2344"><stop stop-color="#606060" offset="0"></stop><stop stop-color="#606060" offset="0.375"></stop></linearGradient><linearGradient x1="0.1" y1="0" x2="0" y2="1" id="SvgjsLinearGradient2345"><stop stop-color="#808080" offset="0"></stop><stop stop-color="#808080" offset="0.5"></stop></linearGradient><linearGradient x1="0.1" y1="0" x2="0" y2="1" id="SvgjsLinearGradient2346"><stop stop-color="#9f9f9f" offset="0"></stop><stop stop-color="#9f9f9f" offset="0.625"></stop></linearGradient><linearGradient x1="0.1" y1="0" x2="0" y2="1" id="SvgjsLinearGradient2347"><stop stop-color="#bfbfbf" offset="0"></stop><stop stop-color="#bfbfbf" offset="0.75"></stop></linearGradient><linearGradient x1="0.1" y1="0" x2="0" y2="1" id="SvgjsLinearGradient2348"><stop stop-color="#dfdfdf" offset="0"></stop><stop stop-color="#dfdfdf" offset="0.875"></stop></linearGradient></defs></svg>