<svg width="64" height="64" viewBox="0 0 64 64" fill="none" xmlns="http://www.w3.org/2000/svg">
<ellipse cx="31.3984" cy="33.2909" rx="31.3984" ry="30.7091" fill="black"/>
<rect x="9.81177" y="25.8222" width="43.1728" height="26.8705" rx="3" fill="#383838"/>
<path d="M52.2711 26.6187C52.3901 26.6962 52.4444 26.7516 52.4683 26.7819C52.4444 26.8122 52.3901 26.8675 52.2711 26.9451C52.0397 27.096 51.6658 27.2604 51.1366 27.4272C50.0853 27.7587 48.5381 28.0644 46.5954 28.3235C42.7172 28.8407 37.344 29.1623 31.3981 29.1623C25.4523 29.1623 20.079 28.8407 16.2009 28.3235C14.2582 28.0644 12.711 27.7587 11.6597 27.4272C11.1305 27.2604 10.7566 27.0959 10.5252 26.9451C10.4061 26.8675 10.3519 26.8122 10.328 26.7819C10.3519 26.7516 10.4061 26.6962 10.5252 26.6187C10.7566 26.4678 11.1305 26.3034 11.6597 26.1365C12.711 25.805 14.2582 25.4994 16.2009 25.2403C20.079 24.7231 25.4523 24.4015 31.3981 24.4015C37.344 24.4015 42.7172 24.7231 46.5954 25.2403C48.5381 25.4994 50.0853 25.805 51.1366 26.1365C51.6658 26.3034 52.0397 26.4678 52.2711 26.6187Z" fill="#AB3C24" stroke="#7B7B7B"/>
<ellipse cx="0.979771" cy="8.55477" rx="0.979771" ry="8.55477" transform="matrix(0.967334 0.253506 -0.264227 0.964461 41.8074 6.6688)" fill="#DC9049"/>
<ellipse cx="1.95954" cy="4.80559" rx="1.95954" ry="4.80559" transform="matrix(0.967334 0.253506 -0.264227 0.964461 37.8623 17.3602)" fill="#DC9049"/>
<ellipse cx="0.979771" cy="3.84447" rx="0.979771" ry="3.84447" transform="matrix(0.967334 0.253506 -0.264227 0.964461 38.5564 18.5355)" fill="#A5784E"/>
<path d="M17.6614 27.2617L20.1144 26.7819L22.5674 27.2617L24.5298 27.2617L26.4922 27.7415L28.9452 27.2617" stroke="#D38181"/>
<path d="M26.0018 10.4677L26.4924 12.8668L26.0018 15.266L26.0018 17.1853L25.5112 19.1046L26.0018 21.5038" stroke="white"/>
<path d="M30.9078 14.3063L31.3984 16.7055L30.9078 19.1046L30.9078 21.0239L30.4172 22.9433L30.9078 25.3424" stroke="white"/>
<path d="M28.9454 7.5887L29.436 9.98785L28.9454 12.387L28.9454 14.3063L28.4548 16.2256L28.9454 18.6248" stroke="white"/>
<path d="M28.5549 25.5569L29.9181 25.4174L31.0273 26.2049L32.0163 26.464L32.8783 27.1867L34.2415 27.0472" stroke="#539149"/>
<path d="M39.3748 27.776L40.484 26.9885L41.8472 27.128L42.8362 26.8689L43.9521 27.0732L45.0614 26.2857" stroke="#6A2256"/>
<rect width="2.93931" height="5.7667" rx="1.46966" transform="matrix(0.967334 0.253506 -0.264227 0.964461 52.5461 29.6609)" fill="#7B7B7B"/>
<rect width="2.93931" height="5.7667" rx="1.46966" transform="matrix(0.967334 -0.253506 0.264227 0.964461 6.86841 30.406)" fill="#7B7B7B"/>
</svg>
