<svg xmlns="http://www.w3.org/2000/svg" version="1.1" xmlns:xlink="http://www.w3.org/1999/xlink" xmlns:svgjs="http://svgjs.dev/svgjs" viewBox="0 0 1920 1080"><rect width="1920" height="1080" fill="#000000"></rect><g transform="matrix(0.8131727983645296,0.8131727983645295,-0.8131727983645295,0.8131727983645296,610.5670637577896,-645.3725635418202)"><path d="M0,-1080C-0.025534358260955514,-976.6328988844797,13.720699397929337,-665.8088379722432,-0.15320614956573309,-459.797393306878C-14.027111697060803,-253.78594864151285,-95.9328413941115,-67.64400126735089,-83.24343328497042,156.06866799219094C-70.55402517582934,379.7813372517328,64.38514503426319,656.9060590739915,75.9832425052808,882.478622250373C87.58133997629841,1108.0511854267543,-0.9909747079846571,1296.5838174255418,-13.654848458864791,1509.5040470504796C-26.318722209744926,1722.4242766754173,-2.2758080764774653,2051.584007841747,0,2160L 1920 2160 L 1920 -1080 Z" fill="url(&quot;#SvgjsLinearGradient2269&quot;)"></path><path d="M240,-1080C248.79614365110342,-946.6637568374496,305.77757892281534,-544.7506048646892,292.7768619066205,-279.9825410246971C279.7761448904257,-15.214477184705117,167.50985661854094,224.36464753453419,161.99569790283118,508.6083830399522C156.48153918712143,792.8521185453701,246.69119259616713,1150.2479358478029,259.69190961236194,1425.4798720078109C272.69262662855675,1700.7118081678188,243.28198493539367,2037.5799786679686,240,2160L 1920 2160 L 1920 -1080 Z" fill="url(&quot;#SvgjsLinearGradient2270&quot;)"></path><path d="M480,-1080C489.84142327333205,-973.656564940458,531.1579559210916,-655.2342965961809,539.0485396399923,-441.939389642748C546.9391233588931,-228.64448268931508,522.6525573661951,-12.510475908651813,527.3435023134048,199.76944172059737C532.0344472606145,412.04935934984655,583.2018895070257,623.7533515557966,567.1942093232502,831.7401161327471C551.1865291394747,1039.7268807096975,445.8297894312933,1226.3133818710912,431.2974212107516,1447.6900291823001C416.76505299020994,1669.066676493509,471.88290353512525,2041.2816715303834,480,2160L 1920 2160 L 1920 -1080 Z" fill="url(&quot;#SvgjsLinearGradient2271&quot;)"></path><path d="M720,-1080C729.4684286267446,-969.8724435807644,785.7124197519333,-621.5277404519821,776.8105717604681,-419.2346614845868C767.9087237690028,-216.94158251719148,678.2777074900952,-84.88113036970933,666.5889120512084,133.75847380437187C654.9001166123215,352.3980779784531,705.4656976334501,662.4596553720509,706.677799127147,892.6029635599002C707.8899006208438,1122.7462717477495,671.6411542012474,1303.3854835247844,673.8615210133896,1514.6183229314677C676.0818878255318,1725.851162338151,712.3102535022316,2052.4363871552446,720,2160L 1920 2160 L 1920 -1080 Z" fill="url(&quot;#SvgjsLinearGradient2272&quot;)"></path><path d="M960,-1080C961.1091030540755,-1009.9212370920291,974.5754623634483,-784.7508564056518,966.6546183244532,-659.5274225521741C958.733774285458,-534.3039886986965,917.478438477981,-451.17881762753586,912.4749357660289,-328.6593968791339C907.4714330540769,-206.13997613073195,920.1171640794751,-62.16458476020324,936.6336020527409,75.58910193823746C953.1500400260068,213.34278863667816,1017.4408127182586,351.8172620931799,1011.5735636056239,497.86272331151025C1005.7063144929892,643.9081845298406,904.2374942467093,817.515807324859,901.430107376933,951.8618692482195C898.6227205071568,1086.20793117158,986.3992323519842,1178.1879171541245,994.7292423869669,1303.939094851673C1003.0592524219496,1429.6902725492214,957.1983746513238,1563.6921179087885,951.4101675868293,1706.3689354335097C945.6219605223348,1849.0457529582309,958.5683612644716,2084.3948225722515,960,2160L 1920 2160 L 1920 -1080 Z" fill="url(&quot;#SvgjsLinearGradient2273&quot;)"></path><path d="M1200,-1080C1213.641270385794,-998.3913716409915,1288.5419249803458,-767.0520938891216,1281.847622314765,-590.3482298459487C1275.1533196491841,-413.64436580277584,1183.7713327008244,-205.06887064458493,1159.8341840065157,-19.7768157409631C1135.897035312207,165.51523916265876,1127.5406832427825,347.1726844361284,1138.2247301489126,521.4040995757823C1148.9087770550427,695.6355147154362,1214.0185294173948,848.5978641118716,1223.9384654432956,1025.6116750969602C1233.8584014691965,1202.6254860820488,1201.734090544867,1394.4222446691408,1197.7443463043178,1583.4869654863141C1193.7546020637685,1772.5516863034875,1199.6240577173862,2063.914494247719,1200,2160L 1920 2160 L 1920 -1080 Z" fill="url(&quot;#SvgjsLinearGradient2274&quot;)"></path><path d="M1440,-1080C1437.7626380486918,-975.5078809537681,1419.610266597012,-634.7674522482332,1426.5758282921508,-453.04728572260836C1433.5413899872897,-271.3271191969836,1481.8907786873162,-166.60998187866244,1481.7933701708325,10.320999153748815C1481.6959616543488,187.2519801861601,1423.1185806800295,438.3458300287402,1425.9913771932481,608.5386004718591C1428.8641737064668,778.731370914978,1491.169718305816,866.2256968847128,1499.030149250145,1031.4776218124625C1506.890580194474,1196.7295467402123,1482.99232106758,1411.9630870071014,1473.1539628592225,1600.0501500383577C1463.315604650865,1788.137213069614,1445.525660476537,2066.675025006393,1440,2160L 1920 2160 L 1920 -1080 Z" fill="url(&quot;#SvgjsLinearGradient2275&quot;)"></path><path d="M1680,-1080C1670.5646355535976,-996.4695858734092,1626.3149286193625,-733.9808145907162,1623.3878133215856,-578.8175152404555C1620.4606980238086,-423.6542158901947,1644.739860701431,-302.154451188291,1662.437308213339,-149.02020389843548C1680.134755725247,4.114043391419983,1730.6242509909719,188.07699914201547,1729.5724983930338,339.98796849867733C1728.5207457950958,491.8989378553392,1651.0409087299336,621.1025757433243,1656.1267926257106,762.4456122415357C1661.2126765214875,903.7886487397471,1744.655255999653,1017.7722291186749,1760.0878017676955,1188.0461874879459C1775.520347535738,1358.3201458572169,1762.0700341952472,1622.0970603718197,1748.7220672339647,1784.089362457162C1735.3741002726822,1946.0816645425043,1691.4536778723275,2097.348227076194,1680,2160L 1920 2160 L 1920 -1080 Z" fill="url(&quot;#SvgjsLinearGradient2276&quot;)"></path></g><defs><linearGradient x1="0.1" y1="0" x2="0" y2="1" id="SvgjsLinearGradient2269"><stop stop-color="#000000" offset="0"></stop><stop stop-color="#000000" offset="0"></stop></linearGradient><linearGradient x1="0.1" y1="0" x2="0" y2="1" id="SvgjsLinearGradient2270"><stop stop-color="#202020" offset="0"></stop><stop stop-color="#202020" offset="0.125"></stop></linearGradient><linearGradient x1="0.1" y1="0" x2="0" y2="1" id="SvgjsLinearGradient2271"><stop stop-color="#404040" offset="0"></stop><stop stop-color="#404040" offset="0.25"></stop></linearGradient><linearGradient x1="0.1" y1="0" x2="0" y2="1" id="SvgjsLinearGradient2272"><stop stop-color="#606060" offset="0"></stop><stop stop-color="#606060" offset="0.375"></stop></linearGradient><linearGradient x1="0.1" y1="0" x2="0" y2="1" id="SvgjsLinearGradient2273"><stop stop-color="#808080" offset="0"></stop><stop stop-color="#808080" offset="0.5"></stop></linearGradient><linearGradient x1="0.1" y1="0" x2="0" y2="1" id="SvgjsLinearGradient2274"><stop stop-color="#9f9f9f" offset="0"></stop><stop stop-color="#9f9f9f" offset="0.625"></stop></linearGradient><linearGradient x1="0.1" y1="0" x2="0" y2="1" id="SvgjsLinearGradient2275"><stop stop-color="#bfbfbf" offset="0"></stop><stop stop-color="#bfbfbf" offset="0.75"></stop></linearGradient><linearGradient x1="0.1" y1="0" x2="0" y2="1" id="SvgjsLinearGradient2276"><stop stop-color="#dfdfdf" offset="0"></stop><stop stop-color="#dfdfdf" offset="0.875"></stop></linearGradient></defs></svg>