<svg xmlns="http://www.w3.org/2000/svg" version="1.1" xmlns:xlink="http://www.w3.org/1999/xlink" xmlns:svgjs="http://svgjs.dev/svgjs" viewBox="0 0 1920 1080"><rect width="1920" height="1080" fill="#000000"></rect><g transform="matrix(0.8131727983645296,0.8131727983645295,-0.8131727983645295,0.8131727983645296,614.0716502569987,-660.6264151529626)"><path d="M0,-1080C13.118844067647737,-953.9047276778294,86.36009204352331,-579.0847760844285,78.71306440588643,-323.42836606697665C71.06603676824955,-67.77195604952476,-35.30799464928768,174.43944223535772,-45.88216582582125,453.9384601047112C-56.456337002354815,733.4374779740647,7.6210097090481455,1069.2221511665964,15.26803734668502,1353.5657411491445C22.915064984321894,1637.9093311316926,2.54467289111417,2025.5942901915241,0,2160L 1920 2160 L 1920 -1080 Z" fill="url(&quot;#SvgjsLinearGradient2309&quot;)"></path><path d="M240,-1080C238.575148695757,-991.2498693158855,225.22057999845075,-689.7580291880183,231.45089217454208,-547.4992158953128C237.6812043506334,-405.2404026026073,287.7626726300791,-371.597558181401,277.38187305654805,-226.447120243767C267.00107348301697,-81.296682306133,169.1851883249302,155.17603675214164,169.16609473335564,323.40341173049114C169.14700114178106,491.6307867088407,256.416260048512,637.4164930048997,277.26731150710066,782.91712962633C298.1183629656893,928.4177662477604,295.94018123407375,1048.5657178787453,294.2724034848874,1196.4072314590733C292.604625735701,1344.2487450394012,276.30604559279703,1509.367416351477,267.2606450119825,1669.9662111082982C258.21524443116795,1830.5650058651195,244.54344083533041,2078.327701851383,240,2160L 1920 2160 L 1920 -1080 Z" fill="url(&quot;#SvgjsLinearGradient2310&quot;)"></path><path d="M480,-1080C481.69709276761176,-1014.439646050652,492.61927358954205,-826.9874284654537,490.18255660567047,-686.6378763039115C487.7458396217989,-546.2883241423693,468.81276949568314,-385.2659506588447,465.3796980967706,-237.90268703074682C461.94662669785805,-90.53942340264894,470.5403455150552,63.42713285430369,469.58412821219537,197.5417054646757C468.6279109093355,331.6562780750477,444.8150854785652,432.1193104396267,459.6423942796116,566.7847486314852C474.469703080658,701.4501868233436,552.0760334052476,881.2908306670226,558.5479810184737,1005.5343346158268C565.0199286316998,1129.7778385646309,515.8351846988055,1175.2079507752142,498.4740799589684,1312.2457723243099C481.1129752191313,1449.2835938734056,457.46036590594576,1686.46889263112,454.381352579451,1827.7612639104018C451.30233925295624,1969.0536351896835,475.7302254299085,2104.6268773184,480,2160L 1920 2160 L 1920 -1080 Z" fill="url(&quot;#SvgjsLinearGradient2311&quot;)"></path><path d="M720,-1080C713.5298801526897,-996.2254073744958,668.5039332476501,-771.3779824341259,681.1792809161377,-577.3524442469749C693.8546285846253,-383.32690605982384,803.1210206943588,-92.19280692485546,796.0520860109257,84.15322912290645C788.9831513274926,260.49926517066837,657.1115312367608,320.8070334466323,638.7656728155393,480.72377203959655C620.4198143943179,640.6405106325608,679.8352344781531,868.2515747831949,685.9769354835965,1043.653660680692C692.11863648904,1219.055746578189,669.9453680954658,1347.078564204694,675.6158788481997,1533.1362874245785C681.2863896009336,1719.194010644463,712.6026464746999,2055.522714570763,720,2160L 1920 2160 L 1920 -1080 Z" fill="url(&quot;#SvgjsLinearGradient2312&quot;)"></path><path d="M960,-1080C945.7534140492573,-1005.0473091265949,860.5882206378354,-773.9536026220279,874.5204842955438,-630.2838547595694C888.4527479532522,-486.6141068971109,1042.1784406053903,-383.8529021770315,1043.5935819462504,-217.98151282524907C1045.0087232871106,-52.110123473466615,908.2367220365653,210.96917316760045,883.0113323407045,364.9444813511254C857.7859426448437,518.9197895346504,870.4572620025805,559.130930278971,892.2412437710852,705.8703362759005C914.02522553959,852.60974227283,1002.2050808217662,1085.6981638821767,1013.7152229517333,1245.3809173327024C1025.2253650817004,1405.0636707832282,970.2546337095105,1511.5303432011717,961.3020965508882,1663.9668569790547C952.349559392266,1816.4033707569376,960.2170160918147,2077.327809496509,960,2160L 1920 2160 L 1920 -1080 Z" fill="url(&quot;#SvgjsLinearGradient2313&quot;)"></path><path d="M1200,-1080C1188.53578192136,-1004.2201275086179,1130.7379441271682,-793.3936364868539,1131.2146915281608,-625.3207650517071C1131.6914389291533,-457.2478936165603,1193.7142911332492,-226.21246706926945,1202.8604844059548,-71.56277138911938C1212.0066776786605,83.0869242910307,1175.3681521793512,173.181835358371,1186.0918511643947,302.5774090291934C1196.8155501494382,431.9729827000158,1263.8356406322464,558.5138050968658,1267.202678316216,704.8106706358152C1270.5697160001855,851.1075361747646,1220.344556622681,1020.1086111041798,1206.2940772682114,1180.3586022628901C1192.2435979137417,1340.6085934216005,1183.9488150674329,1503.0370512985587,1182.8998021893976,1666.310617588077C1181.8507893113624,1829.5841838775955,1197.1499670315663,2077.7184362646794,1200,2160L 1920 2160 L 1920 -1080 Z" fill="url(&quot;#SvgjsLinearGradient2314&quot;)"></path><path d="M1440,-1080C1440.977165078593,-1011.4827135336509,1457.3629544470236,-825.205373749084,1445.8629904715588,-668.8962812019057C1434.3630264960939,-512.5871886547275,1363.4879533520768,-307.1626971563095,1371.0002161472107,-142.1454447169304C1378.5124789423446,22.871807722448665,1483.5338802515803,171.5872755884488,1490.936567242362,321.2072334343688C1498.3392542331435,470.8271912802888,1434.658263689238,602.5403120557918,1415.4163380919001,755.5743023585896C1396.1744124945621,908.6082926613875,1358.7016432112648,1070.9635978542092,1375.4850136583348,1239.4111752511562C1392.2683841054047,1407.8587526481033,1505.3640630507093,1612.8282959487983,1516.11656077432,1766.2597667402722C1526.8690584979308,1919.691237531746,1452.6860934623867,2094.3766277900454,1440,2160L 1920 2160 L 1920 -1080 Z" fill="url(&quot;#SvgjsLinearGradient2315&quot;)"></path><path d="M1680,-1080C1690.4942151478083,-1004.517707797024,1745.2236272889909,-782.0532182237499,1742.9652908868493,-627.1062467821434C1740.7069544847077,-472.15927534053696,1677.5025167542342,-295.5535482863145,1666.44998158715,-150.3181713503609C1655.3974464200658,-5.082794414407289,1670.8420334954699,77.93491498557796,1676.6500798843442,244.30601483357833C1682.4581262732186,410.6771146815787,1699.9263878329934,669.7669700018349,1701.2982599203967,847.9084277376413C1702.6701320078,1026.0498854734478,1686.2316155044011,1163.368847864358,1684.8813124087646,1313.154761248417C1683.5310093131282,1462.9406746324757,1694.0099934147056,1605.4830349167303,1693.1964413465782,1746.6239080419941C1692.3828892784509,1887.764781167258,1682.1994068910963,2091.1039846736658,1680,2160L 1920 2160 L 1920 -1080 Z" fill="url(&quot;#SvgjsLinearGradient2316&quot;)"></path></g><defs><linearGradient x1="0.1" y1="0" x2="0" y2="1" id="SvgjsLinearGradient2309"><stop stop-color="#000000" offset="0"></stop><stop stop-color="#000000" offset="0"></stop></linearGradient><linearGradient x1="0.1" y1="0" x2="0" y2="1" id="SvgjsLinearGradient2310"><stop stop-color="#202020" offset="0"></stop><stop stop-color="#202020" offset="0.125"></stop></linearGradient><linearGradient x1="0.1" y1="0" x2="0" y2="1" id="SvgjsLinearGradient2311"><stop stop-color="#404040" offset="0"></stop><stop stop-color="#404040" offset="0.25"></stop></linearGradient><linearGradient x1="0.1" y1="0" x2="0" y2="1" id="SvgjsLinearGradient2312"><stop stop-color="#606060" offset="0"></stop><stop stop-color="#606060" offset="0.375"></stop></linearGradient><linearGradient x1="0.1" y1="0" x2="0" y2="1" id="SvgjsLinearGradient2313"><stop stop-color="#808080" offset="0"></stop><stop stop-color="#808080" offset="0.5"></stop></linearGradient><linearGradient x1="0.1" y1="0" x2="0" y2="1" id="SvgjsLinearGradient2314"><stop stop-color="#9f9f9f" offset="0"></stop><stop stop-color="#9f9f9f" offset="0.625"></stop></linearGradient><linearGradient x1="0.1" y1="0" x2="0" y2="1" id="SvgjsLinearGradient2315"><stop stop-color="#bfbfbf" offset="0"></stop><stop stop-color="#bfbfbf" offset="0.75"></stop></linearGradient><linearGradient x1="0.1" y1="0" x2="0" y2="1" id="SvgjsLinearGradient2316"><stop stop-color="#dfdfdf" offset="0"></stop><stop stop-color="#dfdfdf" offset="0.875"></stop></linearGradient></defs></svg>