<svg xmlns="http://www.w3.org/2000/svg" version="1.1" xmlns:xlink="http://www.w3.org/1999/xlink" xmlns:svgjs="http://svgjs.dev/svgjs" viewBox="0 0 1920 1080"><rect width="1920" height="1080" fill="#000000"></rect><g transform="matrix(0.8131727983645296,0.8131727983645295,-0.8131727983645295,0.8131727983645296,614.3241688743583,-661.725512441365)"><path d="M0,-1080C13.127012895443352,-1009.0489443940205,80.79569478218453,-801.3647699546619,78.76207737266012,-654.2936663641228C76.7284599631357,-507.2225627735837,-3.4611058208134438,-357.0256552836336,-12.20170445714649,-197.57337845676534C-20.942303093479538,-38.121101629897055,15.475940624234093,145.6935407056575,26.318485554661834,302.4199945970869C37.161030485089576,459.1464484885163,46.787420866899545,592.5612694997665,52.85356512541995,742.785344891811C58.91970938394035,893.0094202838554,78.66095319333289,1052.7568490247459,62.715351105784265,1203.764446949354C46.76974901823564,1354.772044873962,-32.367488882241055,1489.4583402643511,-42.82004739987177,1648.8309324394588C-53.27260591750248,1808.2035246145665,-7.136674566645294,2074.8051554065764,0,2160L 1920 2160 L 1920 -1080 Z" fill="url(&quot;#SvgjsLinearGradient2277&quot;)"></path><path d="M240,-1080C241.73032038519466,-987.8824183340898,260.4064113876705,-710.1061311722773,250.381922311168,-527.2945100045387C240.3574332346655,-344.48288883680004,183.3427841387176,-167.415991619852,179.85306554098497,16.869727006431503C176.36334694325234,201.15544563271501,214.17128199122,400.98123853050686,229.44361072477227,578.4198017531623C244.71593945832453,755.8583649758178,270.902667831472,907.8849591662994,271.48703794229857,1081.5011063423642C272.07140805312514,1255.1172535184292,238.1976710467815,1440.3668691999455,232.94983138973174,1620.1166848095515C227.701991732682,1799.8665004191575,238.82497189828862,2070.0194474682585,240,2160L 1920 2160 L 1920 -1080 Z" fill="url(&quot;#SvgjsLinearGradient2278&quot;)"></path><path d="M480,-1080C485.56531935334675,-1001.4226463464015,514.0925035060105,-737.9316126648782,513.3919161200806,-608.535878078409C512.6913287341507,-479.1401434919398,492.2319817300489,-442.1579921731533,475.79647568442044,-303.6255924811845C459.36096963879197,-165.09319278921578,414.68859680879615,84.62802108854532,414.7788798463097,222.65852007340342C414.8691628838232,360.6890190582615,454.24395456016504,389.8317190197,476.33817390950173,524.557401427964C498.43239325883843,659.283083836228,552.2342713980746,888.3581237703623,547.34419594233,1031.0126145229872C542.4541204865853,1173.6671052756121,451.0016427628258,1258.2924621690659,446.99772117503403,1380.4843459437132C442.9937995872423,1502.6762297183604,517.8202866114184,1634.2446414948238,523.3206664155794,1764.1639171708716C528.8210462197403,1894.0831928469195,487.2201110692632,2094.0273195284785,480,2160L 1920 2160 L 1920 -1080 Z" fill="url(&quot;#SvgjsLinearGradient2279&quot;)"></path><path d="M720,-1080C715.7628598110341,-1001.0308370648531,682.7689489232959,-746.8695378351374,694.5771588662047,-606.185022389119C706.3853688091136,-465.5005069431007,799.1506146832542,-388.0830020467944,790.8492596574533,-235.89290732388997C782.5479046316525,-83.70281260098554,668.6508261115407,132.9839039607249,644.7690287113996,306.95554594830753C620.8872313112586,480.9271879358902,646.8552647255935,656.3377685545933,647.5584752566069,807.936944601606C648.2616857876203,959.5361206486187,650.3627316084232,1081.6168482226358,648.9882918974799,1216.550602230384C647.6138521865366,1351.484356238132,627.476552307194,1460.2979023531593,639.3118369909473,1617.5394686480954C651.1471216747007,1774.7810349430315,706.5519728318245,2069.589911441349,720,2160L 1920 2160 L 1920 -1080 Z" fill="url(&quot;#SvgjsLinearGradient2280&quot;)"></path><path d="M960,-1080C970.7818480863449,-962.2523986821734,1038.7185599988818,-578.9852292112793,1024.6910885180694,-373.5143920930404C1010.6636170372569,-168.04355497480148,899.3363280029878,-42.73329377097059,875.8351711151257,152.82502270943337C852.3340142272637,348.38333918983733,876.2004923940347,587.3341709535633,883.6841471908966,799.8355067893833C891.1678019877586,1012.3368426252033,908.01779109478,1201.1389555225837,920.7370998962972,1427.8330377243533C933.4564086978144,1654.5271199261229,953.4561833160495,2037.9721729540588,960,2160L 1920 2160 L 1920 -1080 Z" fill="url(&quot;#SvgjsLinearGradient2281&quot;)"></path><path d="M1200,-1080C1205.8135789776848,-1015.465543927714,1241.3262959510698,-836.3528489816904,1234.881473866109,-692.793263566284C1228.4366517811482,-549.2336781508777,1168.3134558177007,-375.23324543086557,1161.3310674902345,-218.64248750756192C1154.3486791627683,-62.05172958425828,1199.0085997273368,82.49369221147913,1192.9871439013123,246.7512839735379C1186.9656880752877,411.0088757355967,1134.9848278945565,590.2239890935957,1125.2023325340876,766.9030630647908C1115.4198371736188,943.5821370359859,1130.7832661369282,1138.1400204210015,1134.2921717384986,1306.8257278007081C1137.801077340069,1475.5114351804148,1135.3044614332598,1636.8215953098152,1146.25576614351,1779.0173073430306C1157.2070708537603,1921.213019376246,1191.042627690585,2096.502884557172,1200,2160L 1920 2160 L 1920 -1080 Z" fill="url(&quot;#SvgjsLinearGradient2282&quot;)"></path><path d="M1440,-1080C1439.493469802217,-976.1342532800928,1434.922986005067,-649.0312054774225,1436.9608188133018,-456.8055196805568C1438.9986516215365,-264.5798338836911,1462.4292726435174,-94.21051330774901,1452.2269968494088,73.35411478119406C1442.0247210553002,240.91874287013712,1384.727547716393,384.3899301598915,1375.747164048651,548.5822488531015C1366.766780380909,712.7745675463116,1394.9136801030484,879.3733379301297,1398.3446948429573,1058.5080269404546C1401.7757095828663,1237.6427159507793,1389.390701628598,1439.8083874051267,1396.333252488105,1623.3903829150508C1403.275803347612,1806.972378424975,1432.7222087480175,2070.565063819175,1440,2160L 1920 2160 L 1920 -1080 Z" fill="url(&quot;#SvgjsLinearGradient2283&quot;)"></path><path d="M1680,-1080C1679.4687401456486,-984.333071051285,1664.4940469053927,-694.1607304965728,1676.8124408738909,-505.9984263077095C1689.130834842389,-317.8361221188462,1745.1225048090316,-136.84822599579337,1753.9103638109893,48.97382513317956C1762.698222812947,234.7958762621525,1751.1948498264778,434.7100113216542,1729.5395948856374,608.9338804661281C1707.884339944797,783.1577496106021,1629.2046415126702,923.5258697878642,1623.9788341659473,1094.3170400000236C1618.7530268192245,1265.108210212183,1688.8478898329586,1456.0670750724216,1698.1847508053006,1633.6809017390844C1707.5216117776426,1811.2947284057473,1683.0307918008834,2072.2801502898474,1680,2160L 1920 2160 L 1920 -1080 Z" fill="url(&quot;#SvgjsLinearGradient2284&quot;)"></path></g><defs><linearGradient x1="0.1" y1="0" x2="0" y2="1" id="SvgjsLinearGradient2277"><stop stop-color="#000000" offset="0"></stop><stop stop-color="#000000" offset="0"></stop></linearGradient><linearGradient x1="0.1" y1="0" x2="0" y2="1" id="SvgjsLinearGradient2278"><stop stop-color="#202020" offset="0"></stop><stop stop-color="#202020" offset="0.125"></stop></linearGradient><linearGradient x1="0.1" y1="0" x2="0" y2="1" id="SvgjsLinearGradient2279"><stop stop-color="#404040" offset="0"></stop><stop stop-color="#404040" offset="0.25"></stop></linearGradient><linearGradient x1="0.1" y1="0" x2="0" y2="1" id="SvgjsLinearGradient2280"><stop stop-color="#606060" offset="0"></stop><stop stop-color="#606060" offset="0.375"></stop></linearGradient><linearGradient x1="0.1" y1="0" x2="0" y2="1" id="SvgjsLinearGradient2281"><stop stop-color="#808080" offset="0"></stop><stop stop-color="#808080" offset="0.5"></stop></linearGradient><linearGradient x1="0.1" y1="0" x2="0" y2="1" id="SvgjsLinearGradient2282"><stop stop-color="#9f9f9f" offset="0"></stop><stop stop-color="#9f9f9f" offset="0.625"></stop></linearGradient><linearGradient x1="0.1" y1="0" x2="0" y2="1" id="SvgjsLinearGradient2283"><stop stop-color="#bfbfbf" offset="0"></stop><stop stop-color="#bfbfbf" offset="0.75"></stop></linearGradient><linearGradient x1="0.1" y1="0" x2="0" y2="1" id="SvgjsLinearGradient2284"><stop stop-color="#dfdfdf" offset="0"></stop><stop stop-color="#dfdfdf" offset="0.875"></stop></linearGradient></defs></svg>