<svg xmlns="http://www.w3.org/2000/svg" version="1.1" xmlns:xlink="http://www.w3.org/1999/xlink" xmlns:svgjs="http://svgjs.dev/svgjs" viewBox="0 0 1920 1080"><rect width="1920" height="1080" fill="#000000"></rect><g transform="matrix(0.8131727983645296,0.8131727983645295,-0.8131727983645295,0.8131727983645296,610.5099060827288,-645.1237824961781)"><path d="M0,-1080C-14.107206248382036,-1004.3540192447458,-79.60143853765861,-780.7119623431242,-84.64323749029222,-626.124115468475C-89.68503644292583,-471.53626859382575,-58.663365488508845,-322.33502789550323,-30.250793715801706,-152.47291875210436C-1.8382219430945632,17.389190391294477,90.24076440299933,251.99888364772164,85.83219314595064,393.0485393919181C81.42362188890195,534.0981951361146,-47.62930731128718,550.0792994429488,-56.70222125809385,693.8250157130743C-65.77513520490052,837.5707319831998,31.360464418297234,1091.6959500601872,31.394709465110594,1255.5228370126713C31.428954511923955,1419.3497239651554,-51.26429939969525,1526.040143596757,-56.49675097721368,1676.7863374279784C-61.72920255473211,1827.5325312592,-9.416125162868946,2079.46438957133,0,2160L 1920 2160 L 1920 -1080 Z" fill="url(&quot;#SvgjsLinearGradient2261&quot;)"></path><path d="M240,-1080C247.78451801932331,-1002.6533485527993,275.5645202116723,-791.8008647159638,286.7071081159399,-615.9200913167963C297.8496960202075,-440.03931791762875,310.301774556537,-215.61486575133662,306.8555274256056,-24.71535960499498C303.4092802946742,166.18414654134668,278.5336173449516,343.2791823102656,266.0296253303517,529.4769455612536C253.52563331575178,715.6747088122416,229.87607813957666,911.1140369784534,231.83157533800613,1092.4712199009334C233.7870725364356,1273.8284028234134,276.4012044105962,1439.698579746289,277.76260852092855,1617.6200430961333C279.1240126312609,1795.5415064459776,246.29376808682142,2069.6033405160224,240,2160L 1920 2160 L 1920 -1080 Z" fill="url(&quot;#SvgjsLinearGradient2262&quot;)"></path><path d="M480,-1080C473.555953893785,-1018.4194263549574,452.37192868015137,-849.5677849203375,441.33572336270987,-710.5165581297443C430.29951804526837,-571.4653313391511,404.2892512274037,-391.1042651443829,413.7827680953511,-245.69263925644114C423.2762849632985,-100.28101336849937,477.67877424402394,41.0992581552169,498.29682457039405,161.95319719790635C518.9148748967641,282.8071362405958,552.5182966325912,359.1689276503916,537.4910700535718,479.4309949996956C522.4638434745524,599.6930623489995,432.2146413893893,747.3775540412737,408.1334650962777,883.5256012937303C384.05228880316605,1019.673648546187,394.7624805499477,1147.8958998668486,393.0040122949018,1296.3192785144356C391.24554403985593,1444.7426571620226,383.0833242818194,1630.1190862649912,397.5826555660024,1774.0658731792519C412.08198685018544,1918.0126600935125,466.2637759276671,2095.6776455298755,480,2160L 1920 2160 L 1920 -1080 Z" fill="url(&quot;#SvgjsLinearGradient2263&quot;)"></path><path d="M720,-1080C706.1522186430752,-996.8957732454447,644.1408580378604,-764.6478282552799,636.9133118584513,-581.3746394726686C629.6857656790421,-398.1014506900573,652.1240884791503,-165.80104499131514,676.6347229235447,19.63913269566831C701.1453573679391,205.07931038265176,766.5511289643584,362.95293000643056,783.9771185248183,531.266426649232C801.4031080852781,699.5799232920335,801.8429282079042,861.9578712653167,781.1906602863039,1029.520112552477C760.5383923647037,1197.0823538396373,670.2619543762678,1348.2265597976066,660.0635109952171,1536.6398743721938C649.8650676141665,1725.0531889467811,710.0105851658695,2056.106645728699,720,2160L 1920 2160 L 1920 -1080 Z" fill="url(&quot;#SvgjsLinearGradient2264&quot;)"></path><path d="M960,-1080C970.3709671835113,-957.7841098570179,1009.8362390459522,-548.0771548157136,1022.2258031010676,-346.70465914210774C1034.615367156183,-145.33216346850188,1056.1131892142178,-77.46513328555815,1034.3373843306927,128.23497404163527C1012.5615794471674,333.9350813688287,890.563173104379,645.9770153255644,891.5709737999165,887.4959848210528C892.578774495454,1129.0149543165414,1028.979350803904,1365.2647884847418,1040.384188503918,1577.3487910145664C1051.789026203932,1789.432793544391,973.397364750653,2062.8914651690943,960,2160L 1920 2160 L 1920 -1080 Z" fill="url(&quot;#SvgjsLinearGradient2265&quot;)"></path><path d="M1200,-1080C1197.644401245473,-942.5104131379215,1195.5928550296148,-520.8588848064235,1185.8664074728388,-255.06247882752933C1176.1399599160627,10.73392715136481,1132.9897945522002,248.919663162497,1141.6413146593443,514.7784358733647C1150.2928347664883,780.6372085842324,1228.049080558927,1065.8865634165716,1237.775528115703,1340.0901574376774C1247.5019756724791,1614.2937514587832,1206.2959213526171,2023.3483595729463,1200,2160L 1920 2160 L 1920 -1080 Z" fill="url(&quot;#SvgjsLinearGradient2266&quot;)"></path><path d="M1440,-1080C1447.4937745666577,-998.733547646488,1497.9876137117485,-713.1679895649244,1484.962647399946,-592.4012858789281C1471.9376810881436,-471.6345821929318,1377.575267037313,-463.8516731186575,1361.8502021291854,-355.39977788402234C1346.1251372210577,-246.94788264938717,1382.0432933725076,-98.40602300360919,1390.6122579511791,58.31008552888278C1399.1812225298506,215.02619406137475,1398.8144648265238,446.03248482414904,1413.263989601214,584.8968733109294C1427.7135143759042,723.7612617977098,1483.3309228975313,765.25970225813,1477.30940659932,891.4964164495651C1471.2878903011087,1017.7331306410002,1387.4764732059166,1193.56343085615,1377.1348918119463,1342.3171584595402C1366.793310417976,1491.0708860629304,1404.7824002041555,1647.7383084798291,1415.2599182354977,1784.0187820699057C1425.73743626684,1920.2992556599822,1435.8766530392495,2097.3364636783176,1440,2160L 1920 2160 L 1920 -1080 Z" fill="url(&quot;#SvgjsLinearGradient2267&quot;)"></path><path d="M1680,-1080C1690.840586339139,-975.8912945350003,1756.4699776936714,-679.842558758198,1745.043518034834,-455.34776721000156C1733.6170583759967,-230.85297566180515,1619.4140897493558,58.609237057140376,1611.441242046976,266.9687492891786C1603.4683943445962,475.32826152121686,1679.1964513821674,579.3883497637554,1697.206431820556,794.8093061822278C1715.2164122589445,1010.2302626007003,1722.3688633140669,1331.9627054970508,1719.5011246773074,1559.4944878000128C1716.633386040548,1787.0262701029749,1686.5835207795512,2059.9157479666687,1680,2160L 1920 2160 L 1920 -1080 Z" fill="url(&quot;#SvgjsLinearGradient2268&quot;)"></path></g><defs><linearGradient x1="0.1" y1="0" x2="0" y2="1" id="SvgjsLinearGradient2261"><stop stop-color="#000000" offset="0"></stop><stop stop-color="#000000" offset="0"></stop></linearGradient><linearGradient x1="0.1" y1="0" x2="0" y2="1" id="SvgjsLinearGradient2262"><stop stop-color="#202020" offset="0"></stop><stop stop-color="#202020" offset="0.125"></stop></linearGradient><linearGradient x1="0.1" y1="0" x2="0" y2="1" id="SvgjsLinearGradient2263"><stop stop-color="#404040" offset="0"></stop><stop stop-color="#404040" offset="0.25"></stop></linearGradient><linearGradient x1="0.1" y1="0" x2="0" y2="1" id="SvgjsLinearGradient2264"><stop stop-color="#606060" offset="0"></stop><stop stop-color="#606060" offset="0.375"></stop></linearGradient><linearGradient x1="0.1" y1="0" x2="0" y2="1" id="SvgjsLinearGradient2265"><stop stop-color="#808080" offset="0"></stop><stop stop-color="#808080" offset="0.5"></stop></linearGradient><linearGradient x1="0.1" y1="0" x2="0" y2="1" id="SvgjsLinearGradient2266"><stop stop-color="#9f9f9f" offset="0"></stop><stop stop-color="#9f9f9f" offset="0.625"></stop></linearGradient><linearGradient x1="0.1" y1="0" x2="0" y2="1" id="SvgjsLinearGradient2267"><stop stop-color="#bfbfbf" offset="0"></stop><stop stop-color="#bfbfbf" offset="0.75"></stop></linearGradient><linearGradient x1="0.1" y1="0" x2="0" y2="1" id="SvgjsLinearGradient2268"><stop stop-color="#dfdfdf" offset="0"></stop><stop stop-color="#dfdfdf" offset="0.875"></stop></linearGradient></defs></svg>