<svg xmlns="http://www.w3.org/2000/svg" version="1.1" xmlns:xlink="http://www.w3.org/1999/xlink" xmlns:svgjs="http://svgjs.dev/svgjs" viewBox="0 0 1920 1080"><rect width="1920" height="1080" fill="#000000"></rect><g transform="matrix(0.8131727983645296,0.8131727983645295,-0.8131727983645295,0.8131727983645296,611.227155083551,-648.2456371940862)"><path d="M0,-1080C-11.416183516477654,-1004.6392346443139,-56.189193022399486,-794.4071826184684,-68.49710109886593,-627.8354078658834C-80.80500917533237,-461.26363311329857,-78.30950541389966,-263.62915033617014,-73.84744845879864,-80.56935148449075C-69.38539150369762,102.49044736718865,-42.40928807051924,282.4165885589697,-41.72475936825984,470.52338524419304C-41.04023066600044,658.6301819294164,-70.64976691366404,842.1867774753111,-69.74027624524224,1048.0714286268496C-68.83078557682045,1253.9560797783881,-47.89119473193611,1520.5098635912323,-36.26781535772907,1705.8312921534239C-24.64443598352203,1891.1527207156155,-6.044635892954845,2084.305215358904,0,2160L 1920 2160 L 1920 -1080 Z" fill="url(&quot;#SvgjsLinearGradient2357&quot;)"></path><path d="M240,-1080C251.6303353899024,-1009.9720340764035,316.33315140086887,-793.0694818469649,309.78201233941445,-659.8322044584211C303.23087327796003,-526.5949270698773,199.3552586086101,-411.60642886511727,200.6931656312735,-280.57633566873704C202.03107265393692,-149.54624247235682,305.6429421536857,2.7589084153606507,317.8094544753949,126.3483547198603C329.9759667971041,249.93780102435994,294.1846565367952,310.5258296852103,273.6922395615287,460.9603421582609C253.1998225862622,611.3948546313115,204.39887819456243,868.9128144591909,194.85495262379578,1028.955429558164C185.31102705302914,1188.9980446571371,209.6884349959901,1312.0944842489491,216.42868613692886,1421.2160327520992C223.16893727786763,1530.3375812552492,231.3679071589165,1560.554059369081,235.29645946942836,1683.6847205770644C239.22501177994022,1806.8153817850477,239.21607657823807,2080.6141200961774,240,2160L 1920 2160 L 1920 -1080 Z" fill="url(&quot;#SvgjsLinearGradient2358&quot;)"></path><path d="M480,-1080C473.161909037565,-986.3508432503278,445.2055963722553,-689.0758575669337,438.97145422538995,-518.1050595019665C432.7373120785246,-347.1342614369993,438.43317522492015,-235.98723538288095,442.595147118808,-54.17521161019703C446.7571190126958,127.63681216248688,460.51694993410047,389.19936666170554,463.943285588717,572.7670831341369C467.36962124333354,756.3347996065683,453.2073464329199,865.6380148097938,463.1531610465073,1047.2310872243909C473.0989756600947,1228.824159638988,520.8103667779926,1476.8640321591176,523.6181732702414,1662.3255176217192C526.4259797624902,1847.7870030843208,487.26969554504024,2077.054252936953,480,2160L 1920 2160 L 1920 -1080 Z" fill="url(&quot;#SvgjsLinearGradient2359&quot;)"></path><path d="M720,-1080C725.7529238159906,-998.2744964720408,741.9274640149695,-765.502484206025,754.5175428959433,-589.6469788322452C767.1076217769171,-413.79147345846536,794.6589724056912,-208.72420636524805,795.5404732858425,-24.86696775732127C796.4219741659938,158.9902708506055,771.4966095717883,321.06137243040496,759.8065481768508,513.4964528153155C748.1164867819133,705.931533200226,746.537527459097,939.9520341506217,725.4001049162176,1129.7435145521422C704.2626823733383,1319.5349949536626,633.8820304056111,1480.5359209831288,632.9820129195748,1652.2453352244383C632.0819954335385,1823.954749465748,705.4970021532624,2075.3742225374062,720,2160L 1920 2160 L 1920 -1080 Z" fill="url(&quot;#SvgjsLinearGradient2360&quot;)"></path><path d="M960,-1080C957.3128114442811,-976.1954837024912,957.3744536332823,-648.2266286967642,943.8768686656867,-457.17290221494704C930.3792836980912,-266.11917573312985,881.8242943464304,-88.10571842224314,879.0144901944263,66.32235889090308C876.2046860424223,220.7504362040493,905.5664022616733,302.4833532540082,927.0180437536626,469.3955616639303C948.4696852456519,636.3077700738525,1012.9528328180375,879.5946058349915,1007.7243391463626,1067.795609350436C1002.4958454746877,1255.9966128658807,903.6011382480073,1416.5675176483371,895.6470817236135,1598.6015827565977C887.6930251992197,1780.6356478648584,949.2745136206022,2066.4335971261,960,2160L 1920 2160 L 1920 -1080 Z" fill="url(&quot;#SvgjsLinearGradient2361&quot;)"></path><path d="M1200,-1080C1200.9492051309708,-998.371430041904,1205.4185382879996,-763.9047962333191,1205.6952307858248,-590.228580251424C1205.97192328365,-416.5523642695289,1188.0623326282812,-228.76668463136497,1201.6601549869517,-37.94270410862974C1215.2579773456223,152.8812764141055,1278.8284136607951,357.02519768036836,1287.2821649378488,554.7153028849875C1295.7359162149025,752.4054080896067,1279.5428078235968,970.5342128795324,1252.3826626492737,1148.1979271190855C1225.2225174749506,1325.8616413586387,1133.0517376667885,1452.0639095088204,1124.3212938919096,1620.6975883223063C1115.5908501170306,1789.3312671357921,1187.3868823153182,2070.1162647203846,1200,2160L 1920 2160 L 1920 -1080 Z" fill="url(&quot;#SvgjsLinearGradient2362&quot;)"></path><path d="M1440,-1080C1451.4505312401725,-991.0883437707016,1500.4627285371266,-716.5833449075425,1508.7031874410354,-546.5300626242094C1516.9436463449442,-376.4767803408764,1490.9091387621459,-240.66109610880395,1489.4427534234533,-59.68030630000187C1487.9763680847607,121.30048350880023,1498.9295281421905,350.4971793590938,1499.9048754088794,539.3546762286031C1500.8802226755683,728.2121730981124,1491.739754639237,888.339487871919,1495.2948370235874,1073.464674917054C1498.849919407938,1258.5898619621892,1530.4511758855806,1469.0165776522558,1521.2353697149827,1650.1057984994136C1512.0195635443847,1831.1950193465714,1453.5392282858304,2075.0176330832355,1440,2160L 1920 2160 L 1920 -1080 Z" fill="url(&quot;#SvgjsLinearGradient2363&quot;)"></path><path d="M1680,-1080C1673.6629871024506,-1019.3344989840141,1627.3492991261203,-849.0252050915822,1641.9779226147043,-716.0069939040847C1656.6065461032883,-582.9887827165871,1748.0991979409114,-414.46446773573086,1767.7717409315046,-281.89073287501503C1787.4442839220978,-149.31699801429923,1760.4611425872802,-53.80803895081007,1760.0131805582641,79.4354152602101C1759.565218529248,212.67886947123029,1789.742935909474,358.8160058996734,1765.0839687574085,517.569992391106C1740.425001605343,676.3239788825385,1615.0549621344862,888.1242273832056,1612.0593776458713,1031.9593342088056C1609.0637931572564,1175.7944410344055,1721.5826872410544,1261.5989129737095,1747.1104618257195,1380.5806333447056C1772.6382364103847,1499.5623537157016,1776.411102124815,1615.9464286588998,1765.2260251538617,1745.8496564347822C1754.0409481829083,1875.7528842106647,1694.2043375256435,2090.9749427391303,1680,2160L 1920 2160 L 1920 -1080 Z" fill="url(&quot;#SvgjsLinearGradient2364&quot;)"></path></g><defs><linearGradient x1="0.1" y1="0" x2="0" y2="1" id="SvgjsLinearGradient2357"><stop stop-color="#000000" offset="0"></stop><stop stop-color="#000000" offset="0"></stop></linearGradient><linearGradient x1="0.1" y1="0" x2="0" y2="1" id="SvgjsLinearGradient2358"><stop stop-color="#202020" offset="0"></stop><stop stop-color="#202020" offset="0.125"></stop></linearGradient><linearGradient x1="0.1" y1="0" x2="0" y2="1" id="SvgjsLinearGradient2359"><stop stop-color="#404040" offset="0"></stop><stop stop-color="#404040" offset="0.25"></stop></linearGradient><linearGradient x1="0.1" y1="0" x2="0" y2="1" id="SvgjsLinearGradient2360"><stop stop-color="#606060" offset="0"></stop><stop stop-color="#606060" offset="0.375"></stop></linearGradient><linearGradient x1="0.1" y1="0" x2="0" y2="1" id="SvgjsLinearGradient2361"><stop stop-color="#808080" offset="0"></stop><stop stop-color="#808080" offset="0.5"></stop></linearGradient><linearGradient x1="0.1" y1="0" x2="0" y2="1" id="SvgjsLinearGradient2362"><stop stop-color="#9f9f9f" offset="0"></stop><stop stop-color="#9f9f9f" offset="0.625"></stop></linearGradient><linearGradient x1="0.1" y1="0" x2="0" y2="1" id="SvgjsLinearGradient2363"><stop stop-color="#bfbfbf" offset="0"></stop><stop stop-color="#bfbfbf" offset="0.75"></stop></linearGradient><linearGradient x1="0.1" y1="0" x2="0" y2="1" id="SvgjsLinearGradient2364"><stop stop-color="#dfdfdf" offset="0"></stop><stop stop-color="#dfdfdf" offset="0.875"></stop></linearGradient></defs></svg>