<svg xmlns="http://www.w3.org/2000/svg" version="1.1" xmlns:xlink="http://www.w3.org/1999/xlink" xmlns:svgjs="http://svgjs.dev/svgjs" viewBox="0 0 1920 1080"><rect width="1920" height="1080" fill="#000000"></rect><g transform="matrix(0.8131727983645296,0.8131727983645295,-0.8131727983645295,0.8131727983645296,610.8557242706315,-646.6289698624746)"><path d="M0,-1080C-10.559439095440782,-982.2180539518845,-51.37304101641263,-672.7870055528629,-63.35663457264469,-493.30832371130657C-75.34022812887675,-313.8296418697503,-92.45157202038085,-168.48003622890843,-71.90156133739235,-3.1279089506620323C-51.35155065440385,162.22421832758437,33.76193896523081,304.33940354204617,59.94342952528635,498.8044399581719C86.12492008534188,693.2694763742976,96.30885512181605,966.248002553916,85.18738202294088,1163.662309546092C74.06590892406571,1361.0766165382681,7.412487935858801,1517.2340001689104,-6.785409067964679,1683.2902819112282C-20.983306071788157,1849.3465636535461,-1.1309015113274465,2080.548380318538,0,2160L 1920 2160 L 1920 -1080 Z" fill="url(&quot;#SvgjsLinearGradient2373&quot;)"></path><path d="M240,-1080C237.63612434978458,-992.9997467893871,227.7189783387953,-725.4788673823066,225.81674609870745,-557.9984807363226C223.9145138586196,-390.51809409033854,214.5427832597892,-231.6817218123634,228.58660655947304,-75.11768012409598C242.6304298591569,81.44636156417144,315.84591248469167,240.57076379917638,310.0796858968105,381.385769393282C304.3134593089293,522.2007749873876,195.39462275522703,622.4272119862881,193.98924703218572,769.7723534405377C192.5838713091444,917.1174948947873,298.9493004236017,1119.3497940624097,301.64743155856263,1265.4566181187797C304.34556269352356,1411.5634421751497,220.45260576837856,1497.3227341318875,210.17803384195145,1646.4132977787576C199.90346191552433,1795.5038614256277,235.0296723069919,2074.4022162964598,240,2160L 1920 2160 L 1920 -1080 Z" fill="url(&quot;#SvgjsLinearGradient2374&quot;)"></path><path d="M480,-1080C468.67380190504736,-992.9371646967651,409.7751567961349,-745.1564578554513,412.0428114302841,-557.6229881805905C414.31046606443323,-370.08951850572964,481.1235162609345,-143.52520844914613,493.6059278048948,45.200818049165036C506.08833934885513,233.9268445474762,494.33892154146196,406.3812339099402,486.93728069404614,574.7331708092765C479.5356398466303,743.0851077086129,439.1545313856014,881.6232456035187,449.1960827203998,1055.312439445183C459.23763405519816,1229.0016332868472,542.0526024895697,1432.7537404334587,547.1865887028364,1616.8683338592616C552.320574916103,1800.9829272850645,491.19776478380606,2069.47805564321,480,2160L 1920 2160 L 1920 -1080 Z" fill="url(&quot;#SvgjsLinearGradient2375&quot;)"></path><path d="M720,-1080C726.5026833627758,-966.3938989030185,753.2268714534372,-624.6552032248784,759.0161001766546,-398.363393418111C764.805328899872,-172.07158361134358,763.5883639212547,61.985210039723256,754.7353723393044,277.75085884060456C745.8823807573541,493.5165076414859,717.8641591604037,697.717797795918,705.8981506849531,896.2304993871768C693.9321422095024,1094.7432009784357,680.5890132674258,1258.1988182860198,682.9393214866003,1468.827068388157C685.2896297057748,1679.455318490294,713.8232202477667,2044.804511398026,720,2160L 1920 2160 L 1920 -1080 Z" fill="url(&quot;#SvgjsLinearGradient2376&quot;)"></path><path d="M960,-1080C951.445169945495,-1011.0028766594205,912.014139771562,-830.3585393307665,908.6710196729697,-666.0172599565233C905.3278995743774,-501.6759805822801,943.8399481642228,-249.7917033508875,939.9412794084462,-93.95232375454097C936.0426106526696,61.88705584180556,884.6364953833828,118.64288365961991,885.2790071383099,269.0190176215559C885.921518893237,419.39515158349195,941.807497571476,655.2479304506426,943.7963499380087,808.3044800170751C945.7852023045414,961.3610295835076,888.1658626511538,1029.8162243726194,897.2121213375057,1187.3583150201514C906.2583800238575,1344.9004056676833,987.6092556123706,1591.4500764056256,998.0739020561197,1753.557023902267C1008.5385484998687,1915.6639713989084,966.3456503426867,2092.259503983711,960,2160L 1920 2160 L 1920 -1080 Z" fill="url(&quot;#SvgjsLinearGradient2377&quot;)"></path><path d="M1200,-1080C1195.3225795657268,-938.0362078941162,1157.341800526459,-510.39242812174007,1171.9354773943608,-228.21724736469687C1186.5291542622624,53.95793339234629,1286.398714535977,361.97176294920394,1287.5620612074094,613.051084542259C1288.725407878842,864.130406135314,1193.5092342908567,1020.4338629506763,1178.915557422955,1278.2586821936331C1164.3218805550534,1536.08350143659,1196.4859262371592,2013.043113698939,1200,2160L 1920 2160 L 1920 -1080 Z" fill="url(&quot;#SvgjsLinearGradient2378&quot;)"></path><path d="M1440,-1080C1432.7891902184265,-943.732548579517,1395.8896436895575,-523.554368174631,1396.7351413105594,-262.39529147710243C1397.5806389315612,-1.2362147795739133,1441.4404709532002,214.05367705800052,1445.072985726011,486.95446018517106C1448.7055004988217,759.8552433123416,1419.375727568426,1096.1684839834493,1418.5302299474242,1375.0094072859208C1417.6847323264224,1653.8503305883924,1436.4217049912374,2029.1682345476534,1440,2160L 1920 2160 L 1920 -1080 Z" fill="url(&quot;#SvgjsLinearGradient2379&quot;)"></path><path d="M1680,-1080C1670.019066768053,-1006.9529917886997,1606.214128254036,-785.1348096848587,1620.1144006083189,-641.7179507321985C1634.0146729626017,-498.3010917795382,1753.5270610988105,-392.40493314353614,1763.4016341256965,-219.49884628403856C1773.2762071525826,-46.59275942454096,1704.6181986173367,223.51493582370395,1679.3618387696358,395.71857042478723C1654.105478921935,567.9222050258705,1599.8383814704848,675.7159258308221,1611.8634750394908,813.722961322461C1623.8885686084968,951.7299968140998,1738.7076113657297,1088.1201319911304,1751.5124001836723,1223.76078337462C1764.317189001615,1359.4014347581094,1700.6109413110921,1471.5270001858346,1688.6922079471467,1627.566869623398C1676.7734745832013,1783.6067390609612,1681.4487013245243,2071.261144937233,1680,2160L 1920 2160 L 1920 -1080 Z" fill="url(&quot;#SvgjsLinearGradient2380&quot;)"></path></g><defs><linearGradient x1="0.1" y1="0" x2="0" y2="1" id="SvgjsLinearGradient2373"><stop stop-color="#000000" offset="0"></stop><stop stop-color="#000000" offset="0"></stop></linearGradient><linearGradient x1="0.1" y1="0" x2="0" y2="1" id="SvgjsLinearGradient2374"><stop stop-color="#202020" offset="0"></stop><stop stop-color="#202020" offset="0.125"></stop></linearGradient><linearGradient x1="0.1" y1="0" x2="0" y2="1" id="SvgjsLinearGradient2375"><stop stop-color="#404040" offset="0"></stop><stop stop-color="#404040" offset="0.25"></stop></linearGradient><linearGradient x1="0.1" y1="0" x2="0" y2="1" id="SvgjsLinearGradient2376"><stop stop-color="#606060" offset="0"></stop><stop stop-color="#606060" offset="0.375"></stop></linearGradient><linearGradient x1="0.1" y1="0" x2="0" y2="1" id="SvgjsLinearGradient2377"><stop stop-color="#808080" offset="0"></stop><stop stop-color="#808080" offset="0.5"></stop></linearGradient><linearGradient x1="0.1" y1="0" x2="0" y2="1" id="SvgjsLinearGradient2378"><stop stop-color="#9f9f9f" offset="0"></stop><stop stop-color="#9f9f9f" offset="0.625"></stop></linearGradient><linearGradient x1="0.1" y1="0" x2="0" y2="1" id="SvgjsLinearGradient2379"><stop stop-color="#bfbfbf" offset="0"></stop><stop stop-color="#bfbfbf" offset="0.75"></stop></linearGradient><linearGradient x1="0.1" y1="0" x2="0" y2="1" id="SvgjsLinearGradient2380"><stop stop-color="#dfdfdf" offset="0"></stop><stop stop-color="#dfdfdf" offset="0.875"></stop></linearGradient></defs></svg>