<svg xmlns="http://www.w3.org/2000/svg" version="1.1" xmlns:xlink="http://www.w3.org/1999/xlink" xmlns:svgjs="http://svgjs.dev/svgjs" viewBox="0 0 1920 1080"><rect width="1920" height="1080" fill="#000000"></rect><g transform="matrix(0.8131727983645296,0.8131727983645295,-0.8131727983645295,0.8131727983645296,614.7747210185735,-663.6865585027163)"><path d="M0,-1080C-2.1694539031089284,-989.6413249431088,-6.832746433454393,-720.2004915441526,-13.01672341865357,-537.8479496586529C-19.200700403852746,-355.49540777315315,-47.966971855657675,-152.00928133653855,-37.10386191119506,14.115251312998424C-26.240751966732446,180.2397839625354,34.48634496265245,288.8748455651523,52.16193624812212,458.899246238569C69.83752753359178,628.9236469119857,68.21773936339356,829.292595835912,68.94968580162296,1034.2616553534986C69.68163223985236,1239.230714871085,68.04522917776902,1501.0905459030043,56.55361487749852,1688.713603344088C45.06200057722803,1876.3366607851715,9.425602479583086,2081.4522672240146,0,2160L 1920 2160 L 1920 -1080 Z" fill="url(&quot;#SvgjsLinearGradient2405&quot;)"></path><path d="M240,-1080C232.90265599729906,-1003.1968144466675,207.58719636132986,-787.4068532630743,197.41593598379436,-619.180886680005C187.24467560625885,-450.9549200969357,165.17717263515584,-220.11374353174153,178.97243773478698,-70.64420050158455C192.76770283441812,78.82534252857243,273.0718893508306,140.86208067318273,280.1875265815812,277.63637150093706C287.30316381233183,414.4106623286914,237.31822258677863,593.0675842932117,221.66626111929062,750.0015444649414C206.01429965180262,906.9355046366711,188.23821747190138,1070.9460551873663,186.27575777665325,1219.240132531315C184.31329808140512,1367.534209875264,200.9374625772441,1482.9726972838541,209.89150294780188,1639.766008528635C218.84554331835966,1796.5593197734158,234.981917157967,2073.2943347547725,240,2160L 1920 2160 L 1920 -1080 Z" fill="url(&quot;#SvgjsLinearGradient2406&quot;)"></path><path d="M480,-1080C480.1189001931045,-973.7406890506799,482.31702863075964,-645.0143473370497,480.7134011586268,-442.444134304079C479.109773686494,-239.87392127110826,472.6370532037261,-79.52124620214414,470.3782351672032,135.4212781978244C468.11941713068023,350.3638025977929,463.72069892950617,630.2642665555735,467.16049293948925,847.2110120957323C470.6002869494723,1064.1577576358911,488.877081383683,1218.303586788066,491.01699922710145,1437.1017514387772C493.1569170705199,1655.8999160894884,481.83616653785026,2039.5169585731296,480,2160L 1920 2160 L 1920 -1080 Z" fill="url(&quot;#SvgjsLinearGradient2407&quot;)"></path><path d="M720,-1080C712.5501592344322,-975.9790104077069,678.5565080585261,-667.5226883920592,675.3009554065927,-455.8740624462416C672.0454027546593,-244.22543650042408,695.763060656128,-21.15046860719599,700.4666840883993,189.8917556749052C705.1703075206707,400.9339799570064,698.9155809345866,597.0849912167604,703.5226960002205,810.3792832463656C708.1298110658545,1023.6735752759708,725.3631571489062,1244.720721726931,728.1093744822028,1469.6575078525368C730.8555918154995,1694.5942939781426,721.3515624137004,2044.942917975423,720,2160L 1920 2160 L 1920 -1080 Z" fill="url(&quot;#SvgjsLinearGradient2408&quot;)"></path><path d="M960,-1080C953.7715578009879,-985.2037555384356,910.4293649237173,-678.6700063779994,922.6293468059279,-511.222533230614C934.8293286881384,-343.7750600832286,1040.1990592552754,-244.65058688268408,1033.1998912932631,-75.31516111568796C1026.2007233312509,94.02026465130815,901.571219458229,304.46906263700146,880.6343390338544,504.7900213713627C859.6974586094798,705.1109801057239,908.9504016864202,931.4977060031019,907.5786087470151,1126.6105912904795C906.20681580761,1321.7234765778571,863.6666828552599,1503.2357649773746,872.403581397424,1675.467333095628C881.1404799395881,1847.6989012138813,945.4005968995707,2079.244555515938,960,2160L 1920 2160 L 1920 -1080 Z" fill="url(&quot;#SvgjsLinearGradient2409&quot;)"></path><path d="M1200,-1080C1188.7632817140536,-990.9483390886072,1120.1926117390685,-736.9134818094262,1132.579690284322,-545.6900345316435C1144.9667688295754,-354.4665872538608,1276.6569278064085,-99.42922037565967,1274.3224712715207,67.34068366669621C1271.988014736633,234.11058770905208,1128.952547391556,282.2326239202446,1118.5729510749961,454.9293897224917C1108.1933547584363,627.6261555247388,1190.0883455458381,918.0327935511533,1212.044893372161,1103.521278480179C1234.0014411984837,1289.0097634092049,1252.319720261626,1391.7805123766761,1250.3122380329323,1567.8602992966464C1248.3047558042388,1743.9400862166167,1208.3853730054886,2061.3100498827744,1200,2160L 1920 2160 L 1920 -1080 Z" fill="url(&quot;#SvgjsLinearGradient2410&quot;)"></path><path d="M1440,-1080C1451.894756767888,-1000.0031947974352,1516.8769849065645,-787.6613707759941,1511.3685406073282,-600.0191687846112C1505.860096308092,-412.37696679322835,1425.303612774212,-132.01949486526988,1406.9493342045819,45.85321194829737C1388.5950556349517,223.72591876186462,1401.101909937201,293.22925069722663,1401.2428691895477,467.2170720967924C1401.3838284418944,641.2048934963582,1409.0481686055662,888.2987790322517,1407.7950897186613,1089.7801403456917C1406.5420108317564,1291.2615016591317,1388.3569108212287,1497.7352633683813,1393.7243958681186,1676.1052399774326C1399.0918809150085,1854.4752165864838,1432.287399311353,2079.350873329572,1440,2160L 1920 2160 L 1920 -1080 Z" fill="url(&quot;#SvgjsLinearGradient2411&quot;)"></path><path d="M1680,-1080C1670.8492769241448,-988.9797114903834,1628.910183372323,-686.1965402285599,1625.0956615448683,-533.8782689423C1621.2811397174137,-381.5599976560401,1659.2390736336956,-306.78804893241374,1657.1128690352728,-166.09037228244057C1654.9866644368499,-25.392695632467365,1598.5187171728176,142.7912123360775,1612.3384339543304,310.3077909575393C1626.1581507358433,477.8243695790011,1732.0731190227098,685.5181470980867,1740.0311697243505,839.0090994463301C1747.9892204259913,992.5000517945734,1660.06434668838,1086.9949759810045,1660.0867381641754,1231.2535050469996C1660.1091296399707,1375.5120341129948,1736.8466416064848,1549.7691913501349,1740.1655185791224,1704.5602738423015C1743.48439555176,1859.3513563344682,1690.0275864298537,2084.093378973717,1680,2160L 1920 2160 L 1920 -1080 Z" fill="url(&quot;#SvgjsLinearGradient2412&quot;)"></path></g><defs><linearGradient x1="0.1" y1="0" x2="0" y2="1" id="SvgjsLinearGradient2405"><stop stop-color="#000000" offset="0"></stop><stop stop-color="#000000" offset="0"></stop></linearGradient><linearGradient x1="0.1" y1="0" x2="0" y2="1" id="SvgjsLinearGradient2406"><stop stop-color="#202020" offset="0"></stop><stop stop-color="#202020" offset="0.125"></stop></linearGradient><linearGradient x1="0.1" y1="0" x2="0" y2="1" id="SvgjsLinearGradient2407"><stop stop-color="#404040" offset="0"></stop><stop stop-color="#404040" offset="0.25"></stop></linearGradient><linearGradient x1="0.1" y1="0" x2="0" y2="1" id="SvgjsLinearGradient2408"><stop stop-color="#606060" offset="0"></stop><stop stop-color="#606060" offset="0.375"></stop></linearGradient><linearGradient x1="0.1" y1="0" x2="0" y2="1" id="SvgjsLinearGradient2409"><stop stop-color="#808080" offset="0"></stop><stop stop-color="#808080" offset="0.5"></stop></linearGradient><linearGradient x1="0.1" y1="0" x2="0" y2="1" id="SvgjsLinearGradient2410"><stop stop-color="#9f9f9f" offset="0"></stop><stop stop-color="#9f9f9f" offset="0.625"></stop></linearGradient><linearGradient x1="0.1" y1="0" x2="0" y2="1" id="SvgjsLinearGradient2411"><stop stop-color="#bfbfbf" offset="0"></stop><stop stop-color="#bfbfbf" offset="0.75"></stop></linearGradient><linearGradient x1="0.1" y1="0" x2="0" y2="1" id="SvgjsLinearGradient2412"><stop stop-color="#dfdfdf" offset="0"></stop><stop stop-color="#dfdfdf" offset="0.875"></stop></linearGradient></defs></svg>