<svg xmlns="http://www.w3.org/2000/svg" version="1.1" xmlns:xlink="http://www.w3.org/1999/xlink" xmlns:svgjs="http://svgjs.dev/svgjs" viewBox="0 0 1920 1080"><rect width="1920" height="1080" fill="#000000"></rect><g transform="matrix(0.8131727983645296,0.8131727983645295,-0.8131727983645295,0.8131727983645296,612.784269839296,-655.0230408709585)"><path d="M0,-1080C12.901357975590287,-965.5369470700153,65.69859133100279,-621.6253760315624,77.40814785354172,-393.22168242009184C89.11770437608065,-164.81798880862127,93.29843074456704,92.97820390129002,70.25733913523356,290.42216166882355C47.21624752590009,487.86611943635705,-61.008653002481644,575.250944573062,-60.838401802459146,791.4420641851094C-60.66815060243665,1007.6331837971568,61.13911270162538,1359.475890038626,71.27884633536857,1587.5688793411077C81.41857996911176,1815.6618686435895,11.879807722561429,2064.594813223518,0,2160L 1920 2160 L 1920 -1080 Z" fill="url(&quot;#SvgjsLinearGradient2381&quot;)"></path><path d="M240,-1080C253.18683529794973,-1001.9171674013935,304.67386312691895,-752.1976286106049,319.12101178769836,-611.5030044083612C333.5681604484778,-470.8083802061176,325.98889177303187,-362.08784716456455,326.6828919646766,-235.83225478653802C327.3768921563214,-109.57666240851147,330.7869275623252,27.777307497309707,323.285012937567,146.03054985979801C315.78309831280876,264.2837922222863,296.68621380769576,349.2509529681577,281.67140421612726,473.68719938839183C266.65659462455875,598.123445808626,249.20609840213095,738.4549968730547,233.1961553881561,892.6480283812028C217.18621237418122,1046.841059889351,178.46770577846596,1256.049765085328,185.61174613227809,1398.8453884372807C192.75578648609022,1541.6410117892333,266.99568853307517,1622.5626665657987,276.06039751102884,1749.4217684929185C285.1251064889825,1876.2808704200384,246.01006625183814,2091.57029474882,240,2160L 1920 2160 L 1920 -1080 Z" fill="url(&quot;#SvgjsLinearGradient2382&quot;)"></path><path d="M480,-1080C466.21262124311255,-995.7343902459712,408.331339931026,-728.8609987036044,397.2757274586753,-574.4063414758273C386.22011498632463,-419.9516842480501,409.66580689408227,-288.33677698552884,413.66632516589596,-153.27205663333726C417.66684343770964,-18.207336281145672,413.1930463865819,83.3360042340652,421.27883708955756,235.98198063732235C429.3646277925332,388.62795704057953,454.6969644240935,610.6306361061646,462.1810693837499,762.6038017862056C469.6651743434063,914.5769674662466,457.31618907410945,995.7084637807162,466.18346684749605,1147.820974717568C475.05074462088265,1299.9334856544199,513.0819804986521,1506.5823631935782,515.3847360240694,1675.2788674073167C517.6874915494867,1843.9753716210553,485.8974560040116,2079.213144567886,480,2160L 1920 2160 L 1920 -1080 Z" fill="url(&quot;#SvgjsLinearGradient2383&quot;)"></path><path d="M720,-1080C708.9507221374981,-977.1296185176312,654.8370855059901,-669.5721223120662,653.7043328249886,-462.7777111057876C652.571580143987,-255.98329989950903,691.2809121985428,-73.68927179208436,713.2034839139906,160.76646723767143C735.1260556294384,395.2222062674272,772.5641872058053,707.1912853312972,785.2397631176752,943.9567230727472C797.9153390295452,1180.7221608141972,800.1302332381558,1378.685214198496,789.25693938521,1581.3590936863714C778.3836455322642,1784.0329731742468,731.5428232308683,2063.5598489477284,720,2160L 1920 2160 L 1920 -1080 Z" fill="url(&quot;#SvgjsLinearGradient2384&quot;)"></path><path d="M960,-1080C951.0077682328126,-933.7376435578741,902.3686327221833,-459.6809068006438,906.0466093968759,-202.4258613472444C909.7245860715684,54.829184106155026,964.2758717225374,205.92922133426106,982.0678600481556,463.5302727203967C999.8598483737737,721.1313241065322,1016.4765160252776,1060.4354924229688,1012.7985393505851,1343.1804469695694C1009.1205626758925,1625.92540151617,968.7997565584309,2023.8634078282616,960,2160L 1920 2160 L 1920 -1080 Z" fill="url(&quot;#SvgjsLinearGradient2385&quot;)"></path><path d="M1200,-1080C1187.1202141719054,-1012.585451118361,1116.2820911146423,-801.6276169153745,1122.7212850314322,-675.5127067101661C1129.1604789482221,-549.3977965049577,1219.2531877719048,-460.338585473374,1238.635163500739,-323.31053876874944C1258.0171392295733,-186.2824920641249,1247.291822896794,11.908575714474665,1239.0131394044374,146.65557351758105C1230.7344559120809,281.40257132068746,1191.0039566407058,363.47953083005376,1188.9630625465998,485.17144804988874C1186.9221684524937,606.8633652697237,1227.5234387812757,747.2509312759483,1226.7677748398003,876.8070768365908C1226.0121108983249,1006.3632223972332,1194.0946006466936,1107.5575236494246,1184.4290788977478,1262.5083214137437C1174.763557148802,1417.4591191780628,1166.1794908290835,1656.929916991463,1168.7746443461256,1806.5118634225057C1171.3697978631676,1956.0938098535485,1194.7957740576876,2101.0853105704177,1200,2160L 1920 2160 L 1920 -1080 Z" fill="url(&quot;#SvgjsLinearGradient2386&quot;)"></path><path d="M1440,-1080C1430.1699107631175,-976.1615728372013,1370.2321975117798,-678.4698192093111,1381.0194645787046,-456.9694370232081C1391.8067316456295,-235.46905483710512,1496.9449231132755,15.61308161950626,1504.7236024015485,249.00229311661795C1512.5022816898215,482.39150461372964,1449.674241136505,722.8999135393685,1427.691540308343,943.365831959462C1405.708839480181,1163.8317503795554,1370.7759874839671,1369.025442297089,1372.8273974325766,1571.7978036371787C1374.878807381186,1774.5701649772684,1428.8045662387628,2061.9663006061965,1440,2160L 1920 2160 L 1920 -1080 Z" fill="url(&quot;#SvgjsLinearGradient2387&quot;)"></path><path d="M1680,-1080C1687.683000440283,-991.8577687419508,1734.5427369355107,-700.5187727095222,1726.0980026416983,-551.1466124517053C1717.6532683478858,-401.77445219388846,1635.5295451925856,-312.8539075123953,1629.3315942371255,-183.767038453099C1623.1336432816654,-54.68016939380266,1694.52914397561,60.428712143179666,1688.9102969089372,223.37460190407262C1683.2914498422645,386.3204916649656,1608.1536502203976,620.9839592893019,1595.6185118370888,793.9083001122588C1583.08337345378,966.8326409352156,1593.406103736399,1097.2420003021823,1613.6994666090848,1260.9206468418142C1633.9928294817705,1424.5992933814462,1706.328600174717,1626.1336204903523,1717.3786890732028,1775.9801793500499C1728.4287779716888,1925.8267382097474,1686.2297815122006,2095.9966965583417,1680,2160L 1920 2160 L 1920 -1080 Z" fill="url(&quot;#SvgjsLinearGradient2388&quot;)"></path></g><defs><linearGradient x1="0.1" y1="0" x2="0" y2="1" id="SvgjsLinearGradient2381"><stop stop-color="#000000" offset="0"></stop><stop stop-color="#000000" offset="0"></stop></linearGradient><linearGradient x1="0.1" y1="0" x2="0" y2="1" id="SvgjsLinearGradient2382"><stop stop-color="#202020" offset="0"></stop><stop stop-color="#202020" offset="0.125"></stop></linearGradient><linearGradient x1="0.1" y1="0" x2="0" y2="1" id="SvgjsLinearGradient2383"><stop stop-color="#404040" offset="0"></stop><stop stop-color="#404040" offset="0.25"></stop></linearGradient><linearGradient x1="0.1" y1="0" x2="0" y2="1" id="SvgjsLinearGradient2384"><stop stop-color="#606060" offset="0"></stop><stop stop-color="#606060" offset="0.375"></stop></linearGradient><linearGradient x1="0.1" y1="0" x2="0" y2="1" id="SvgjsLinearGradient2385"><stop stop-color="#808080" offset="0"></stop><stop stop-color="#808080" offset="0.5"></stop></linearGradient><linearGradient x1="0.1" y1="0" x2="0" y2="1" id="SvgjsLinearGradient2386"><stop stop-color="#9f9f9f" offset="0"></stop><stop stop-color="#9f9f9f" offset="0.625"></stop></linearGradient><linearGradient x1="0.1" y1="0" x2="0" y2="1" id="SvgjsLinearGradient2387"><stop stop-color="#bfbfbf" offset="0"></stop><stop stop-color="#bfbfbf" offset="0.75"></stop></linearGradient><linearGradient x1="0.1" y1="0" x2="0" y2="1" id="SvgjsLinearGradient2388"><stop stop-color="#dfdfdf" offset="0"></stop><stop stop-color="#dfdfdf" offset="0.875"></stop></linearGradient></defs></svg>