<?xml version="1.0" encoding="utf-8"?>
<!-- Generator: Adobe Illustrator 25.0.1, SVG Export Plug-In . SVG Version: 6.00 Build 0)  -->
<svg version="1.0" id="katman_1" xmlns="http://www.w3.org/2000/svg" xmlns:xlink="http://www.w3.org/1999/xlink" x="0px" y="0px"
	 viewBox="0 0 560 400" style="enable-background:new 0 0 560 400;" xml:space="preserve">
<style type="text/css">
	.st0{fill-rule:evenodd;clip-rule:evenodd;}
	.st1{fill-rule:evenodd;clip-rule:evenodd;fill:url(#path1217_1_);}
	.st2{fill-rule:evenodd;clip-rule:evenodd;fill:#FCFCFC;}
	.st3{fill-rule:evenodd;clip-rule:evenodd;fill:#999999;}
	.st4{fill-rule:evenodd;clip-rule:evenodd;fill:#F9F9F9;}
	.st5{fill-rule:evenodd;clip-rule:evenodd;fill:url(#path1240_1_);}
	.st6{fill-rule:evenodd;clip-rule:evenodd;fill:url(#path1253_1_);}
	.st7{fill-rule:evenodd;clip-rule:evenodd;fill:url(#path1264_1_);}
	.st8{fill-rule:evenodd;clip-rule:evenodd;fill:#3F659A;}
	.st9{fill-rule:evenodd;clip-rule:evenodd;fill:url(#path1281_1_);}
	.st10{fill-rule:evenodd;clip-rule:evenodd;fill:url(#path1288_1_);}
	.st11{fill-rule:evenodd;clip-rule:evenodd;fill:url(#path1299_1_);}
	.st12{fill-rule:evenodd;clip-rule:evenodd;fill:url(#path1306_1_);}
	.st13{opacity:0.6;}
	.st14{opacity:0.2;}
	.st15{fill-rule:evenodd;clip-rule:evenodd;fill:url(#path1332_1_);}
	.st16{fill-rule:evenodd;clip-rule:evenodd;fill:url(#path1349_1_);}
	.st17{opacity:0.1;fill-rule:evenodd;clip-rule:evenodd;fill:#F2F2F2;enable-background:new    ;}
	.st18{fill-rule:evenodd;clip-rule:evenodd;fill:#2F4283;}
	.st19{fill-rule:evenodd;clip-rule:evenodd;fill:url(#path1368_1_);}
	.st20{fill-rule:evenodd;clip-rule:evenodd;fill:#010202;}
	.st21{fill-rule:evenodd;clip-rule:evenodd;fill:#FFFFFF;}
	.st22{fill-rule:evenodd;clip-rule:evenodd;fill:url(#path1381_1_);}
	.st23{fill-rule:evenodd;clip-rule:evenodd;fill:url(#path1396_1_);}
</style>
<g id="logo-wordmark" transform="translate(0.574801, 0.165347)">
	<g id="g1400" transform="translate(0.183728, 0.091986)">
		<g id="g1204" transform="translate(142.410713, 30.958851)">
			<polygon id="polygon1180" class="st0" points="56.9,148.8 57.6,142.9 25.2,142.9 25.2,148.8 37.8,148.8 37.8,187.9 44.6,187.9 
				44.6,148.8 			"/>
			<path id="path1182" class="st0" d="M78,152.5c-3.8,0-7.1,1.6-9.7,4.8V139l-6.6,0.7v48.1h6.6v-24.4c1.2-1.8,2.4-3.2,3.7-4.2
				c1.3-1,2.8-1.5,4.5-1.5c1.6,0,2.9,0.5,3.8,1.4c0.9,0.9,1.3,2.5,1.3,4.8v23.8h6.6v-24.7c0-3.3-0.9-5.9-2.7-7.8
				C83.7,153.5,81.1,152.5,78,152.5z"/>
			<path id="path1184" class="st0" d="M116.7,177.7c-2.3,3.7-5,5.6-8.1,5.6c-1.7,0-3-0.4-3.7-1.3c-0.8-0.9-1.1-2.5-1.1-4.7v-24h-6.6
				v24.7c0,3.4,0.9,6,2.6,7.9c1.7,1.9,4.2,2.8,7.2,2.8c2.5,0,4.6-0.5,6.3-1.5c1.5-0.9,2.8-2.1,4-3.9l0.4,4.6h5.7v-34.6h-6.6
				L116.7,177.7L116.7,177.7z"/>
			<path id="path1186" class="st0" d="M149.2,152.5c-2.2,0-4.2,0.5-6.1,1.6c-1.6,0.9-2.9,2.1-4,3.6l-0.5-4.4h-5.7v34.6h6.6v-24.3
				c1.2-1.8,2.4-3.3,3.7-4.3c1.3-1,2.8-1.5,4.6-1.5c1.6,0,2.9,0.5,3.7,1.4c0.8,0.9,1.3,2.5,1.3,4.8v23.8h6.6v-24.7
				c0-3.3-0.9-5.9-2.7-7.8C154.9,153.5,152.4,152.5,149.2,152.5z"/>
			<path id="path1188" d="M189,156.2c-2.5-2.4-5.5-3.7-8.8-3.7c-2.8,0-5.2,0.8-7.3,2.4c-2.1,1.6-3.7,3.7-4.7,6.5
				c-1.1,2.7-1.6,5.9-1.6,9.4c0,5.4,1.2,9.8,3.4,13c2.3,3.3,5.6,4.9,9.7,4.9c2.1,0,4.1-0.5,5.8-1.5c1.5-0.8,2.7-2,3.8-3.4l0.5,4.1
				h5.9v-48.2l-6.6-0.8V156.2z M189,162.1v16.4c-1.2,1.6-2.4,2.8-3.6,3.6c-1.2,0.8-2.7,1.2-4.4,1.2c-2.4,0-4.2-1-5.4-3.1
				c-1.3-2.1-1.9-5.3-1.9-9.6c0-4.2,0.7-7.5,2.1-9.6c1.4-2.1,3.3-3.1,5.8-3.1c1.5,0,2.9,0.4,4.1,1.1
				C186.8,159.7,187.9,160.7,189,162.1z"/>
			<path id="path1190" d="M217.2,152.5c-2.9,0-5.5,0.8-7.7,2.4c-2.2,1.6-3.8,3.8-5,6.5c-1.1,2.8-1.7,5.9-1.7,9.5c0,5.5,1.4,9.8,4,13
				c2.7,3.2,6.5,4.8,11.3,4.8c4.3,0,8.4-1.5,12-4.3l0.3-0.2l-3-4.1l-0.3,0.2c-1.5,1-2.9,1.7-4.2,2.2c-1.3,0.5-2.8,0.7-4.4,0.7
				c-2.5,0-4.5-0.8-6-2.5c-1.5-1.6-2.4-4.2-2.7-7.6h21.6l0-0.3c0.1-1,0.1-2.1,0.1-3.1c0-5.3-1.2-9.5-3.7-12.5
				C225.3,154,221.8,152.5,217.2,152.5z M209.8,167.9c0.5-6.7,3-10,7.5-10c2.5,0,4.4,0.8,5.7,2.5c1.3,1.7,1.9,4.2,1.9,7.4v0H209.8z"
				/>
			<path id="path1192" class="st0" d="M253.4,152.5c-2.1,0-4,0.7-5.6,2c-1.3,1.1-2.4,2.6-3.2,4.5l-0.5-5.7h-5.7v34.6h6.6v-19.7
				c0.7-3.2,1.7-5.5,2.9-7c1.2-1.5,2.8-2.2,4.8-2.2c0.9,0,1.9,0.1,2.9,0.4l0.4,0.1l1.2-6.5l-0.3-0.1
				C255.8,152.6,254.6,152.5,253.4,152.5z"/>
			<path id="path1194" d="M277.1,152.5c-3.7,0-6.8,1.5-9.2,4.4v-18l-6.6,0.8v48.2h5.9l0.5-3.3c2.4,2.7,5.4,4,8.8,4
				c2.8,0,5.2-0.8,7.3-2.3c2.1-1.5,3.7-3.7,4.7-6.4c1.1-2.7,1.6-5.9,1.6-9.4c0-5.6-1.2-10.1-3.5-13.2
				C284.2,154.1,281,152.5,277.1,152.5z M275.4,157.9c2.4,0,4.2,0.9,5.6,2.9c1.3,2,2,5.2,2,9.7c0,4.4-0.7,7.6-2.2,9.7
				c-1.4,2-3.3,3-5.9,3c-1.4,0-2.7-0.4-4-1.2c-1.2-0.8-2.3-1.8-3.1-3.1v-16C270,159.6,272.5,157.9,275.4,157.9z"/>
			<rect id="rect1196" x="297.5" y="153.3" class="st0" width="6.6" height="34.6"/>
			<path id="path1198" class="st0" d="M300.7,137c-1.3,0-2.4,0.4-3.2,1.3c-0.8,0.8-1.3,1.9-1.3,3.1c0,1.3,0.4,2.3,1.3,3.1
				c0.8,0.8,1.9,1.2,3.2,1.2c1.3,0,2.4-0.4,3.3-1.2c0.8-0.8,1.3-1.9,1.3-3.1c0-1.2-0.4-2.3-1.3-3.1C303.1,137.4,302,137,300.7,137z"
				/>
			<path id="path1200" class="st0" d="M328.8,152.5c-2.1,0-4,0.7-5.6,2c-1.3,1.1-2.4,2.6-3.2,4.5l-0.5-5.7h-5.7v34.6h6.6v-19.7
				c0.7-3.2,1.7-5.5,2.9-7c1.2-1.5,2.8-2.2,4.8-2.2c0.9,0,1.9,0.1,2.9,0.4l0.4,0.1l1.2-6.5l-0.3-0.1
				C331.1,152.6,330,152.5,328.8,152.5z"/>
			<path id="path1202" d="M355,138.9v17.3c-2.5-2.4-5.5-3.7-8.8-3.7c-2.8,0-5.2,0.8-7.3,2.4c-2.1,1.6-3.7,3.7-4.7,6.5
				c-1.1,2.7-1.6,5.9-1.6,9.4c0,5.4,1.2,9.8,3.4,13c2.3,3.3,5.6,4.9,9.7,4.9c2.1,0,4.1-0.5,5.8-1.5c1.5-0.8,2.7-2,3.8-3.4l0.5,4.1
				h5.9v-48.2L355,138.9z M355,162.1v16.4c-1.2,1.6-2.4,2.8-3.6,3.6c-1.2,0.8-2.7,1.2-4.4,1.2c-2.4,0-4.2-1-5.4-3.1
				c-1.3-2.1-1.9-5.3-1.9-9.6c0-4.2,0.7-7.5,2.1-9.6c1.4-2.1,3.3-3.1,5.8-3.1c1.5,0,2.9,0.4,4.1,1.1
				C352.8,159.7,353.9,160.7,355,162.1z"/>
		</g>
		<g id="g1398">
			<g id="g1372">
				
					<linearGradient id="path1217_1_" gradientUnits="userSpaceOnUse" x1="-259.5308" y1="735.3831" x2="-260.1823" y2="736.1008" gradientTransform="matrix(113.0228 0 0 -102.5819 29459.041 75668.4766)">
					<stop  offset="0" style="stop-color:#1A1433"/>
					<stop  offset="0.2297" style="stop-color:#1D1638"/>
					<stop  offset="0.5122" style="stop-color:#271E48"/>
					<stop  offset="0.8211" style="stop-color:#3B2560"/>
					<stop  offset="1" style="stop-color:#4B2772"/>
				</linearGradient>
				<path id="path1217" class="st1" d="M121.2,154.8c-6.7-4.4-15.2-5.8-19.9-6.3c-5-0.5-9.4-0.4-13.3,0.1c-0.3,0-0.7,0-1,0
					c-0.3,0-0.5,0-0.7,0c0.1-0.1,0.2-0.2,0.2-0.2s-0.2,0-0.6,0.2c-1.3,0-2.5,0.1-3.7,0.1c1.7-1.9,3.1-2.9,3.1-2.9s-1.7,0.2-4.7,3
					c-1.4,0.1-2.9,0.3-4.3,0.5c3.2-4.3,6.5-6.1,6.5-6.1s-4-0.8-10.4,5.5c-0.5,0.5-1,1.1-1.5,1.6c-18.4,4.5-31.6,16.4-31.6,30.4
					c0,2.7-0.8,5.8,0.1,8.8c-0.4,4.8,0.4,18,0.4,18s5,27,24.2,31.7c0.3,0.1-4-6.7-5.9-14.9c3.7,3.8,8.1,6.8,13.1,7.3
					c0.6,0.1-2.8-4-5.9-8.9l43.6,14.7c22.8-9.8,20.2-8.9,25.1-14.2c10.8-11.7,12.3-18.3,9.6-37.9C141.7,172.2,132,159.1,121.2,154.8
					z"/>
				<polygon id="polygon1219" class="st2" points="41.8,215.4 113.9,239.3 127.3,182.5 44.7,167.1 38.2,204.2 				"/>
				<g id="g1223" transform="translate(10.061626, 31.732822)">
					<path id="path1221" class="st3" d="M34.8,136.7c0.4,0.8,0.3,1,0,1c-0.1,0-0.2,0-0.3-0.1c-0.1,0-0.2-0.1-0.3-0.1
						c-0.2,0-0.1,0.3,1,1.7c1.6,2,25.1,37.4,26.3,37.4c0,0,0,0,0,0c10.9-3.9,57.4-19.8,57.4-19.8l-4.8-6.9L34.8,136.7"/>
				</g>
				<path id="path1225" class="st4" d="M45.6,167.5c0,0,0.3,1.8,2,3.8c1.6,2,23.3,34.8,24.4,34.5c14.2-3.8,65.6-23.8,65.6-23.8
					L45.6,167.5z"/>
				<polygon id="polygon1227" class="st3" points="111.3,238.5 42.8,215.7 43,217.3 112.1,240.3 				"/>
				
					<linearGradient id="path1240_1_" gradientUnits="userSpaceOnUse" x1="-258.5501" y1="729.0463" x2="-257.6141" y2="729.0463" gradientTransform="matrix(23.3559 0 0 -34.9549 6077.6421 25666.0723)">
					<stop  offset="0" style="stop-color:#3357A4"/>
					<stop  offset="0.2474" style="stop-color:#3452A0"/>
					<stop  offset="0.5365" style="stop-color:#3C4496"/>
					<stop  offset="0.8453" style="stop-color:#472C82"/>
					<stop  offset="1" style="stop-color:#4B2772"/>
				</linearGradient>
				<path id="path1240" class="st5" d="M60.8,166c0,0-24.9,7.3-13.5,32.7c0,0-5.2-4.8-8.4-10.9c-0.1-0.3,5.2-19.3,5.2-19.3L60.8,166
					z"/>
				
					<radialGradient id="path1253_1_" cx="-259.3978" cy="733.1225" r="0.6754" gradientTransform="matrix(58.1396 0 0 -58.1396 15142.7373 42814.3789)" gradientUnits="userSpaceOnUse">
					<stop  offset="0.1654" style="stop-color:#43BCCE"/>
					<stop  offset="0.5478" style="stop-color:#2C60AB"/>
					<stop  offset="0.6546" style="stop-color:#2A59A5"/>
					<stop  offset="0.864" style="stop-color:#363F82"/>
					<stop  offset="1" style="stop-color:#432C62"/>
				</radialGradient>
				<path id="path1253" class="st6" d="M47.3,198.7c-2.2,0-5.7-1.8-6.8-4c-1.4,23.5,8.2,37.3,23.4,44.6c-5-0.6-29.7-13.6-29.7-45.1
					c0-26.7,21.2-50.6,54.4-51.7c0.2,1.5-16.5,5.3-17,7c-0.8,2.8-2.7,5.7-4.3,8.1c-2.2,3.3,3,6-0.8,6.9c-5.7,1.3-13.4,0.6-19.1,7.9
					C39,183.6,44.7,196.2,47.3,198.7z"/>
				<g id="g1266" transform="translate(21.671195, 4.643828)">
					
						<linearGradient id="path1264_1_" gradientUnits="userSpaceOnUse" x1="-281.7315" y1="726.9725" x2="-280.7955" y2="726.9725" gradientTransform="matrix(72.3275 0 0 -46.8885 20410.0273 34247.1094)">
						<stop  offset="0" style="stop-color:#2C60AB"/>
						<stop  offset="0.1846" style="stop-color:#3152A0"/>
						<stop  offset="0.6826" style="stop-color:#442C84"/>
						<stop  offset="0.9409" style="stop-color:#4B2772"/>
					</linearGradient>
					<path id="path1264" class="st7" d="M75.7,138.7c-21.5-1.7-32.6,7-39.7,17c-2.6,3.6-2.3,7-1.4,11c0.4,1.7,0.8,2.6,0.3,4.3
						c-0.3,1-0.2,1.9-0.5,2.4c-0.4,0.8-1,1.7-1.2,3.1c-0.5,3.5,0.8,4.7,1.6,5.9c1.1-1.1,3.3-3.7,7.2-5.3c3.9-1.6,6.5-3.9,11.5-6.4
						c6.7-3.4,14.6,1.8,29.6-3.1c4.6-1.5,15.2-17.2,17.7-17.8C93.8,142,81.9,139.2,75.7,138.7z"/>
				</g>
				<path id="path1268" class="st8" d="M83.2,138.5c0,0-3.8,1.9-5.5,5.2c3.9-1.9,6.1-3,7.2-3.1c0,0-1,0.5-2.3,3.2
					c2.2-0.7,3-1.2,3.6-1.2c0,0-0.2,0.3-0.3,2.9c-3.4-1.1-10,0.2-13.5,2.4C71.1,141.5,83.2,138.5,83.2,138.5z"/>
				
					<linearGradient id="path1281_1_" gradientUnits="userSpaceOnUse" x1="-259.9354" y1="732.5811" x2="-259.3021" y2="731.7979" gradientTransform="matrix(73.5257 0 0 -51.6792 19176.6465 38008.3555)">
					<stop  offset="2.020000e-02" style="stop-color:#4AA8DE"/>
					<stop  offset="0.3883" style="stop-color:#2C60AB"/>
					<stop  offset="0.4968" style="stop-color:#3152A0"/>
					<stop  offset="0.7892" style="stop-color:#442C84"/>
					<stop  offset="0.9409" style="stop-color:#4B2772"/>
				</linearGradient>
				<path id="path1281" class="st9" d="M98.4,142.4c-6.6-0.9-12.1-0.7-16.8,0.2c1.5-1.4,3.2-2.1,3.2-2.1c-2.2,0.2-5,1.6-7.3,3.2
					c-1.2,0.4-2.3,0.8-3.4,1.3c0.7-0.9,1.4-1.8,2.2-2.5c2.8-2.6,6.9-4,6.9-4c-3.5-0.3-15.3,2.8-22.4,17.1c-1.2,1.4-2.2,2.9-3.3,4.3
					c-2.7,3.8-2.4,7.2-1.5,11.4c0.4,1.8,0.5,4.6,0.1,6.5c-0.1,0.4-1.1,1.3-1.3,3.9c-0.3,2.7,0.7,4.1,1.7,5.2c3.4-5,6.8-6,6.8-6
					c4.8-1.9,6.7-4,11.8-6.6c7-3.6,31.3,8,46.8,3c4.8-1.6-1.8-21.8,0.8-22.4C115.3,146.8,104.8,143.2,98.4,142.4z"/>
				
					<linearGradient id="path1288_1_" gradientUnits="userSpaceOnUse" x1="-260.6342" y1="735.1619" x2="-259.3145" y2="736.3875" gradientTransform="matrix(69.1625 0 0 -110.4069 18069.4199 81460.7812)">
					<stop  offset="0.3787" style="stop-color:#3357A4"/>
					<stop  offset="1" style="stop-color:#4B2772"/>
				</linearGradient>
				<path id="path1288" class="st10" d="M146.7,186c-3.8-19.9-22.2-38-36.9-39c-6.5-0.4-4.5,2.9-8.6,4.2
					c-17.7,5.5-17.9,8.7-17.9,8.7c37.4,1.8,38,38.7,28,48.1c2.8-0.7,5.9-4.1,8.7-9.5c-0.3,2.3-0.6,5.1-1,8.2
					c-1.3,9.5,0.4,29.3-26.9,42.6c0,0,14.9-1.2,22.3-9.5c-3,6.9-11.3,10.7-11.3,10.7c6.1-0.9,22-5.6,32.2-18.3
					C146.7,217.6,150.2,204.1,146.7,186z"/>
				
					<linearGradient id="path1299_1_" gradientUnits="userSpaceOnUse" x1="-260.1204" y1="734.5889" x2="-259.3899" y2="735.8093" gradientTransform="matrix(69.0978 0 0 -92.8795 18052.5488 68495.0547)">
					<stop  offset="0" style="stop-color:#2BABE2"/>
					<stop  offset="0.7733" style="stop-color:#385BA6"/>
					<stop  offset="0.8575" style="stop-color:#424293"/>
					<stop  offset="1" style="stop-color:#4B2772"/>
				</linearGradient>
				<path id="path1299" class="st11" d="M110.2,222.4c0,0,12.2-3.4,16.1-10c-0.5,7.7-7.4,15.5-7.4,15.5s10.2-2.1,14.5-9.2
					c-0.6,6.4-8.4,15.2-8.4,15.2c8-1.4,28.1-14.1,21.7-47.9c-3.8-19.9-22.2-38-36.9-39c-6.5-0.4-4.5,2.9-8.6,4.2
					c-17.6,5.5-17.9,8.7-17.9,8.7c37.4,1.8,47.4,21.3,28,47.5c2.8-0.7,4-2.2,6.1-4.7C117.3,202.7,118.3,212.7,110.2,222.4z"/>
				
					<linearGradient id="path1306_1_" gradientUnits="userSpaceOnUse" x1="-254.9655" y1="707.0358" x2="-254.6607" y2="706.8925" gradientTransform="matrix(9.0275 0 0 -11.0345 2358.1758 7982.6367)">
					<stop  offset="0" style="stop-color:#B0DBD5"/>
					<stop  offset="1" style="stop-color:#53ACE1"/>
				</linearGradient>
				<path id="path1306" class="st12" d="M62.2,177.9c0,0-2.2,1.5-3.7,1.1c-1.9-0.5-2.2-2.3-2.2-2.3c0,0.4-0.1,0.7-0.2,1
					c-0.1,0.4-1.1,1.3-1.3,3.9c-0.3,2.7,0.7,4.3,1.7,5.4c3.4-5,6.7-6.2,6.7-6.2C61.8,180.4,62.2,177.9,62.2,177.9z"/>
				<g id="g1338" transform="translate(79.719040, 8.513684)" class="st13">
					<g id="g1336">
						<g id="g1334" class="st14">
							
								<linearGradient id="path1332_1_" gradientUnits="userSpaceOnUse" x1="-333.2602" y1="620.5687" x2="-334.0111" y2="620.9258" gradientTransform="matrix(7.3452 0 0 -3.2624 2483.5427 2165.0942)">
								<stop  offset="0" style="stop-color:#3092B9"/>
								<stop  offset="0.2199" style="stop-color:#258DB7"/>
								<stop  offset="0.6564" style="stop-color:#1285B2"/>
								<stop  offset="1" style="stop-color:#1082B0"/>
							</linearGradient>
							<path id="path1332" class="st15" d="M29.8,138.4c0.5-0.1,2.6,0.1,4,0.7c1.4,0.6,3.7,1.7,1.8,2.2s-3-0.3-3.9-1.1
								S28.6,138.8,29.8,138.4z"/>
						</g>
					</g>
				</g>
				
					<linearGradient id="path1349_1_" gradientUnits="userSpaceOnUse" x1="-258.3834" y1="726.19" x2="-258.2039" y2="725.5082" gradientTransform="matrix(25.2795 0 0 -26.6986 6603.2573 19544.1895)">
					<stop  offset="7.400000e-03" style="stop-color:#0F98D1;stop-opacity:0"/>
					<stop  offset="0.2482" style="stop-color:#1187C3;stop-opacity:0.6197"/>
					<stop  offset="0.6422" style="stop-color:#3F659A;stop-opacity:0.71"/>
					<stop  offset="1" style="stop-color:#2F4283;stop-opacity:0.5"/>
				</linearGradient>
				<path id="path1349" class="st16" d="M62.4,177.6c0,0,11.9-19.7,22.7-25c1-0.5-14.9,4.2-21.3,11.3
					C59.9,168.1,61.9,176.4,62.4,177.6z"/>
				<path id="path1351" class="st17" d="M62.4,177.6C62.4,177.6,62.4,177.6,62.4,177.6c3.1-1.9,8.4-3,10.1-6.5
					c6.6-13.3,12.6-18.5,12.6-18.5C74.3,157.9,62.4,177.6,62.4,177.6z"/>
				<path id="path1353" class="st18" d="M63.5,174c0,0-2.1-3.3,0.9-6.3c1.6-1.6,4.1-0.7,4.4-0.4c1.2,1.2,0.5,3.8-0.6,5.2
					C67.6,173.3,65.8,174.5,63.5,174z"/>
				
					<linearGradient id="path1368_1_" gradientUnits="userSpaceOnUse" x1="-249.9436" y1="673.3647" x2="-250.45" y2="673.6412" gradientTransform="matrix(4.9375 0 0 -5.4344 1301.8715 3831.5161)">
					<stop  offset="0" style="stop-color:#F9C21B"/>
					<stop  offset="0.1479" style="stop-color:#F3BA1E"/>
					<stop  offset="0.3787" style="stop-color:#E3A41B"/>
					<stop  offset="0.6634" style="stop-color:#C8801D"/>
					<stop  offset="0.9884" style="stop-color:#A54F1C"/>
					<stop  offset="1" style="stop-color:#A44D1C"/>
				</linearGradient>
				<path id="path1368" class="st19" d="M64.7,173.8c0,0-1.5-2.3,0.7-4.4c1.1-1.1,2.8-0.5,3-0.3c0.8,0.8,0.3,2.6-0.4,3.6
					C67.5,173.3,66.3,174.2,64.7,173.8z"/>
				<path id="path1370" class="st20" d="M67.7,171.3c0,0.9-0.8,1.6-1.7,1.6c-0.9,0-1.6-0.8-1.6-1.7c0-0.9,0.8-1.6,1.7-1.6
					C67,169.7,67.7,170.4,67.7,171.3z"/>
			</g>
			<circle id="circle1374" class="st21" cx="65" cy="170.8" r="0.9"/>
			
				<linearGradient id="path1381_1_" gradientUnits="userSpaceOnUse" x1="-258.9375" y1="733.0356" x2="-259.4049" y2="733.6673" gradientTransform="matrix(36.2446 0 0 -60.2366 9514.3125 44353.9922)">
				<stop  offset="0" style="stop-color:#409EC3"/>
				<stop  offset="0.62" style="stop-color:#2C60AB"/>
			</linearGradient>
			<path id="path1381" class="st22" d="M139.5,168.4c-8.2-12.4-14.6-15.6-14.6-15.6s0.3,9.1,4.8,13.4c0.5,0.5-5.4-3.9-5.4-3.9
				s-1.3,4.2,1.6,9c-0.8-1.1-1.4-1.5-1.4-1.5s-5.5,2.5-7.1,6c-0.8-1.6-1.5-2.5-1.5-2.5s-3.8,7.6-3.3,16.3
				c0.8,14.3-2.7,19.5-2.7,19.5s9.2-3.5,13.7-15c1.8,4.9-0.1,10-0.1,10s7.5-5.6,9.1-15.7c1.8,2.9,1.3,8.6,1.3,8.6s4.8-6.6,4.9-13.9
				c2.2,1.5,2.4,7.6,2.4,7.6S148.2,181.7,139.5,168.4z"/>
			
				<linearGradient id="path1396_1_" gradientUnits="userSpaceOnUse" x1="-259.2391" y1="731.3497" x2="-259.4651" y2="732.1345" gradientTransform="matrix(53.7058 0 0 -47.6047 14038.3154 35001.5703)">
				<stop  offset="0" style="stop-color:#0EB2DA"/>
				<stop  offset="0.4028" style="stop-color:#3179BE"/>
				<stop  offset="0.5077" style="stop-color:#2F6DB5"/>
				<stop  offset="0.6492" style="stop-color:#2E63AD"/>
				<stop  offset="0.8162" style="stop-color:#2C60AB"/>
				<stop  offset="0.9835" style="stop-color:#2C60AB"/>
			</linearGradient>
			<path id="path1396" class="st23" d="M131.6,159.7c-2.1-4-5.9-6.5-9.2-8.6c-8.2-5.1-13.6-5.8-13.6-5.8s-7.6,1.4-6.3,3.5
				c0.1,0.1,0.2,0.2,0.4,0.4c-6.7-3.1-10.5,4-10.5,4c-3.8-0.2-8.5,1.6-9.8,6.7c-0.1,0.5,1.7,0.2,2.7,0.4c5.6,1.2,10.8,3.8,13.2,5.1
				c5.6,3,8.9,8,10.8,11.8c2.3,4.6,3.3,12.6,3.3,12.6s6.1-8.4,4.6-12.7c2.4,1.5,2.9,6.9,2.9,6.9s4.1-6.4,2.9-11.9
				c3.1,1.9,3.2,5.8,3.2,5.8s3.2-4.4,1.8-11.7c3.2,2.5,3.8,5.8,3.8,5.8S134.4,165.1,131.6,159.7z"/>
		</g>
	</g>
	<path id="Combined-Shape" class="st21" d="M510.7,194.6c-2.1,0-3.7-1.7-3.7-3.7s1.7-3.7,3.7-3.7s3.7,1.7,3.7,3.7
		S512.7,194.6,510.7,194.6z M510.7,193.9c1.7,0,3-1.3,3-3c0-1.7-1.3-3-3-3c-1.7,0-3,1.3-3,3C507.7,192.6,509.1,193.9,510.7,193.9z"
		/>
	<g id="tspan1038">
		<g>
			<path id="path-14" class="st20" d="M510.9,190.8c0.2,0,0.4,0,0.6-0.1c0.1-0.1,0.2-0.3,0.2-0.5c0-0.3-0.1-0.5-0.3-0.6
				c-0.1-0.1-0.3-0.1-0.4-0.1h-1.3v1.3H510.9z M509.2,189h1.8c0.3,0,0.5,0,0.7,0.1c0.4,0.2,0.5,0.5,0.5,0.9c0,0.2,0,0.4-0.1,0.6
				c-0.1,0.1-0.2,0.3-0.4,0.4c0.2,0.1,0.3,0.1,0.3,0.2c0.1,0.1,0.1,0.3,0.1,0.5l0,0.5c0,0.1,0,0.3,0,0.3c0,0.1,0.1,0.2,0.2,0.2v0.1
				h-0.6c0,0,0-0.1,0-0.1c0-0.1,0-0.2,0-0.3l0-0.6c0-0.3-0.1-0.4-0.3-0.5c-0.1,0-0.3-0.1-0.5-0.1h-1.2v1.7h-0.5V189z"/>
		</g>
		<g>
			<path id="path-14_1_" class="st21" d="M510.9,190.8c0.2,0,0.4,0,0.6-0.1c0.1-0.1,0.2-0.3,0.2-0.5c0-0.3-0.1-0.5-0.3-0.6
				c-0.1-0.1-0.3-0.1-0.4-0.1h-1.3v1.3H510.9z M509.2,189h1.8c0.3,0,0.5,0,0.7,0.1c0.4,0.2,0.5,0.5,0.5,0.9c0,0.2,0,0.4-0.1,0.6
				c-0.1,0.1-0.2,0.3-0.4,0.4c0.2,0.1,0.3,0.1,0.3,0.2c0.1,0.1,0.1,0.3,0.1,0.5l0,0.5c0,0.1,0,0.3,0,0.3c0,0.1,0.1,0.2,0.2,0.2v0.1
				h-0.6c0,0,0-0.1,0-0.1c0-0.1,0-0.2,0-0.3l0-0.6c0-0.3-0.1-0.4-0.3-0.5c-0.1,0-0.3-0.1-0.5-0.1h-1.2v1.7h-0.5V189z"/>
		</g>
	</g>
</g>
</svg>
