<svg width="64" height="64" viewBox="0 0 64 64" fill="none" xmlns="http://www.w3.org/2000/svg">
<circle cx="32" cy="32" r="32" fill="black"/>
<rect x="19.1345" y="39.75" width="31.7308" height="8.25" rx="2" fill="#F2E1A3"/>
<rect x="19.7693" y="45.4615" width="1.90385" height="1.26923" fill="#5A5A5A"/>
<rect x="19.7693" y="45.4615" width="1.90385" height="1.26923" fill="#5A5A5A"/>
<rect x="19.7693" y="43.5577" width="1.90385" height="1.26923" fill="#5A5A5A"/>
<rect x="19.7693" y="43.5577" width="1.90385" height="1.26923" fill="#5A5A5A"/>
<rect x="19.7693" y="41.6538" width="1.90385" height="1.26923" fill="#5A5A5A"/>
<rect x="19.7693" y="41.6538" width="1.90385" height="1.26923" fill="#5A5A5A"/>
<rect x="22.3076" y="41.6538" width="1.90385" height="1.26923" fill="#5A5A5A"/>
<rect x="22.3076" y="41.6538" width="1.90385" height="1.26923" fill="#5A5A5A"/>
<rect x="22.3076" y="43.5577" width="1.90385" height="1.26923" fill="#5A5A5A"/>
<rect x="22.3076" y="43.5577" width="1.90385" height="1.26923" fill="#5A5A5A"/>
<rect x="22.3076" y="45.4615" width="1.90385" height="1.26923" fill="#5A5A5A"/>
<rect x="22.3076" y="45.4615" width="1.90385" height="1.26923" fill="#5A5A5A"/>
<rect x="24.8462" y="45.4615" width="1.90385" height="1.26923" fill="#5A5A5A"/>
<rect x="24.8462" y="45.4615" width="1.90385" height="1.26923" fill="#5A5A5A"/>
<rect x="24.8462" y="43.5577" width="1.90385" height="1.26923" fill="#5A5A5A"/>
<rect x="24.8462" y="43.5577" width="1.90385" height="1.26923" fill="#5A5A5A"/>
<rect x="24.8462" y="41.6538" width="1.90385" height="1.26923" fill="#5A5A5A"/>
<rect x="24.8462" y="41.6538" width="1.90385" height="1.26923" fill="#5A5A5A"/>
<rect x="27.3845" y="41.6538" width="1.90385" height="1.26923" fill="#5A5A5A"/>
<rect x="27.3845" y="41.6538" width="1.90385" height="1.26923" fill="#5A5A5A"/>
<rect x="27.3845" y="43.5577" width="1.90385" height="1.26923" fill="#5A5A5A"/>
<rect x="27.3845" y="43.5577" width="1.90385" height="1.26923" fill="#5A5A5A"/>
<rect x="27.3845" y="45.4615" width="1.90385" height="1.26923" fill="#5A5A5A"/>
<rect x="27.3845" y="45.4615" width="1.90385" height="1.26923" fill="#5A5A5A"/>
<rect x="29.9231" y="45.4615" width="1.90385" height="1.26923" fill="#5A5A5A"/>
<rect x="29.9231" y="45.4615" width="1.90385" height="1.26923" fill="#5A5A5A"/>
<rect x="29.9231" y="43.5577" width="1.90385" height="1.26923" fill="#5A5A5A"/>
<rect x="29.9231" y="43.5577" width="1.90385" height="1.26923" fill="#5A5A5A"/>
<rect x="29.9231" y="41.6538" width="1.90385" height="1.26923" fill="#5A5A5A"/>
<rect x="29.9231" y="41.6538" width="1.90385" height="1.26923" fill="#5A5A5A"/>
<rect x="32.4614" y="41.6538" width="1.90385" height="1.26923" fill="#5A5A5A"/>
<rect x="32.4614" y="41.6538" width="1.90385" height="1.26923" fill="#5A5A5A"/>
<rect x="32.4614" y="43.5577" width="1.90385" height="1.26923" fill="#5A5A5A"/>
<rect x="32.4614" y="43.5577" width="1.90385" height="1.26923" fill="#5A5A5A"/>
<rect x="32.4614" y="45.4615" width="1.90385" height="1.26923" fill="#5A5A5A"/>
<rect x="32.4614" y="45.4615" width="1.90385" height="1.26923" fill="#5A5A5A"/>
<rect x="35" y="45.4615" width="1.90385" height="1.26923" fill="#5A5A5A"/>
<rect x="35" y="45.4615" width="1.90385" height="1.26923" fill="#5A5A5A"/>
<rect x="35" y="43.5577" width="1.90385" height="1.26923" fill="#5A5A5A"/>
<rect x="35" y="43.5577" width="1.90385" height="1.26923" fill="#5A5A5A"/>
<rect x="35" y="41.6538" width="1.90385" height="1.26923" fill="#5A5A5A"/>
<rect x="35" y="41.6538" width="1.90385" height="1.26923" fill="#5A5A5A"/>
<rect x="37.5386" y="41.6538" width="1.90385" height="1.26923" fill="#5A5A5A"/>
<rect x="37.5386" y="41.6538" width="1.90385" height="1.26923" fill="#5A5A5A"/>
<rect x="37.5386" y="43.5577" width="1.90385" height="1.26923" fill="#5A5A5A"/>
<rect x="37.5386" y="43.5577" width="1.90385" height="1.26923" fill="#5A5A5A"/>
<rect x="40.0769" y="42.9231" width="1.90385" height="3.17308" fill="#5A5A5A"/>
<rect x="40.0769" y="42.9231" width="1.90385" height="3.17308" fill="#5A5A5A"/>
<rect x="37.5386" y="45.4615" width="1.90385" height="1.26923" fill="#5A5A5A"/>
<rect x="37.5386" y="45.4615" width="1.90385" height="1.26923" fill="#5A5A5A"/>
<rect x="43.25" y="45.4615" width="1.90385" height="1.26923" fill="#5A5A5A"/>
<rect x="43.25" y="45.4615" width="1.90385" height="1.26923" fill="#5A5A5A"/>
<rect x="45.7886" y="43.5577" width="1.90385" height="1.26923" fill="#5A5A5A"/>
<rect x="45.7886" y="43.5577" width="1.90385" height="1.26923" fill="#5A5A5A"/>
<rect x="45.7886" y="45.4615" width="1.90385" height="1.26923" fill="#5A5A5A"/>
<rect x="45.7886" y="45.4615" width="1.90385" height="1.26923" fill="#5A5A5A"/>
<rect x="48.3269" y="45.4615" width="1.90385" height="1.26923" fill="#5A5A5A"/>
<rect x="48.3269" y="45.4615" width="1.90385" height="1.26923" fill="#5A5A5A"/>
<rect x="22.3076" y="15" width="27.9231" height="17.7692" rx="5" fill="#CDC094"/>
<rect x="21.0386" y="17.5385" width="30.4615" height="20.3077" rx="5" fill="#F2E1A3"/>
<path d="M13 20C13 18.3431 14.3431 17 16 17V17C17.6569 17 19 18.3431 19 20V37H13V20Z" fill="#BCAA68"/>
<path d="M12 22C12 19.7909 13.7909 18 16 18V18C18.2091 18 20 19.7909 20 22V38H12V22Z" fill="#F2E1A3"/>
<path d="M13.4231 19.7596C13.4231 19.5844 13.5652 19.4423 13.7404 19.4423V19.4423C13.9156 19.4423 14.0577 19.5844 14.0577 19.7596V32.4519C14.0577 32.6272 13.9156 32.7692 13.7404 32.7692V32.7692C13.5652 32.7692 13.4231 32.6272 13.4231 32.4519V19.7596Z" fill="#BCAA68"/>
<path d="M14.6924 19.7596C14.6924 19.5844 14.8344 19.4423 15.0097 19.4423V19.4423C15.1849 19.4423 15.327 19.5844 15.327 19.7596V32.4519C15.327 32.6272 15.1849 32.7692 15.0097 32.7692V32.7692C14.8344 32.7692 14.6924 32.6272 14.6924 32.4519V19.7596Z" fill="#BCAA68"/>
<path d="M16.5962 19.7596C16.5962 19.5844 16.7383 19.4423 16.9135 19.4423V19.4423C17.0887 19.4423 17.2308 19.5844 17.2308 19.7596V32.4519C17.2308 32.6272 17.0887 32.7692 16.9135 32.7692V32.7692C16.7383 32.7692 16.5962 32.6272 16.5962 32.4519V19.7596Z" fill="#BCAA68"/>
<path d="M17.8655 34.3558C17.8655 34.1805 18.0075 34.0385 18.1828 34.0385V34.0385C18.358 34.0385 18.5001 34.1805 18.5001 34.3558V34.3558C18.5001 34.531 18.358 34.6731 18.1828 34.6731V34.6731C18.0075 34.6731 17.8655 34.531 17.8655 34.3558V34.3558Z" fill="#CC3809"/>
<path d="M17.2307 34.3558C17.2307 34.1805 17.3728 34.0385 17.548 34.0385V34.0385C17.7233 34.0385 17.8653 34.1805 17.8653 34.3558V34.3558C17.8653 34.531 17.7233 34.6731 17.548 34.6731V34.6731C17.3728 34.6731 17.2307 34.531 17.2307 34.3558V34.3558Z" fill="#86D900"/>
<path d="M17.8655 19.7596C17.8655 19.5844 18.0075 19.4423 18.1828 19.4423V19.4423C18.358 19.4423 18.5001 19.5844 18.5001 19.7596V32.4519C18.5001 32.6272 18.358 32.7692 18.1828 32.7692V32.7692C18.0075 32.7692 17.8655 32.6272 17.8655 32.4519V19.7596Z" fill="#BCAA68"/>
<rect x="22.3076" y="18.8077" width="27.9231" height="17.7692" rx="5" fill="#647751"/>
<path d="M40.5 24.5L41.5 20.5L41.2829 20.5543M38 23L39.5 21L41.2829 20.5543M41.2829 20.5543L43 22L39.5 23.5" stroke="black"/>
<ellipse cx="41.5" cy="20" rx="1.5" ry="1" fill="black"/>
<path d="M39 27.5L36.5 26L41 24.5L42 26.5L45 25.5" stroke="black"/>
<path d="M44 24L46 23" stroke="#D0D0D0"/>
<path d="M43.5 21L46.5 19.5M46.5 22L48.5 21.5M46.5 25C46.9 25 48.6667 24.3333 49.5 24" stroke="#D0D0D0"/>
<path d="M27.5 32.5L28 28.5L29.5 30C29.6667 30.1667 30.1 30.3 30.5 29.5" stroke="black"/>
<path d="M27 36C27 34.5 27.2 31.8 28 33C29.6 35 30 35.8333 30 36" stroke="black"/>
<path d="M28 28L26 30L28.5 31.5" stroke="black"/>
<ellipse cx="28.5" cy="27" rx="1.5" ry="1" fill="black"/>
<circle cx="31" cy="28" r="1" fill="#DD0000"/>
<path d="M30.3333 29V28.3333M31 29L31.3333 28.6667M31.6667 28.3333L32 28M30.6667 28H31M30.3333 27.3333L30 28M31 27.3333L30.6667 27M31.6667 27.3333L31.3333 27.6667" stroke="#C43407"/>
<circle cx="31" cy="28" r="1" fill="#DD0000"/>
<path d="M30.3333 29V28.3333M31 29L31.3333 28.6667M31.6667 28.3333L32 28M30.6667 28H31M30.3333 27.3333L30 28M31 27.3333L30.6667 27M31.6667 27.3333L31.3333 27.6667" stroke="#C43407"/>
<ellipse cx="33.9071" cy="28.8626" rx="3.5" ry="2" transform="rotate(15.5002 33.9071 28.8626)" fill="#DD0000"/>
<path d="M31.1241 30.1663L31.4804 28.8815M33.3726 30.7899L34.675 30.4592M35.9774 30.1286L37.2798 29.7979M32.7828 28.5508L33.9071 28.8626M32.0149 26.9542L30.5344 27.9273M34.2634 27.5778L33.3173 26.6236M36.5119 28.2013L35.2095 28.532" stroke="#C43407"/>
<ellipse cx="39.574" cy="30.5" rx="5.98756" ry="3.00933" transform="rotate(15.5002 39.574 30.5)" fill="#DD0000"/>
<path d="M34.9232 32.3331L35.4594 30.3999M38.7698 33.3999L40.9611 32.9666M43.1524 32.5334L45.3438 32.1001M37.6507 29.9666L39.574 30.5M36.2636 27.5L33.8042 28.8999M40.1101 28.5667L38.4549 27.0667M43.9566 29.6335L41.7653 30.0668" stroke="#C43407"/>
</svg>
